<svg width="382" height="386" viewBox="0 0 382 386" fill="none" xmlns="http://www.w3.org/2000/svg">
<path opacity="0.2" d="M351.399 63.6676C351.402 59.817 347.233 57.4092 343.899 59.335L244.553 116.712C243.007 117.604 242.054 119.253 242.053 121.038L242.005 206.833C242.003 210.683 246.171 213.091 249.506 211.165L348.851 153.789C350.397 152.896 351.35 151.247 351.351 149.462L351.399 63.6676Z" fill="url(#paint0_linear)"/>
<path opacity="0.3" d="M343.731 59.3037C348.337 56.602 353.402 62.0321 350.388 66.4392L298.878 141.747C297.583 143.64 295.166 144.41 293.015 143.613L245.893 126.164C241.938 124.699 241.462 119.296 245.1 117.162L343.731 59.3037Z" fill="url(#paint1_linear)"/>
<path d="M287.26 147.061C287.26 153.943 291.389 157.082 296.565 154.108C301.685 151.135 305.87 143.151 305.87 136.324C305.87 129.442 301.74 126.303 296.565 129.276C291.444 132.25 287.26 140.233 287.26 147.061Z" fill="url(#paint2_linear)"/>
<path fill-rule="evenodd" clip-rule="evenodd" d="M164.992 203.303C168.327 201.458 172.417 203.873 172.413 207.684L172.34 272.487C172.398 272.71 172.432 272.946 172.438 273.193L172.948 293.914C173.005 296.207 170.572 297.713 168.545 296.639L153.951 288.906C153.014 288.41 152.472 287.515 152.372 286.571L41.9123 347.417C38.58 349.252 34.4999 346.842 34.4999 343.037V278.448C34.4999 276.629 35.4877 274.953 37.0793 274.073L164.992 203.303Z" fill="url(#paint3_linear)" fill-opacity="0.4"/>
<path opacity="0.3" d="M259.504 40.611L20.9638 210.883C17.3086 213.492 18.6792 219.223 23.1193 219.896L220.694 249.848C222.241 250.09 224.354 248.067 224.27 246.442L219.695 162.289C219.523 159.141 216.517 156.935 213.462 157.717L105.233 185.42L221.359 141.556C222.682 141.056 223.731 140.019 224.247 138.703L262.126 42.0819C262.915 40.171 261.332 39.3403 259.504 40.611Z" fill="url(#paint4_linear)"/>
<path opacity="0.5" d="M41.7653 169.482L41.7653 145.283C41.6972 144.504 42.1186 143.554 42.7321 143.213L61.6945 132.68C62.308 132.339 62.8904 132.731 63.0143 133.479L63.0143 158.247C63.0824 159.027 62.308 160.013 61.6945 160.354L43.6255 170.184C42.9997 170.634 41.8768 170.34 41.7653 169.482Z" fill="url(#paint5_linear)"/>
<path opacity="0.3" d="M7.77551 151.345L7.77551 134.215C7.7273 133.663 8.02562 132.991 8.45991 132.75L21.8833 125.293C22.3176 125.052 22.73 125.329 22.8177 125.859L22.8177 143.392C22.8659 143.944 22.3176 144.642 21.8833 144.883L9.09239 151.842C8.64932 152.161 7.85443 151.952 7.77551 151.345Z" fill="url(#paint6_linear)"/>
<path opacity="0.3" d="M69.7755 373.345L69.7755 356.215C69.7273 355.663 70.0256 354.991 70.4599 354.75L83.8833 347.293C84.3176 347.052 84.73 347.329 84.8177 347.859L84.8177 365.392C84.8659 365.944 84.3176 366.642 83.8833 366.883L71.0924 373.842C70.6493 374.161 69.8544 373.952 69.7755 373.345Z" fill="url(#paint7_linear)"/>
<path opacity="0.3" d="M358.776 205.345L358.776 188.215C358.727 187.663 359.026 186.991 359.46 186.75L372.883 179.293C373.318 179.052 373.73 179.329 373.818 179.859L373.818 197.392C373.866 197.944 373.318 198.642 372.883 198.883L360.092 205.842C359.649 206.161 358.854 205.952 358.776 205.345Z" fill="url(#paint8_linear)"/>
<path opacity="0.5" d="M338.086 169.339L338.086 140.509C338.005 139.58 338.507 138.449 339.238 138.043L361.83 125.493C362.56 125.087 363.254 125.554 363.402 126.446L363.402 155.954C363.483 156.882 362.56 158.057 361.83 158.463L340.302 170.176C339.557 170.711 338.219 170.361 338.086 169.339Z" fill="url(#paint9_linear)"/>
<path opacity="0.5" d="M102.418 383.353L102.418 354.523C102.336 353.594 102.839 352.463 103.569 352.057L126.161 339.508C126.892 339.102 127.586 339.568 127.733 340.46L127.733 369.968C127.815 370.896 126.892 372.072 126.161 372.478L104.634 384.19C103.888 384.726 102.55 384.375 102.418 383.353Z" fill="url(#paint10_linear)"/>
<path opacity="0.5" d="M138.291 90.2162L138.291 66.0172C138.223 65.2377 138.645 64.2884 139.258 63.9476L158.22 53.4142C158.834 53.0734 159.416 53.465 159.54 54.2136L159.54 78.9811C159.608 79.7607 158.834 80.7469 158.22 81.0877L140.152 90.9184C139.526 91.3683 138.403 91.0738 138.291 90.2162Z" fill="url(#paint11_linear)"/>
<path opacity="0.4" fill-rule="evenodd" clip-rule="evenodd" d="M187.523 260.571C185.977 261.464 185.024 263.113 185.023 264.898L184.984 333.306C184.984 334.107 185.152 334.83 185.446 335.461L186.002 345.476C186.162 348.343 189.871 349.369 191.482 346.991L203.639 329.041C204.083 328.385 204.226 327.659 204.136 326.978L328.419 255.266C329.966 254.373 330.919 252.724 330.92 250.938L330.962 186.429C330.964 182.579 326.796 180.17 323.462 182.095L187.523 260.571Z" fill="url(#paint12_linear)"/>
<path opacity="0.3" d="M222.541 260.543C222.541 259.511 223.092 258.557 223.987 258.041L250.183 242.934C252.109 241.823 254.515 243.213 254.515 245.436V245.436C254.515 246.469 253.964 247.423 253.069 247.939L226.873 263.046C224.947 264.156 222.541 262.767 222.541 260.543V260.543Z" fill="white"/>
<path opacity="0.3" d="M222.492 273.882C222.492 272.85 223.043 271.896 223.938 271.38L279.804 239.158C281.729 238.047 284.135 239.437 284.135 241.66V241.66C284.135 242.693 283.584 243.647 282.69 244.163L226.824 276.384C224.898 277.495 222.492 276.105 222.492 273.882V273.882Z" fill="white"/>
<path opacity="0.3" d="M222.492 287.269C222.492 286.237 223.043 285.283 223.937 284.768L292.848 244.995C294.774 243.884 297.18 245.274 297.18 247.497V247.497C297.18 248.529 296.629 249.482 295.736 249.998L226.824 289.771C224.899 290.882 222.492 289.492 222.492 287.269V287.269Z" fill="white"/>
<path d="M214.646 270.35C214.646 276.627 210.919 283.836 206.358 286.484C201.797 289.132 198.07 286.19 198.07 279.912C198.07 273.635 201.797 266.426 206.358 263.778C210.968 261.13 214.646 264.073 214.646 270.35Z" fill="url(#paint13_linear)"/>
<path opacity="0.3" d="M134.858 244.357C134.858 242.134 132.452 240.744 130.526 241.855L104.329 256.962C103.435 257.478 102.884 258.432 102.884 259.465V259.465C102.884 261.688 105.29 263.078 107.215 261.967L133.412 246.86C134.306 246.344 134.858 245.39 134.858 244.357V244.357Z" fill="white"/>
<path opacity="0.3" d="M134.857 257.745C134.857 255.522 132.451 254.132 130.526 255.243L78.5826 285.209C77.6884 285.724 77.1375 286.678 77.1375 287.711V287.711C77.1375 289.934 79.5437 291.324 81.4694 290.213L133.412 260.247C134.307 259.731 134.857 258.778 134.857 257.745V257.745Z" fill="white"/>
<path opacity="0.3" d="M134.858 271.085C134.858 268.862 132.451 267.472 130.526 268.583L61.6143 308.356C60.7204 308.872 60.1698 309.825 60.1698 310.857V310.857C60.1698 313.08 62.5763 314.47 64.5017 313.359L133.413 273.586C134.307 273.07 134.858 272.117 134.858 271.085V271.085Z" fill="white"/>
<path d="M142.753 241.76C142.753 248.037 146.48 250.979 151.041 248.331C155.602 245.683 159.329 238.474 159.329 232.197C159.329 225.92 155.602 222.977 151.041 225.625C146.48 228.274 142.753 235.532 142.753 241.76Z" fill="url(#paint14_linear)"/>
<defs>
<linearGradient id="paint0_linear" x1="314.404" y1="72.3442" x2="309.724" y2="175.306" gradientUnits="userSpaceOnUse">
<stop stop-color="#23A1FD" stop-opacity="0.31"/>
<stop offset="1" stop-color="#728EBE"/>
</linearGradient>
<linearGradient id="paint1_linear" x1="316.056" y1="132.91" x2="254.664" y2="75.3725" gradientUnits="userSpaceOnUse">
<stop stop-color="#8C9ABF"/>
<stop offset="1" stop-color="#B8DFFC"/>
</linearGradient>
<linearGradient id="paint2_linear" x1="305.87" y1="155.209" x2="292.38" y2="123.275" gradientUnits="userSpaceOnUse">
<stop stop-color="#718EBD"/>
<stop offset="1" stop-color="#23A1FD" stop-opacity="0.11"/>
</linearGradient>
<linearGradient id="paint3_linear" x1="34.088" y1="275.05" x2="172.945" y2="266.154" gradientUnits="userSpaceOnUse">
<stop stop-color="#0688E7" stop-opacity="0.79"/>
<stop offset="1" stop-color="#00AEEA" stop-opacity="0.46"/>
</linearGradient>
<linearGradient id="paint4_linear" x1="177.401" y1="242.261" x2="294.351" y2="99.1817" gradientUnits="userSpaceOnUse">
<stop stop-color="#7EABDB"/>
<stop offset="1" stop-color="#23A1FD" stop-opacity="0.73"/>
</linearGradient>
<linearGradient id="paint5_linear" x1="71.7522" y1="126.224" x2="85.1363" y2="148.912" gradientUnits="userSpaceOnUse">
<stop stop-color="#23A1FD" stop-opacity="0.24"/>
<stop offset="0.651042" stop-color="#23A1FD" stop-opacity="0.65"/>
<stop offset="1" stop-color="#23A1FD" stop-opacity="0.96"/>
</linearGradient>
<linearGradient id="paint6_linear" x1="29.0032" y1="120.723" x2="38.4777" y2="136.784" gradientUnits="userSpaceOnUse">
<stop stop-color="#23A1FD" stop-opacity="0.24"/>
<stop offset="0.651042" stop-color="#23A1FD" stop-opacity="0.65"/>
<stop offset="1" stop-color="#23A1FD" stop-opacity="0.96"/>
</linearGradient>
<linearGradient id="paint7_linear" x1="91.0032" y1="342.723" x2="100.478" y2="358.784" gradientUnits="userSpaceOnUse">
<stop stop-color="#23A1FD" stop-opacity="0.24"/>
<stop offset="0.651042" stop-color="#23A1FD" stop-opacity="0.65"/>
<stop offset="1" stop-color="#23A1FD" stop-opacity="0.96"/>
</linearGradient>
<linearGradient id="paint8_linear" x1="380.003" y1="174.723" x2="389.478" y2="190.784" gradientUnits="userSpaceOnUse">
<stop stop-color="#23A1FD" stop-opacity="0.24"/>
<stop offset="0.651042" stop-color="#23A1FD" stop-opacity="0.65"/>
<stop offset="1" stop-color="#23A1FD" stop-opacity="0.96"/>
</linearGradient>
<linearGradient id="paint9_linear" x1="373.812" y1="117.802" x2="389.758" y2="144.832" gradientUnits="userSpaceOnUse">
<stop stop-color="#23A1FD" stop-opacity="0.24"/>
<stop offset="0.651042" stop-color="#23A1FD" stop-opacity="0.65"/>
<stop offset="1" stop-color="#23A1FD" stop-opacity="0.96"/>
</linearGradient>
<linearGradient id="paint10_linear" x1="138.144" y1="331.816" x2="154.089" y2="358.846" gradientUnits="userSpaceOnUse">
<stop stop-color="#23A1FD" stop-opacity="0.24"/>
<stop offset="0.651042" stop-color="#23A1FD" stop-opacity="0.65"/>
<stop offset="1" stop-color="#23A1FD" stop-opacity="0.96"/>
</linearGradient>
<linearGradient id="paint11_linear" x1="168.278" y1="46.9579" x2="181.662" y2="69.6463" gradientUnits="userSpaceOnUse">
<stop stop-color="#23A1FD" stop-opacity="0.24"/>
<stop offset="0.651042" stop-color="#23A1FD" stop-opacity="0.65"/>
<stop offset="1" stop-color="#23A1FD" stop-opacity="0.96"/>
</linearGradient>
<linearGradient id="paint12_linear" x1="216.83" y1="226.977" x2="346.953" y2="248.497" gradientUnits="userSpaceOnUse">
<stop stop-color="#23A1FD" stop-opacity="0.58"/>
<stop offset="1" stop-color="#5CCFD7" stop-opacity="0.26"/>
</linearGradient>
<linearGradient id="paint13_linear" x1="210.5" y1="287" x2="208" y2="260.5" gradientUnits="userSpaceOnUse">
<stop stop-color="#78A0D0"/>
<stop offset="1" stop-color="#23A1FD" stop-opacity="0"/>
</linearGradient>
<linearGradient id="paint14_linear" x1="148.5" y1="249" x2="149.5" y2="223" gradientUnits="userSpaceOnUse">
<stop stop-color="#78A4D4"/>
<stop offset="0.942708" stop-color="#23A1FD" stop-opacity="0.07"/>
</linearGradient>
</defs>
</svg>
