<svg width="402" height="438" viewBox="0 0 402 438" fill="none" xmlns="http://www.w3.org/2000/svg">
<path d="M318.65 35.9462C318.597 34.9062 318.226 27.4136 318.401 23.0875C318.538 19.6959 318.873 17.692 320.273 14.5996C321.248 12.4471 323.535 9.50344 323.535 9.50344C323.535 9.50344 328.899 15.2428 328.929 19.7715C328.946 22.3763 327.954 23.7202 327.21 26.2165C325.69 31.314 322.546 39.0142 322.546 39.0142C322.546 39.0142 327.376 31.2035 330.889 26.4936C334.049 22.2584 335.376 19.3659 339.488 16.0468C345.336 11.326 349.875 9.91358 357.304 8.75972C364.581 7.6294 368.902 8.66324 376.11 10.1762C382.912 11.6042 387.709 11.3895 392.941 15.9639C397.453 19.9091 400.572 29.2768 400.572 29.2768L396.3 31.4205C396.3 31.4205 389.267 34.5086 384.483 35.4613C378.484 36.6563 377.474 35.2181 371.401 34.476C362.146 33.3448 357.793 29.5642 346.424 27.6638C337.43 26.9863 333.947 27.5876 330.52 31.3967C325.475 37.0037 322.223 52.6208 322.223 52.6208C322.223 52.6208 319.54 70.8015 319.941 82.4954C320.156 88.7675 319.536 72.394 321.441 98.4954C323.345 124.597 324.439 135.546 325.946 161.691C328.413 204.486 324.287 252.126 324.287 252.126C324.287 252.126 324.66 290.449 325.946 300.591C326.839 307.634 331.707 310.642 330.911 317.705C330.531 321.073 328.611 322.415 328.429 325.811C328.012 333.593 330.911 332.116 330.911 332.116H325.946L335.876 347.495L325.946 341.123C325.946 341.123 329.398 352.567 333.394 358.237C337.195 363.63 342.495 362.633 345.186 369.045C347.035 373.453 344.741 377.623 347.047 381.655C350.458 387.616 355.952 383.543 361.322 386.159C369.253 390.022 379.941 400.57 379.941 400.57C379.941 400.57 367.651 393.788 359.46 390.662C353.957 388.562 349.34 391.272 345.186 386.159C341.244 381.306 345.061 373.491 340.841 369.045C337.72 365.756 330.911 365.442 330.911 365.442C330.911 365.442 333.045 381.18 335.876 390.662C339.123 401.535 339.821 409.805 347.047 416.783C350.684 420.294 355.671 417.779 357.598 423.088C358.87 426.591 357.598 432.995 357.598 432.995C356.771 429.693 353.874 423.088 353.874 423.088C353.874 423.088 347.668 421.286 345.186 420.385C342.703 419.485 330.911 390.662 330.911 390.662C330.911 390.662 323.566 373.772 322.843 361.839C322.631 358.333 322.843 352.832 322.843 352.832C322.843 352.832 320.028 372.743 321.602 385.258C322.559 392.863 323.984 396.897 325.946 404.173C327.681 410.602 330.911 420.385 330.911 420.385C330.911 420.385 325.484 410.882 322.843 404.173L322.83 404.138C320.064 397.112 318.445 393 317.258 385.258C315.881 376.287 317.258 361.839 317.258 361.839L310.431 377.495C310.431 377.495 308.008 388.377 303.224 390.662C298.441 392.947 280.441 390.662 280.441 390.662C280.441 390.662 295.6 393.136 301.941 387.495C306.859 383.12 306.872 380.086 308.569 371.995C310.265 363.905 313.485 358.866 313.534 354.634C313.594 349.349 312.913 341.123 312.913 341.123L305.941 355.495L298.441 365.442C298.441 365.442 312.913 336.995 310.431 332.116C308.076 327.488 313.368 324.678 314.154 319.506C315.046 313.638 314.137 310.174 314.154 304.194C314.293 257.737 322.516 237.074 320.696 190.677C319.449 158.873 317.545 118.495 316.612 101.495C315.679 84.4954 315.319 86.8681 315.679 77.4954C316.055 67.7192 318.043 60.7586 318.656 52.6208C319.131 46.3246 318.321 41.2474 316.612 35.9133C315.529 32.5294 315.532 28.9175 313.232 26.2078C309.697 22.0425 303.443 19.7178 297.719 19.2867C285.091 17.736 279.303 18.0414 274.341 18.5362C267.299 19.2385 264.932 18.1784 260.657 14.6291C256.135 10.8751 254.283 1 254.283 1C254.283 1 262.046 5.10619 267.435 6.51063C274.252 8.28713 279.762 5.60692 286.787 6.13603C293.013 6.60502 295.542 6.81901 301.367 9.06641C307.084 11.2721 309.964 13.8578 313.803 18.6321C317.857 23.6742 318.579 34.6723 318.65 35.9462ZM318.65 35.9462C318.654 36.0255 318.656 36.0673 318.656 36.0673" stroke="url(#paint0_linear)"/>
<path d="M313.65 39.9462C313.597 38.9062 313.226 31.4136 313.401 27.0875C313.538 23.6959 313.873 21.692 315.273 18.5996C316.248 16.4471 318.535 13.5034 318.535 13.5034C318.535 13.5034 323.899 19.2428 323.929 23.7715C323.946 26.3763 322.954 27.7202 322.21 30.2165C320.69 35.314 317.546 43.0142 317.546 43.0142C317.546 43.0142 322.376 35.2035 325.889 30.4936C329.049 26.2584 330.376 23.3659 334.488 20.0468C340.336 15.326 344.875 13.9136 352.304 12.7597C359.581 11.6294 363.902 12.6632 371.11 14.1762C377.912 15.6042 382.709 15.3895 387.941 19.9639C392.453 23.9091 395.572 33.2768 395.572 33.2768L391.3 35.4205C391.3 35.4205 384.267 38.5086 379.483 39.4613C373.484 40.6563 372.474 39.2181 366.401 38.476C357.146 37.3448 352.793 33.5642 341.424 31.6638C332.43 30.9863 328.947 31.5876 325.52 35.3967C320.475 41.0037 317.223 56.6208 317.223 56.6208C317.223 56.6208 314.54 74.8015 314.941 86.4954C315.156 92.7675 314.536 76.394 316.441 102.495C318.345 128.597 319.439 139.546 320.946 165.691C323.413 208.486 319.287 256.126 319.287 256.126C319.287 256.126 319.66 294.449 320.946 304.591C321.839 311.634 326.707 314.642 325.911 321.705C325.531 325.073 323.611 326.415 323.429 329.811C323.012 337.593 325.911 336.116 325.911 336.116H320.946L330.876 351.495L320.946 345.123C320.946 345.123 324.398 356.567 328.394 362.237C332.195 367.63 337.495 366.633 340.186 373.045C342.035 377.453 339.741 381.623 342.047 385.655C345.458 391.616 350.952 387.543 356.322 390.159C364.253 394.022 374.941 404.57 374.941 404.57C374.941 404.57 362.651 397.788 354.46 394.662C348.957 392.562 344.34 395.272 340.186 390.159C336.244 385.306 340.061 377.491 335.841 373.045C332.72 369.756 325.911 369.442 325.911 369.442C325.911 369.442 328.045 385.18 330.876 394.662C334.123 405.535 334.821 413.805 342.047 420.783C345.684 424.294 350.671 421.779 352.598 427.088C353.87 430.591 352.598 436.995 352.598 436.995C351.771 433.693 348.874 427.088 348.874 427.088C348.874 427.088 342.668 425.286 340.186 424.385C337.703 423.485 325.911 394.662 325.911 394.662C325.911 394.662 318.566 377.772 317.843 365.839C317.631 362.333 317.843 356.832 317.843 356.832C317.843 356.832 315.028 376.743 316.602 389.258C317.559 396.863 318.984 400.897 320.946 408.173C322.681 414.602 325.911 424.385 325.911 424.385C325.911 424.385 320.484 414.882 317.843 408.173L317.83 408.138C315.064 401.112 313.445 397 312.258 389.258C310.881 380.287 312.258 365.839 312.258 365.839L305.431 381.495C305.431 381.495 303.008 392.377 298.224 394.662C293.441 396.947 275.441 394.662 275.441 394.662C275.441 394.662 290.6 397.136 296.941 391.495C301.859 387.12 301.872 384.086 303.569 375.995C305.265 367.905 308.485 362.866 308.534 358.634C308.594 353.349 307.913 345.123 307.913 345.123L300.941 359.495L293.441 369.442C293.441 369.442 307.913 340.995 305.431 336.116C303.076 331.488 308.368 328.678 309.154 323.506C310.046 317.638 309.137 314.174 309.154 308.194C309.293 261.737 317.516 241.074 315.696 194.677C314.449 162.873 312.545 122.495 311.612 105.495C310.679 88.4954 310.319 90.8681 310.679 81.4954C311.055 71.7192 313.043 64.7586 313.656 56.6208C314.131 50.3246 313.321 45.2474 311.612 39.9133C310.529 36.5294 310.532 32.9175 308.232 30.2078C304.697 26.0425 298.443 23.7178 292.719 23.2867C280.091 21.736 274.303 22.0414 269.341 22.5362C262.299 23.2385 259.932 22.1784 255.657 18.6291C251.135 14.8751 249.283 5 249.283 5C249.283 5 257.046 9.10619 262.435 10.5106C269.252 12.2871 274.762 9.60692 281.787 10.136C288.013 10.605 290.542 10.819 296.367 13.0664C302.084 15.2721 304.964 17.8578 308.803 22.6321C312.857 27.6742 313.579 38.6723 313.65 39.9462ZM313.65 39.9462C313.654 40.0255 313.656 40.0673 313.656 40.0673" stroke="url(#paint1_linear)" stroke-opacity="0.4"/>
<path d="M21.5233 359.497C19.1284 358.656 17.0202 359.04 14.5233 359.497C10.658 360.205 8.30732 360.8 6.0233 363.997C4.47962 366.158 4.16537 367.845 4.0233 370.497C3.85103 373.713 4.64524 375.587 6.0233 378.497C8.2102 383.116 11.7887 384.041 15.0233 387.997C16.8771 390.265 18.0233 393.997 19.5233 393.997C21.0233 393.997 25.6509 385.751 26.5233 383.497C27.7921 380.219 28.5233 377.512 28.5233 373.997C28.5233 373.997 28.9078 368.728 27.5233 365.497C26.218 362.451 24.6496 360.596 21.5233 359.497Z" stroke="url(#paint2_linear)"/>
<path d="M118.796 336.5C118.796 336.5 114.157 340.717 111.601 342.393C107.789 344.893 104.601 345.875 102.101 351.5C100.101 356 101.816 360.7 104.601 362.5C107.717 364.514 111.946 362.689 115 364.795C117.096 366.241 118.496 367.749 118.5 370.295C118.505 373.345 116.332 377.428 113.5 376.295C112.084 375.729 112.362 373.982 111 373.295C108.628 372.1 104.5 375.295 104.5 375.295C104.5 375.295 106.654 375.059 108 375.295C109.894 375.627 112.5 377.295 112.5 377.295C112.5 377.295 108.32 379.083 106 380.795C103.556 382.599 101.899 384.59 100.5 386.295C99.1008 388 99 388.795 99 388.795C99 388.795 102.141 385.487 104.5 383.795C107.197 381.86 112 379.795 112 379.795L108 385.295C106.438 387.443 105.101 391.59 105.101 395C105.101 398 106 400.295 106 400.295C106 400.295 107.601 392 108 390.795C108.399 389.59 110.463 386.037 112.5 383.295C113.245 382.291 115.601 381.5 115.601 381.5C115.601 381.5 117.292 385.556 120.5 387.5C122.772 388.876 124.101 390 127 390.295C129.488 390.548 130.612 387.765 131 385.295C131.121 384.523 131 383.295 131 383.295C131 383.295 129.632 386.082 128.601 387C127.667 387.831 126.485 388.384 125.601 387.5C125.101 387 124.082 386.696 123 385.795C120.418 383.645 117.222 382.063 118 378.795C118.389 377.161 119.571 376.694 120.5 375.295C121.76 373.398 122.572 372.374 123.5 370.295C124.255 368.603 124.715 367.625 125 365.795C125.391 363.279 124.784 362.816 123 361C121.831 359.81 118.796 360 115.101 359.5C111.101 358.5 110.391 356.566 110.101 355.5C109.592 353.635 111.016 352.106 112.601 351C114.981 349.339 120.5 349.792 120.5 349.792M139.117 333.737C140.193 335.575 141.101 337.126 141.101 339.259C141.101 342.044 140.048 343.819 137.961 345.732C135.748 347.76 131.388 348.984 131.388 348.984C128.552 350.003 126.161 350.211 123.157 350.161C121.092 350.126 113.128 348.866 112.702 347.682C112.277 346.499 114.963 344.513 116.267 342.393C118.542 338.695 118.273 335.604 121.38 332.54C123.337 330.609 124.623 329.44 127.266 328.643C129.446 327.987 130.896 327.745 133.077 328.337C136.304 329.212 137.45 330.893 139.117 333.737Z" stroke="url(#paint3_linear)"/>
<path d="M115.796 337.5C115.796 337.5 111.157 341.717 108.601 343.393C104.789 345.893 101.601 346.875 99.1008 352.5C97.1008 357 98.8161 361.7 101.601 363.5C104.717 365.514 108.946 363.689 112 365.795C114.096 367.241 115.496 368.749 115.5 371.295C115.505 374.345 113.332 378.428 110.5 377.295C109.084 376.729 109.362 374.982 108 374.295C105.628 373.1 101.5 376.295 101.5 376.295C101.5 376.295 103.654 376.059 105 376.295C106.894 376.627 109.5 378.295 109.5 378.295C109.5 378.295 105.32 380.083 103 381.795C100.556 383.599 98.8992 385.59 97.5 387.295C96.1008 389 96 389.795 96 389.795C96 389.795 99.1412 386.487 101.5 384.795C104.197 382.86 109 380.795 109 380.795L105 386.295C103.438 388.443 102.101 392.59 102.101 396C102.101 399 103 401.295 103 401.295C103 401.295 104.601 393 105 391.795C105.399 390.59 107.463 387.037 109.5 384.295C110.245 383.291 112.601 382.5 112.601 382.5C112.601 382.5 114.292 386.556 117.5 388.5C119.772 389.876 121.101 391 124 391.295C126.488 391.548 127.612 388.765 128 386.295C128.121 385.523 128 384.295 128 384.295C128 384.295 126.632 387.082 125.601 388C124.667 388.831 123.485 389.384 122.601 388.5C122.101 388 121.082 387.696 120 386.795C117.418 384.645 114.222 383.063 115 379.795C115.389 378.161 116.571 377.694 117.5 376.295C118.76 374.398 119.572 373.374 120.5 371.295C121.255 369.603 121.715 368.625 122 366.795C122.391 364.279 121.784 363.816 120 362C118.831 360.81 115.796 361 112.101 360.5C108.101 359.5 107.391 357.566 107.101 356.5C106.592 354.635 108.016 353.106 109.601 352C111.981 350.339 117.5 350.792 117.5 350.792M136.117 334.737C137.193 336.575 138.101 338.126 138.101 340.259C138.101 343.044 137.048 344.819 134.961 346.732C132.748 348.76 128.388 349.984 128.388 349.984C125.552 351.003 123.161 351.211 120.157 351.161C118.092 351.126 110.128 349.866 109.702 348.682C109.277 347.499 111.963 345.513 113.267 343.393C115.542 339.695 115.273 336.604 118.38 333.54C120.337 331.609 121.623 330.44 124.266 329.643C126.446 328.987 127.896 328.745 130.077 329.337C133.304 330.212 134.45 331.893 136.117 334.737Z" stroke="url(#paint4_linear)" stroke-opacity="0.4"/>
<path d="M18.5233 361.497C16.1284 360.656 14.0202 361.04 11.5233 361.497C7.65797 362.205 5.30732 362.8 3.0233 365.997C1.47962 368.158 1.16537 369.845 1.0233 372.497C0.851027 375.713 1.64524 377.587 3.0233 380.497C5.2102 385.116 8.78869 386.041 12.0233 389.997C13.8771 392.265 15.0233 395.997 16.5233 395.997C18.0233 395.997 22.6509 387.751 23.5233 385.497C24.7921 382.219 25.5233 379.512 25.5233 375.997C25.5233 375.997 25.9078 370.728 24.5233 367.497C23.218 364.451 21.6496 362.596 18.5233 361.497Z" stroke="url(#paint5_linear)" stroke-opacity="0.4"/>
<path d="M249.393 196.763C249.82 192.889 249.613 188.688 247.344 185.717C245.607 183.442 243.48 182.584 240.96 181.57C237.059 180 234.599 179.213 230.818 181.115C228.263 182.4 227.081 183.931 225.544 186.547C223.679 189.718 222.51 195.864 222.222 199.643M249.393 196.763C249.393 196.763 243.124 210.29 235.255 218.896C226.417 228.562 228.128 238.669 226.263 251.594C224.103 266.567 223.935 277.792 223.164 292.899C222.041 314.937 227.12 324.752 227.205 346.819C227.216 349.66 226.654 351.305 227.205 354.093C227.69 356.549 228.822 357.672 229.505 360.082C230.154 362.375 230.655 366.072 230.655 366.072L227.972 364.361C227.972 364.361 227.551 368.268 227.588 370.778C227.618 372.788 226.924 372.069 227.972 375.912C229.019 379.755 229.607 381.91 230.655 385.752C230.655 385.752 229.054 382.087 227.972 379.763C226.954 377.577 225.288 374.201 225.288 374.201C225.288 374.201 226.138 381.063 225.288 385.325C224.554 389.008 223.552 390.962 221.838 394.309C220.207 397.496 216.855 402.01 216.855 402.01C216.855 402.01 218.851 397.363 219.922 394.309C221.134 390.853 222.014 388.937 222.605 385.325C223.577 379.38 221.838 369.922 221.838 369.922C221.838 369.922 221.97 372.535 221.838 374.201C221.392 379.869 216.855 387.892 216.855 387.892C216.855 387.892 209.572 401.582 208.039 402.01C206.505 402.438 202.672 403.294 202.672 403.294C202.672 403.294 200.883 406.431 200.372 408C200.372 408 199.587 404.958 200.372 403.294C201.563 400.772 204.643 401.967 206.889 400.299C211.352 396.985 211.783 393.056 213.789 387.892C215.537 383.388 216.855 375.912 216.855 375.912C216.855 375.912 212.65 376.061 210.722 377.624C208.116 379.735 210.473 383.448 208.039 385.752C205.473 388.181 202.621 386.894 199.222 387.892C194.163 389.376 186.572 392.598 186.572 392.598C186.572 392.598 193.173 387.587 198.072 385.752C201.388 384.51 204.782 386.445 206.889 383.613C208.313 381.698 206.896 379.717 208.039 377.624C209.7 374.578 212.974 375.051 215.322 372.49C217.79 369.796 219.922 364.361 219.922 364.361L216.855 366.072L219.922 360.082L212.255 364.361C212.255 364.361 218.646 360.784 218.388 357.087C218.276 355.474 217.09 354.837 216.855 353.237C216.363 349.882 219.37 348.453 219.922 345.108C220.716 340.29 220.947 322.087 220.947 322.087C220.947 322.087 218.398 299.458 219.922 279.13C220.853 266.712 221.046 261.243 222.222 248.845C223.187 238.671 224.235 232.965 224.138 222.747C224.053 213.694 219.27 208.208 222.222 199.643M249.393 196.763C249.393 196.763 240.822 204.777 232.188 208.638C230.181 209.535 226.263 209.739 226.263 209.739C226.263 209.739 227.411 202.937 228.709 198.725C230.576 192.664 235.255 183.855 235.255 183.855C235.255 183.855 224.373 193.401 222.222 199.643" stroke="url(#paint6_linear)"/>
<path d="M245.393 196.763C245.82 192.889 245.613 188.688 243.344 185.717C241.607 183.442 239.48 182.584 236.96 181.57C233.059 180 230.599 179.213 226.818 181.115C224.263 182.4 223.081 183.931 221.544 186.547C219.679 189.718 218.51 195.864 218.222 199.643M245.393 196.763C245.393 196.763 239.124 210.29 231.255 218.896C222.417 228.562 224.128 238.669 222.263 251.594C220.103 266.567 219.935 277.792 219.164 292.899C218.041 314.937 223.12 324.752 223.205 346.819C223.216 349.66 222.654 351.305 223.205 354.093C223.69 356.549 224.822 357.672 225.505 360.082C226.154 362.375 226.655 366.072 226.655 366.072L223.972 364.361C223.972 364.361 223.551 368.268 223.588 370.778C223.618 372.788 222.924 372.069 223.972 375.912C225.019 379.755 225.607 381.91 226.655 385.752C226.655 385.752 225.054 382.087 223.972 379.763C222.954 377.577 221.288 374.201 221.288 374.201C221.288 374.201 222.138 381.063 221.288 385.325C220.554 389.008 219.552 390.962 217.838 394.309C216.207 397.496 212.855 402.01 212.855 402.01C212.855 402.01 214.851 397.363 215.922 394.309C217.134 390.853 218.014 388.937 218.605 385.325C219.577 379.38 217.838 369.922 217.838 369.922C217.838 369.922 217.97 372.535 217.838 374.201C217.392 379.869 212.855 387.892 212.855 387.892C212.855 387.892 205.572 401.582 204.039 402.01C202.505 402.438 198.672 403.294 198.672 403.294C198.672 403.294 196.883 406.431 196.372 408C196.372 408 195.587 404.958 196.372 403.294C197.563 400.772 200.643 401.967 202.889 400.299C207.352 396.985 207.783 393.056 209.789 387.892C211.537 383.388 212.855 375.912 212.855 375.912C212.855 375.912 208.65 376.061 206.722 377.624C204.116 379.735 206.473 383.448 204.039 385.752C201.473 388.181 198.621 386.894 195.222 387.892C190.163 389.376 182.572 392.598 182.572 392.598C182.572 392.598 189.173 387.587 194.072 385.752C197.388 384.51 200.782 386.445 202.889 383.613C204.313 381.698 202.896 379.717 204.039 377.624C205.7 374.578 208.974 375.051 211.322 372.49C213.79 369.796 215.922 364.361 215.922 364.361L212.855 366.072L215.922 360.082L208.255 364.361C208.255 364.361 214.646 360.784 214.388 357.087C214.276 355.474 213.09 354.837 212.855 353.237C212.363 349.882 215.37 348.453 215.922 345.108C216.716 340.29 216.947 322.087 216.947 322.087C216.947 322.087 214.398 299.458 215.922 279.13C216.853 266.712 217.046 261.243 218.222 248.845C219.187 238.671 220.235 232.965 220.138 222.747C220.053 213.694 215.27 208.208 218.222 199.643M245.393 196.763C245.393 196.763 236.822 204.777 228.188 208.638C226.181 209.535 222.263 209.739 222.263 209.739C222.263 209.739 223.411 202.937 224.709 198.725C226.576 192.664 231.255 183.855 231.255 183.855C231.255 183.855 220.373 193.401 218.222 199.643" stroke="url(#paint7_linear)" stroke-opacity="0.4"/>
<defs>
<linearGradient id="paint0_linear" x1="312.572" y1="160" x2="503.336" y2="315.451" gradientUnits="userSpaceOnUse">
<stop stop-color="#58FFB3"/>
<stop offset="0.666057" stop-color="#5E19E4"/>
<stop offset="1" stop-color="#902EAA" stop-opacity="0.37"/>
</linearGradient>
<linearGradient id="paint1_linear" x1="307.572" y1="164" x2="498.336" y2="319.451" gradientUnits="userSpaceOnUse">
<stop stop-color="#58FFB3"/>
<stop offset="0.666057" stop-color="#5E19E4"/>
<stop offset="1" stop-color="#902EAA" stop-opacity="0.37"/>
</linearGradient>
<linearGradient id="paint2_linear" x1="21.0233" y1="357.497" x2="8.02328" y2="397.997" gradientUnits="userSpaceOnUse">
<stop stop-color="#58FFB3"/>
<stop offset="0.474005" stop-color="#5E19E4"/>
<stop offset="1" stop-color="#902EAA" stop-opacity="0.37"/>
</linearGradient>
<linearGradient id="paint3_linear" x1="142.572" y1="338.285" x2="103.133" y2="412.486" gradientUnits="userSpaceOnUse">
<stop stop-color="#58FFB3"/>
<stop offset="0.546005" stop-color="#5E19E4"/>
<stop offset="1" stop-color="#902EAA" stop-opacity="0.37"/>
</linearGradient>
<linearGradient id="paint4_linear" x1="139.572" y1="339.285" x2="100.133" y2="413.486" gradientUnits="userSpaceOnUse">
<stop stop-color="#58FFB3"/>
<stop offset="0.546005" stop-color="#5E19E4"/>
<stop offset="1" stop-color="#902EAA" stop-opacity="0.37"/>
</linearGradient>
<linearGradient id="paint5_linear" x1="18.0233" y1="359.497" x2="5.02328" y2="399.997" gradientUnits="userSpaceOnUse">
<stop stop-color="#58FFB3"/>
<stop offset="0.474005" stop-color="#5E19E4"/>
<stop offset="1" stop-color="#902EAA" stop-opacity="0.37"/>
</linearGradient>
<linearGradient id="paint6_linear" x1="226.572" y1="192.5" x2="95.6565" y2="349.207" gradientUnits="userSpaceOnUse">
<stop stop-color="#58FFB3"/>
<stop offset="0.666057" stop-color="#5E19E4"/>
<stop offset="1" stop-color="#902EAA" stop-opacity="0.37"/>
</linearGradient>
<linearGradient id="paint7_linear" x1="224.196" y1="176.428" x2="84.8203" y2="343.768" gradientUnits="userSpaceOnUse">
<stop stop-color="#58FFB3"/>
<stop offset="0.474005" stop-color="#5E19E4"/>
<stop offset="1" stop-color="#902EAA" stop-opacity="0.37"/>
</linearGradient>
</defs>
</svg>
