<svg width="44" height="42" viewBox="0 0 44 42" fill="none" xmlns="http://www.w3.org/2000/svg">
<path d="M21.6918 12.7266V14.8993" stroke="#5CCFD7" stroke-linecap="round"/>
<path d="M21.6918 27.936V30.1088" stroke="#5CCFD7" stroke-linecap="round"/>
<path d="M25.564 17.0721C25.564 17.0721 25.0108 14.8994 21.6919 14.8994C18.373 14.8994 17.8198 17.0249 17.8198 18.1585C17.8198 22.6564 25.564 20.2931 25.564 24.6767C25.564 25.8103 25.0108 27.9358 21.6919 27.9358C18.373 27.9358 17.8198 25.763 17.8198 25.763" stroke="#5CCFD7" stroke-width="2" stroke-linecap="round"/>
<path d="M42.4636 20.8962C42.4636 31.8465 33.4186 40.7543 22.2225 40.7543C11.0265 40.7543 1.98145 31.8465 1.98145 20.8962C1.98145 9.94595 11.0265 1.03809 22.2225 1.03809C33.4186 1.03809 42.4636 9.94595 42.4636 20.8962Z" stroke="#00AEEA" stroke-width="2"/>
</svg>
