<svg width="53" height="53" viewBox="0 0 53 53" fill="none" xmlns="http://www.w3.org/2000/svg">
<path d="M24.292 17.6668L20.2976 15.6696C20.0199 15.5308 19.7137 15.4585 19.4032 15.4585H16.2871C15.7567 15.4585 15.2479 15.6692 14.8729 16.0443L11.6278 19.2894C11.2527 19.6644 11.042 20.1732 11.042 20.7036L11.042 34.2631C11.042 34.9318 11.3762 35.5563 11.9326 35.9272L23.0495 43.3385C23.7864 43.8298 24.7588 43.7778 25.4392 43.2108L37.542 33.1252" stroke="#23A1FD" stroke-width="2"/>
<path fill-rule="evenodd" clip-rule="evenodd" d="M30.6448 26.8102C30.0414 26.0022 28.9308 25.7699 28.0541 26.2681L21.1996 30.1638C20.4169 30.6086 19.4336 30.4758 18.7971 29.8393L17.0066 28.0488C16.175 27.2172 16.237 25.851 17.1405 25.0981L28.1517 15.9221C28.5112 15.6225 28.9642 15.4585 29.4321 15.4585H32.6525C32.963 15.4585 33.2693 15.5308 33.547 15.6696L40.8524 19.3224C41.53 19.6612 41.958 20.3537 41.958 21.1112L41.958 35.9381C41.958 37.8622 39.5069 38.6765 38.3556 37.1349L30.6448 26.8102Z" stroke="#23A1FD" stroke-width="2"/>
<path d="M2.20833 37.5415V17.6665" stroke="#23A1FD" stroke-linecap="round"/>
<path d="M2.20833 37.5415V17.6665" stroke="#5CCFD7" stroke-width="2" stroke-linecap="round"/>
<path d="M50.7913 37.5415V17.6665" stroke="#5CCFD7" stroke-width="2" stroke-linecap="round"/>
</svg>
