<svg width="667" height="603" viewBox="0 0 667 603" fill="none" xmlns="http://www.w3.org/2000/svg">
<path d="M157.408 399.865L157.408 399.865C155.044 398.412 152.796 398.176 150.886 398.66C148.958 399.149 147.303 400.39 146.191 402.01C145.078 403.631 144.539 405.585 144.781 407.461C145.02 409.314 146.028 411.166 148.152 412.616C150.548 414.252 152.816 414.607 154.742 414.213C156.687 413.814 158.373 412.634 159.541 411.044L159.882 410.581L160.114 410.171C161.057 408.503 161.433 406.571 161.062 404.755C160.696 402.96 159.585 401.202 157.408 399.865ZM221.762 475.81C205.446 454.095 187.017 430.657 163.809 413.869C163.852 413.916 163.895 413.962 163.938 414.009L164.072 414.154C165.043 415.21 165.975 416.22 166.88 417.138L166.88 417.138C172.498 422.836 177.846 428.702 182.991 434.73L182.231 435.379L182.991 434.73C186.647 439.012 190.421 443.21 194.198 447.409C201.36 455.373 208.529 463.343 214.898 471.917L214.175 472.454L214.898 471.917C217.668 475.645 220.457 479.089 223.225 482.507C225.259 485.018 227.281 487.514 229.276 490.099C233.927 496.128 238.291 502.474 241.858 510.116C245.487 515.599 249.407 522.209 252.862 529.035C245.486 510.22 234.236 492.412 221.762 475.81Z" stroke="url(#paint0_linear)" stroke-width="2"/>
<path opacity="0.4" d="M160.349 395.948L160.349 395.948C157.876 394.429 155.49 394.165 153.442 394.684C151.384 395.206 149.631 396.527 148.458 398.236C147.284 399.946 146.705 402.021 146.964 404.034C147.222 406.035 148.313 408.011 150.549 409.538C153.045 411.243 155.45 411.636 157.521 411.211C159.602 410.785 161.391 409.526 162.623 407.849L162.973 407.373L163.385 407.797C164.367 408.811 165.323 409.85 166.25 410.858L166.383 411.002C167.353 412.057 168.291 413.073 169.203 413.998L168.847 414.349L169.203 413.998C174.812 419.687 180.152 425.544 185.29 431.563C188.963 435.868 192.747 440.075 196.528 444.278C203.679 452.23 210.819 460.168 217.175 468.724L216.774 469.022L217.175 468.724C219.944 472.452 222.752 475.918 225.53 479.348C227.564 481.86 229.582 484.352 231.558 486.914C236.205 492.937 240.551 499.259 244.099 506.87C249.383 514.85 255.279 525.214 259.45 535.137C252.43 512.627 239.462 491.48 224.841 472.019C207.741 449.261 188.273 424.543 163.381 407.585L163.001 407.326L163.228 406.926C164.222 405.167 164.628 403.113 164.231 401.164C163.835 399.226 162.637 397.353 160.349 395.948Z" stroke="url(#paint1_linear)"/>
<path opacity="0.5" d="M407.016 460.16L407.016 460.16C408.511 459.241 409.941 459.088 411.161 459.397C412.391 459.708 413.443 460.499 414.149 461.527C414.855 462.556 415.199 463.799 415.045 464.998C414.892 466.185 414.245 467.366 412.899 468.286C411.386 469.319 409.943 469.548 408.711 469.296C407.47 469.042 406.398 468.289 405.656 467.28L405.441 466.987L405.293 466.726C404.694 465.668 404.453 464.438 404.69 463.277C404.925 462.127 405.636 461.006 407.016 460.16ZM391.277 482.003L391.657 482.328L391.277 482.003C389.001 484.669 386.654 487.279 384.307 489.889C379.859 494.834 375.412 499.778 371.458 505.101L371.86 505.399L371.458 505.101C369.738 507.417 368.001 509.562 366.278 511.689C365.015 513.249 363.759 514.799 362.524 516.399C359.636 520.144 356.929 524.081 354.717 528.821C352.063 532.831 349.158 537.811 346.771 542.835C351.315 530.256 358.727 518.385 366.999 507.374C377.36 493.586 389.103 478.663 403.993 468.179C403.695 468.499 403.401 468.819 403.112 469.133L403.028 469.223C402.425 469.879 401.845 470.508 401.281 471.08L401.281 471.08C397.793 474.617 394.472 478.26 391.277 482.003Z" stroke="url(#paint2_linear)"/>
<path d="M408.09 463.264L408.09 463.264C406.821 464.043 406.198 465.049 405.993 466.055C405.783 467.083 405.993 468.191 406.54 469.158L406.673 469.393L406.871 469.663C407.549 470.584 408.519 471.258 409.624 471.484C410.71 471.707 412.017 471.516 413.429 470.551L408.09 463.264ZM408.09 463.264C409.477 462.412 410.77 462.286 411.851 462.56M408.09 463.264L411.851 462.56M411.851 462.56C412.951 462.839 413.904 463.55 414.549 464.488M411.851 462.56L414.549 464.488M414.549 464.488C415.194 465.428 415.498 466.55 415.361 467.612M414.549 464.488L415.361 467.612M415.361 467.612C415.227 468.652 414.663 469.708 413.429 470.551L415.361 467.612ZM362.941 518.772C360.047 522.522 357.322 526.482 355.092 531.254C354.189 532.619 353.257 534.097 352.326 535.65C356.643 526.814 362.193 518.363 368.211 510.353C377.437 498.075 387.724 484.948 400.326 474.853C397.341 477.944 394.477 481.113 391.709 484.357L391.709 484.357C389.452 487.002 387.113 489.602 384.77 492.207C380.312 497.165 375.836 502.141 371.869 507.481L371.869 507.481C370.148 509.798 368.429 511.921 366.716 514.035C365.453 515.594 364.194 517.148 362.941 518.772Z" stroke="url(#paint3_linear)" stroke-width="2"/>
<defs>
<linearGradient id="paint0_linear" x1="195.059" y1="393.905" x2="208.364" y2="554.958" gradientUnits="userSpaceOnUse">
<stop/>
<stop offset="0.0001" stop-color="#57FFB2"/>
<stop offset="0.592552" stop-color="#5E19E4"/>
<stop offset="1" stop-color="#972BB6"/>
</linearGradient>
<linearGradient id="paint1_linear" x1="197.738" y1="390.414" x2="211.043" y2="551.468" gradientUnits="userSpaceOnUse">
<stop/>
<stop offset="0.0001" stop-color="#57FFB2"/>
<stop offset="0.592552" stop-color="#5E19E4"/>
<stop offset="1" stop-color="#972BB6"/>
</linearGradient>
<linearGradient id="paint2_linear" x1="383.687" y1="456.56" x2="375.421" y2="556.622" gradientUnits="userSpaceOnUse">
<stop/>
<stop offset="0.0001" stop-color="#57FFB2"/>
<stop offset="0.592552" stop-color="#5E19E4"/>
<stop offset="1" stop-color="#972BB6"/>
</linearGradient>
<linearGradient id="paint3_linear" x1="384.499" y1="459.239" x2="376.233" y2="559.301" gradientUnits="userSpaceOnUse">
<stop/>
<stop offset="0.0001" stop-color="#57FFB2"/>
<stop offset="0.592552" stop-color="#5E19E4"/>
<stop offset="1" stop-color="#972BB6"/>
</linearGradient>
</defs>
</svg>
