<svg width="667" height="603" viewBox="0 0 667 603" fill="none" xmlns="http://www.w3.org/2000/svg">
<mask id="path-1-inside-1" fill="white">
<path fill-rule="evenodd" clip-rule="evenodd" d="M255.729 206.692C252.188 204.389 246.926 205.965 248.44 211.136C250.063 216.673 258.332 217.705 263.019 218.147C262.554 218.067 261.613 213.054 261.182 212.262C259.913 209.928 257.905 208.109 255.729 206.692ZM249.321 230.13C246.925 231.555 246.473 234.511 248.035 236.73C249.895 239.372 253.812 239.741 256.755 239.848C258.086 239.897 265.195 240.156 263.66 238.808C263.783 238.872 264.037 239.021 264.306 239.214C264.394 239.797 264.491 240.378 264.594 240.958C264.55 240.977 264.512 240.999 264.464 241.018C264.515 241.002 264.551 240.984 264.596 240.967C265.636 246.761 267.424 252.371 269.999 257.724C268.872 257.121 267.69 256.626 266.467 256.324C262.847 255.431 254.784 257.383 258.323 262.755C261.716 267.905 268.439 263.591 272.992 263.419C276.623 269.98 280.728 276.342 285.085 282.536C284.767 282.596 284.474 282.765 284.283 283.059C282.391 281.804 280.467 280.1 278.652 279.487C276.033 278.604 270.566 277.615 268.256 279.782C265.414 282.446 267.809 285.16 270.693 286.071C274.873 287.393 280.716 285.957 284.996 285.026C285.457 285.164 285.987 285.087 286.338 284.746C286.433 284.727 286.527 284.708 286.619 284.69C291.043 290.864 295.683 296.877 300.304 302.767C300.249 302.758 300.193 302.748 300.136 302.738C298.874 301.682 297.494 300.776 295.951 300.205C292.38 298.88 288.057 298.37 284.764 300.681C281.484 302.982 279.89 307.489 282.616 310.822C288.073 317.492 298.722 304.981 301.891 304.777C306.594 310.707 311.643 316.324 316.793 321.851C316.167 321.577 315.518 321.354 314.837 321.208C309.294 320.017 295.332 325.353 301.422 332.919C306.729 339.512 314.994 328.981 320.289 325.578C325.147 330.737 330.039 335.868 334.757 341.156C331.975 340.058 329.213 339.622 326.026 340.192C322.729 340.784 317.308 342.588 318.819 347.124C320.356 351.736 326.761 350.467 330.137 349.454C331.979 348.902 335.793 346.757 339.005 346.041C346.479 354.954 352.735 364.54 357.042 375.474C359.731 382.302 361.539 389.471 362.551 396.742C363.198 401.382 364.624 409.216 363.477 415.023C367.052 403.548 364.712 388.991 361.643 378.002C358.822 367.898 353.901 358.742 347.87 350.313C350.218 345.292 365.717 339.465 357.544 333.591C353.203 330.482 347.952 334.185 346.411 338.577C345.352 341.594 345.959 345.612 346.734 348.752C344.828 346.174 342.828 343.662 340.749 341.216C337.877 337.835 334.917 334.533 331.921 331.263C338.015 326.746 344.934 312.607 337.854 309.335C327.397 304.514 330.282 325.24 330.6 329.099C330.814 329.137 330.989 329.091 331.129 328.966C331.028 329.304 330.913 329.665 330.784 330.027C325.047 323.799 319.203 317.667 313.6 311.321C314.213 310.97 315.295 309.482 316.099 308.717C317.912 306.992 319.667 305.173 321.04 303.068C323.209 299.74 325.561 294.303 321.148 291.682C316.349 288.826 313.199 294.918 312.719 298.716C312.388 301.343 312.812 303.924 312.884 306.545C312.907 307.362 312.035 310.933 313.312 309.502C313.193 310.071 313.137 310.486 313.128 310.784C312.123 309.64 311.128 308.486 310.14 307.325C310.207 307.2 310.261 307.063 310.289 306.899C310.481 305.773 309.391 305.203 308.553 305.442C307.253 303.881 305.97 302.306 304.716 300.705C302.057 297.313 299.365 293.83 296.702 290.282C297.427 289.793 297.257 288.979 297.943 288.45C298.628 287.922 299.878 287.732 300.666 287.26C302.649 286.072 304.396 284.206 305.721 282.325C307.91 279.216 311.051 272.524 305.975 270.327C300.742 268.06 297.207 274.442 296.368 278.592C296.206 279.396 295.959 286.783 296.114 289.494C291.189 282.903 286.383 276.101 282.109 269.253C283.629 269.416 288.295 266.809 289.264 266.062C291.629 264.24 295.537 260.061 292.099 257.206C289.04 254.673 284.599 257.306 282.831 260.162C282.54 260.633 281.179 265.168 280.872 267.238C279.111 264.34 277.446 261.437 275.921 258.542C274.903 256.616 273.97 254.653 273.117 252.66C273.392 252.544 273.664 252.317 273.931 252.027C279.559 251.735 287.6 243.946 281.468 240.193C278.549 238.408 274.858 240.958 273.065 243.189C272.698 243.645 271.907 246.063 271.27 247.968C268.909 241.419 267.317 234.592 266.308 227.665C266.802 227.602 267.252 227.283 267.379 226.658C270.237 225.443 272.501 224.419 274.715 221.7C276.09 220.011 278.669 216.087 275.373 214.676C271.084 212.839 267.501 219.3 266.747 222.6C266.659 222.983 266.529 224.111 266.422 225.147C266.271 225.108 266.114 225.092 265.958 225.101C265.424 220.823 265.102 216.515 264.947 212.219C267.463 211.722 269.37 199.035 267.967 197.033C264.833 192.551 261.601 198.119 261.432 201.241C261.232 204.923 262.5 208.442 264.128 211.623C264.303 211.96 264.244 211.938 264.35 211.509C264.355 211.728 264.409 211.895 264.502 212.023C264.175 213.935 263.747 215.881 263.643 217.595C263.347 222.503 263.342 227.473 263.604 232.383C263.668 233.577 263.762 234.765 263.885 235.946C262.13 234.058 259.674 232.275 258.7 231.694C256.171 230.186 252.209 228.413 249.321 230.13ZM363.788 415.076C363.466 416.762 362.977 418.283 362.254 419.5C362.855 418.088 363.362 416.608 363.788 415.076Z"/>
</mask>
<path fill-rule="evenodd" clip-rule="evenodd" d="M255.729 206.692C252.188 204.389 246.926 205.965 248.44 211.136C250.063 216.673 258.332 217.705 263.019 218.147C262.554 218.067 261.613 213.054 261.182 212.262C259.913 209.928 257.905 208.109 255.729 206.692ZM249.321 230.13C246.925 231.555 246.473 234.511 248.035 236.73C249.895 239.372 253.812 239.741 256.755 239.848C258.086 239.897 265.195 240.156 263.66 238.808C263.783 238.872 264.037 239.021 264.306 239.214C264.394 239.797 264.491 240.378 264.594 240.958C264.55 240.977 264.512 240.999 264.464 241.018C264.515 241.002 264.551 240.984 264.596 240.967C265.636 246.761 267.424 252.371 269.999 257.724C268.872 257.121 267.69 256.626 266.467 256.324C262.847 255.431 254.784 257.383 258.323 262.755C261.716 267.905 268.439 263.591 272.992 263.419C276.623 269.98 280.728 276.342 285.085 282.536C284.767 282.596 284.474 282.765 284.283 283.059C282.391 281.804 280.467 280.1 278.652 279.487C276.033 278.604 270.566 277.615 268.256 279.782C265.414 282.446 267.809 285.16 270.693 286.071C274.873 287.393 280.716 285.957 284.996 285.026C285.457 285.164 285.987 285.087 286.338 284.746C286.433 284.727 286.527 284.708 286.619 284.69C291.043 290.864 295.683 296.877 300.304 302.767C300.249 302.758 300.193 302.748 300.136 302.738C298.874 301.682 297.494 300.776 295.951 300.205C292.38 298.88 288.057 298.37 284.764 300.681C281.484 302.982 279.89 307.489 282.616 310.822C288.073 317.492 298.722 304.981 301.891 304.777C306.594 310.707 311.643 316.324 316.793 321.851C316.167 321.577 315.518 321.354 314.837 321.208C309.294 320.017 295.332 325.353 301.422 332.919C306.729 339.512 314.994 328.981 320.289 325.578C325.147 330.737 330.039 335.868 334.757 341.156C331.975 340.058 329.213 339.622 326.026 340.192C322.729 340.784 317.308 342.588 318.819 347.124C320.356 351.736 326.761 350.467 330.137 349.454C331.979 348.902 335.793 346.757 339.005 346.041C346.479 354.954 352.735 364.54 357.042 375.474C359.731 382.302 361.539 389.471 362.551 396.742C363.198 401.382 364.624 409.216 363.477 415.023C367.052 403.548 364.712 388.991 361.643 378.002C358.822 367.898 353.901 358.742 347.87 350.313C350.218 345.292 365.717 339.465 357.544 333.591C353.203 330.482 347.952 334.185 346.411 338.577C345.352 341.594 345.959 345.612 346.734 348.752C344.828 346.174 342.828 343.662 340.749 341.216C337.877 337.835 334.917 334.533 331.921 331.263C338.015 326.746 344.934 312.607 337.854 309.335C327.397 304.514 330.282 325.24 330.6 329.099C330.814 329.137 330.989 329.091 331.129 328.966C331.028 329.304 330.913 329.665 330.784 330.027C325.047 323.799 319.203 317.667 313.6 311.321C314.213 310.97 315.295 309.482 316.099 308.717C317.912 306.992 319.667 305.173 321.04 303.068C323.209 299.74 325.561 294.303 321.148 291.682C316.349 288.826 313.199 294.918 312.719 298.716C312.388 301.343 312.812 303.924 312.884 306.545C312.907 307.362 312.035 310.933 313.312 309.502C313.193 310.071 313.137 310.486 313.128 310.784C312.123 309.64 311.128 308.486 310.14 307.325C310.207 307.2 310.261 307.063 310.289 306.899C310.481 305.773 309.391 305.203 308.553 305.442C307.253 303.881 305.97 302.306 304.716 300.705C302.057 297.313 299.365 293.83 296.702 290.282C297.427 289.793 297.257 288.979 297.943 288.45C298.628 287.922 299.878 287.732 300.666 287.26C302.649 286.072 304.396 284.206 305.721 282.325C307.91 279.216 311.051 272.524 305.975 270.327C300.742 268.06 297.207 274.442 296.368 278.592C296.206 279.396 295.959 286.783 296.114 289.494C291.189 282.903 286.383 276.101 282.109 269.253C283.629 269.416 288.295 266.809 289.264 266.062C291.629 264.24 295.537 260.061 292.099 257.206C289.04 254.673 284.599 257.306 282.831 260.162C282.54 260.633 281.179 265.168 280.872 267.238C279.111 264.34 277.446 261.437 275.921 258.542C274.903 256.616 273.97 254.653 273.117 252.66C273.392 252.544 273.664 252.317 273.931 252.027C279.559 251.735 287.6 243.946 281.468 240.193C278.549 238.408 274.858 240.958 273.065 243.189C272.698 243.645 271.907 246.063 271.27 247.968C268.909 241.419 267.317 234.592 266.308 227.665C266.802 227.602 267.252 227.283 267.379 226.658C270.237 225.443 272.501 224.419 274.715 221.7C276.09 220.011 278.669 216.087 275.373 214.676C271.084 212.839 267.501 219.3 266.747 222.6C266.659 222.983 266.529 224.111 266.422 225.147C266.271 225.108 266.114 225.092 265.958 225.101C265.424 220.823 265.102 216.515 264.947 212.219C267.463 211.722 269.37 199.035 267.967 197.033C264.833 192.551 261.601 198.119 261.432 201.241C261.232 204.923 262.5 208.442 264.128 211.623C264.303 211.96 264.244 211.938 264.35 211.509C264.355 211.728 264.409 211.895 264.502 212.023C264.175 213.935 263.747 215.881 263.643 217.595C263.347 222.503 263.342 227.473 263.604 232.383C263.668 233.577 263.762 234.765 263.885 235.946C262.13 234.058 259.674 232.275 258.7 231.694C256.171 230.186 252.209 228.413 249.321 230.13ZM363.788 415.076C363.466 416.762 362.977 418.283 362.254 419.5C362.855 418.088 363.362 416.608 363.788 415.076Z" stroke="url(#paint0_linear)" stroke-width="2" mask="url(#path-1-inside-1)"/>
<g opacity="0.4">
<mask id="path-2-inside-2" fill="white">
<path fill-rule="evenodd" clip-rule="evenodd" d="M251.11 205.922C247.57 203.619 242.307 205.195 243.822 210.366C245.444 215.903 253.714 216.935 258.401 217.377C257.936 217.298 256.994 212.284 256.564 211.493C255.295 209.158 253.287 207.34 251.11 205.922ZM244.702 229.361C242.307 230.785 241.855 233.741 243.417 235.96C245.277 238.602 249.193 238.971 252.136 239.079C253.468 239.127 260.576 239.386 259.042 238.039C259.164 238.102 259.419 238.251 259.687 238.445C259.776 239.027 259.872 239.608 259.976 240.188C259.932 240.207 259.893 240.229 259.846 240.248C259.896 240.233 259.933 240.214 259.978 240.198C261.017 245.991 262.806 251.601 265.38 256.954C264.253 256.351 263.071 255.856 261.849 255.555C258.229 254.661 250.166 256.613 253.704 261.985C257.097 267.136 263.82 262.821 268.374 262.649C272.005 269.211 276.11 275.572 280.467 281.766C280.149 281.826 279.856 281.995 279.665 282.289C277.773 281.034 275.848 279.33 274.033 278.717C271.414 277.834 265.948 276.846 263.637 279.012C260.795 281.676 263.191 284.39 266.074 285.301C270.255 286.623 276.098 285.188 280.378 284.256C280.839 284.395 281.369 284.317 281.72 283.976C281.814 283.957 281.909 283.939 282 283.92C286.424 290.094 291.064 296.107 295.686 301.997C295.63 301.988 295.575 301.978 295.517 301.968C294.256 300.912 292.876 300.006 291.332 299.435C287.762 298.11 283.438 297.601 280.145 299.911C276.865 302.212 275.272 306.72 277.998 310.052C283.454 316.722 294.103 304.211 297.273 304.007C301.976 309.937 307.025 315.554 312.174 321.081C311.548 320.808 310.899 320.584 310.219 320.439C304.675 319.247 290.714 324.583 296.804 332.149C302.111 338.742 310.375 328.211 315.671 324.809C320.529 329.967 325.42 335.098 330.139 340.386C327.357 339.288 324.595 338.852 321.408 339.422C318.11 340.014 312.69 341.819 314.201 346.354C315.738 350.967 322.142 349.698 325.519 348.685C327.361 348.132 331.174 345.987 334.386 345.271C341.861 354.184 348.117 363.77 352.424 374.705C355.112 381.532 356.92 388.702 357.933 395.972C358.579 400.612 360.006 408.446 358.859 414.253C362.434 402.778 360.094 388.221 357.025 377.233C354.203 367.128 349.283 357.972 343.252 349.543C345.599 344.522 361.099 338.696 352.926 332.821C348.585 329.713 343.334 333.416 341.793 337.807C340.734 340.824 341.341 344.842 342.116 347.982C340.21 345.405 338.209 342.892 336.131 340.446C333.258 337.065 330.299 333.763 327.303 330.494C333.396 325.977 340.316 311.837 333.235 308.565C322.779 303.744 325.664 324.471 325.982 328.329C326.195 328.367 326.371 328.321 326.511 328.196C326.409 328.535 326.295 328.895 326.166 329.258C320.429 323.029 314.585 316.897 308.982 310.551C309.595 310.2 310.677 308.712 311.481 307.947C313.294 306.222 315.048 304.404 316.421 302.298C318.59 298.971 320.942 293.534 316.53 290.912C311.731 288.057 308.58 294.149 308.101 297.946C307.77 300.573 308.194 303.154 308.266 305.775C308.289 306.592 307.416 310.163 308.694 308.732C308.575 309.301 308.519 309.716 308.51 310.015C307.505 308.87 306.509 307.716 305.522 306.555C305.588 306.431 305.643 306.293 305.671 306.13C305.863 305.003 304.773 304.433 303.934 304.672C302.635 303.112 301.351 301.536 300.097 299.935C297.439 296.543 294.747 293.06 292.084 289.512C292.809 289.023 292.638 288.209 293.324 287.68C294.009 287.153 295.26 286.963 296.048 286.49C298.03 285.302 299.777 283.437 301.103 281.555C303.292 278.446 306.433 271.754 301.356 269.557C296.124 267.29 292.588 273.672 291.75 277.822C291.587 278.626 291.341 286.013 291.496 288.724C286.571 282.134 281.765 275.332 277.491 268.483C279.01 268.646 283.677 266.039 284.646 265.292C287.01 263.471 290.919 259.292 287.48 256.437C284.422 253.904 279.98 256.536 278.212 259.392C277.922 259.863 276.561 264.398 276.254 266.468C274.492 263.57 272.828 260.667 271.302 257.772C270.284 255.847 269.352 253.884 268.498 251.89C268.773 251.774 269.046 251.547 269.312 251.257C274.94 250.965 282.982 243.177 276.85 239.424C273.93 237.639 270.24 240.188 268.447 242.419C268.079 242.875 267.288 245.293 266.652 247.198C264.29 240.649 262.699 233.822 261.689 226.895C262.184 226.832 262.633 226.513 262.761 225.888C265.618 224.673 267.883 223.649 270.096 220.93C271.471 219.241 274.051 215.318 270.755 213.906C266.466 212.07 262.882 218.53 262.128 221.83C262.041 222.213 261.91 223.342 261.804 224.377C261.652 224.338 261.496 224.323 261.34 224.332C260.805 220.053 260.483 215.745 260.328 211.449C262.845 210.952 264.752 198.265 263.349 196.263C260.214 191.781 256.983 197.349 256.813 200.471C256.614 204.153 257.882 207.672 259.509 210.853C259.685 211.191 259.626 211.168 259.732 210.739C259.737 210.958 259.79 211.125 259.884 211.253C259.557 213.165 259.128 215.112 259.025 216.825C258.728 221.733 258.723 226.704 258.986 231.613C259.05 232.807 259.144 233.995 259.267 235.176C257.512 233.288 255.056 231.505 254.082 230.924C251.552 229.416 247.59 227.644 244.702 229.361ZM359.17 414.306C358.847 415.992 358.359 417.513 357.636 418.73C358.236 417.319 358.743 415.838 359.17 414.306Z"/>
</mask>
<path fill-rule="evenodd" clip-rule="evenodd" d="M251.11 205.922C247.57 203.619 242.307 205.195 243.822 210.366C245.444 215.903 253.714 216.935 258.401 217.377C257.936 217.298 256.994 212.284 256.564 211.493C255.295 209.158 253.287 207.34 251.11 205.922ZM244.702 229.361C242.307 230.785 241.855 233.741 243.417 235.96C245.277 238.602 249.193 238.971 252.136 239.079C253.468 239.127 260.576 239.386 259.042 238.039C259.164 238.102 259.419 238.251 259.687 238.445C259.776 239.027 259.872 239.608 259.976 240.188C259.932 240.207 259.893 240.229 259.846 240.248C259.896 240.233 259.933 240.214 259.978 240.198C261.017 245.991 262.806 251.601 265.38 256.954C264.253 256.351 263.071 255.856 261.849 255.555C258.229 254.661 250.166 256.613 253.704 261.985C257.097 267.136 263.82 262.821 268.374 262.649C272.005 269.211 276.11 275.572 280.467 281.766C280.149 281.826 279.856 281.995 279.665 282.289C277.773 281.034 275.848 279.33 274.033 278.717C271.414 277.834 265.948 276.846 263.637 279.012C260.795 281.676 263.191 284.39 266.074 285.301C270.255 286.623 276.098 285.188 280.378 284.256C280.839 284.395 281.369 284.317 281.72 283.976C281.814 283.957 281.909 283.939 282 283.92C286.424 290.094 291.064 296.107 295.686 301.997C295.63 301.988 295.575 301.978 295.517 301.968C294.256 300.912 292.876 300.006 291.332 299.435C287.762 298.11 283.438 297.601 280.145 299.911C276.865 302.212 275.272 306.72 277.998 310.052C283.454 316.722 294.103 304.211 297.273 304.007C301.976 309.937 307.025 315.554 312.174 321.081C311.548 320.808 310.899 320.584 310.219 320.439C304.675 319.247 290.714 324.583 296.804 332.149C302.111 338.742 310.375 328.211 315.671 324.809C320.529 329.967 325.42 335.098 330.139 340.386C327.357 339.288 324.595 338.852 321.408 339.422C318.11 340.014 312.69 341.819 314.201 346.354C315.738 350.967 322.142 349.698 325.519 348.685C327.361 348.132 331.174 345.987 334.386 345.271C341.861 354.184 348.117 363.77 352.424 374.705C355.112 381.532 356.92 388.702 357.933 395.972C358.579 400.612 360.006 408.446 358.859 414.253C362.434 402.778 360.094 388.221 357.025 377.233C354.203 367.128 349.283 357.972 343.252 349.543C345.599 344.522 361.099 338.696 352.926 332.821C348.585 329.713 343.334 333.416 341.793 337.807C340.734 340.824 341.341 344.842 342.116 347.982C340.21 345.405 338.209 342.892 336.131 340.446C333.258 337.065 330.299 333.763 327.303 330.494C333.396 325.977 340.316 311.837 333.235 308.565C322.779 303.744 325.664 324.471 325.982 328.329C326.195 328.367 326.371 328.321 326.511 328.196C326.409 328.535 326.295 328.895 326.166 329.258C320.429 323.029 314.585 316.897 308.982 310.551C309.595 310.2 310.677 308.712 311.481 307.947C313.294 306.222 315.048 304.404 316.421 302.298C318.59 298.971 320.942 293.534 316.53 290.912C311.731 288.057 308.58 294.149 308.101 297.946C307.77 300.573 308.194 303.154 308.266 305.775C308.289 306.592 307.416 310.163 308.694 308.732C308.575 309.301 308.519 309.716 308.51 310.015C307.505 308.87 306.509 307.716 305.522 306.555C305.588 306.431 305.643 306.293 305.671 306.13C305.863 305.003 304.773 304.433 303.934 304.672C302.635 303.112 301.351 301.536 300.097 299.935C297.439 296.543 294.747 293.06 292.084 289.512C292.809 289.023 292.638 288.209 293.324 287.68C294.009 287.153 295.26 286.963 296.048 286.49C298.03 285.302 299.777 283.437 301.103 281.555C303.292 278.446 306.433 271.754 301.356 269.557C296.124 267.29 292.588 273.672 291.75 277.822C291.587 278.626 291.341 286.013 291.496 288.724C286.571 282.134 281.765 275.332 277.491 268.483C279.01 268.646 283.677 266.039 284.646 265.292C287.01 263.471 290.919 259.292 287.48 256.437C284.422 253.904 279.98 256.536 278.212 259.392C277.922 259.863 276.561 264.398 276.254 266.468C274.492 263.57 272.828 260.667 271.302 257.772C270.284 255.847 269.352 253.884 268.498 251.89C268.773 251.774 269.046 251.547 269.312 251.257C274.94 250.965 282.982 243.177 276.85 239.424C273.93 237.639 270.24 240.188 268.447 242.419C268.079 242.875 267.288 245.293 266.652 247.198C264.29 240.649 262.699 233.822 261.689 226.895C262.184 226.832 262.633 226.513 262.761 225.888C265.618 224.673 267.883 223.649 270.096 220.93C271.471 219.241 274.051 215.318 270.755 213.906C266.466 212.07 262.882 218.53 262.128 221.83C262.041 222.213 261.91 223.342 261.804 224.377C261.652 224.338 261.496 224.323 261.34 224.332C260.805 220.053 260.483 215.745 260.328 211.449C262.845 210.952 264.752 198.265 263.349 196.263C260.214 191.781 256.983 197.349 256.813 200.471C256.614 204.153 257.882 207.672 259.509 210.853C259.685 211.191 259.626 211.168 259.732 210.739C259.737 210.958 259.79 211.125 259.884 211.253C259.557 213.165 259.128 215.112 259.025 216.825C258.728 221.733 258.723 226.704 258.986 231.613C259.05 232.807 259.144 233.995 259.267 235.176C257.512 233.288 255.056 231.505 254.082 230.924C251.552 229.416 247.59 227.644 244.702 229.361ZM359.17 414.306C358.847 415.992 358.359 417.513 357.636 418.73C358.236 417.319 358.743 415.838 359.17 414.306Z" stroke="url(#paint1_linear)" stroke-width="2" mask="url(#path-2-inside-2)"/>
</g>
<defs>
<linearGradient id="paint0_linear" x1="324.709" y1="252.886" x2="289.787" y2="407.161" gradientUnits="userSpaceOnUse">
<stop stop-color="#57FFB2"/>
<stop offset="0.661493" stop-color="#5E19E4"/>
<stop offset="1" stop-color="#972BB6"/>
</linearGradient>
<linearGradient id="paint1_linear" x1="319.538" y1="204.545" x2="285.169" y2="406.391" gradientUnits="userSpaceOnUse">
<stop stop-color="#57FFB2"/>
<stop offset="0.661493" stop-color="#5E19E4"/>
<stop offset="1" stop-color="#972BB6"/>
</linearGradient>
</defs>
</svg>
