<svg width="667" height="603" viewBox="0 0 667 603" fill="none" xmlns="http://www.w3.org/2000/svg">
<circle cx="250.196" cy="105.306" r="7.39713" stroke="url(#paint0_linear)" stroke-width="2"/>
<circle cx="375.22" cy="302.172" r="2.73206" stroke="url(#paint1_linear)" stroke-width="2"/>
<circle cx="565.555" cy="261.12" r="2.73206" stroke="url(#paint2_linear)" stroke-width="2"/>
<mask id="path-4-inside-1" fill="white">
<ellipse cx="115.376" cy="434.66" rx="1.39952" ry="1.86603"/>
</mask>
<path d="M114.775 434.66C114.775 434.785 114.735 434.82 114.765 434.78C114.796 434.739 114.991 434.526 115.376 434.526V438.526C116.533 438.526 117.428 437.896 117.965 437.18C118.502 436.464 118.775 435.566 118.775 434.66H114.775ZM115.376 434.526C115.76 434.526 115.955 434.739 115.986 434.78C116.016 434.82 115.976 434.785 115.976 434.66H111.976C111.976 435.566 112.249 436.464 112.786 437.18C113.323 437.896 114.218 438.526 115.376 438.526V434.526ZM115.976 434.66C115.976 434.536 116.016 434.5 115.986 434.541C115.955 434.582 115.76 434.794 115.376 434.794V430.794C114.218 430.794 113.323 431.424 112.786 432.141C112.249 432.857 111.976 433.754 111.976 434.66H115.976ZM115.376 434.794C114.991 434.794 114.796 434.582 114.765 434.541C114.735 434.5 114.775 434.536 114.775 434.66H118.775C118.775 433.754 118.502 432.857 117.965 432.141C117.428 431.424 116.533 430.794 115.376 430.794V434.794Z" fill="url(#paint3_linear)" mask="url(#path-4-inside-1)"/>
<circle cx="512.373" cy="219.134" r="1" stroke="url(#paint4_linear)" stroke-width="1.73206"/>
<path opacity="0.5" d="M122.306 75.4498C122.306 77.9154 120.116 80.0478 117.242 80.0478C114.368 80.0478 112.177 77.9154 112.177 75.4498C112.177 72.9842 114.368 70.8517 117.242 70.8517C120.116 70.8517 122.306 72.9842 122.306 75.4498Z" stroke="url(#paint5_linear)" stroke-width="2"/>
<circle cx="49.5981" cy="347.89" r="4.59809" stroke="url(#paint6_linear)" stroke-width="2"/>
<circle cx="320.639" cy="402.471" r="5.06459" stroke="url(#paint7_linear)" stroke-width="2"/>
<path d="M480.616 324.403C480.616 324.403 493.949 313.707 504.206 311.242C514.857 308.681 522.911 308.333 531.655 314.933C537.087 319.033 541.579 327.292 541.579 327.292C541.579 327.292 529.361 320.87 521.389 322.382C516.64 323.283 513.758 324.371 510.171 327.611C500.089 336.72 533.121 327.663 543.978 335.832C554.643 343.856 561.162 365.373 561.162 365.373C561.162 365.373 544.606 347.964 532.012 352.317C528.229 353.625 528 352.838 526.061 356.34C522.313 363.111 531.148 356.279 538.269 359.309C551.969 365.138 564.174 372.279 568.448 386.54C571.888 398.02 565.011 417.034 565.011 417.034C565.011 417.034 551.679 397.756 540.099 388.597C530.401 380.927 511.507 371.202 512.573 372.953C519.338 384.065 530.669 383.264 538.957 393.293C547.838 404.039 555.868 411.547 554.517 425.423C554.152 429.179 553.497 431.257 552.234 434.814C549.994 441.115 543.656 449.636 543.656 449.636C543.656 449.636 536.454 425.009 523.084 421.758C520.266 421.073 544.316 443.648 534.659 453.913C530.997 457.806 527.935 459.791 522.63 460.437C508.363 462.174 517.778 433.413 510.305 421.137C508.172 417.635 512.922 463.547 512.922 463.547C512.922 463.547 496.847 449.682 493.415 437.419C490.071 425.468 500.571 398.419 489.568 404.159C481.855 408.183 484.887 423.41 486.308 425.745C487.73 428.08 465.319 424.122 466.118 420.835C466.917 417.549 495.607 377.281 483.551 379.82C471.496 382.359 465.216 408.183 463.96 413.348C462.704 418.513 446.862 403.955 445.431 393.426C443.959 382.586 457.003 370.38 458.868 368.845C460.734 367.309 473.474 361.953 472.624 357.271C471.773 352.588 459.08 361.824 451.825 367.132C440.707 375.268 433.402 399.95 433.402 399.95C433.402 399.95 428.652 385.678 427.411 379.596C425.798 371.697 420.966 367.899 422.244 359.939C424.429 346.338 464.14 348.683 452.712 340.991C442.904 334.389 424.3 351.487 424.3 351.487C424.3 351.487 417.071 330.737 425.985 322.059C435.2 313.087 447.699 314.12 459.487 319.265C473.615 325.431 474.513 341.319 480.453 353.704C489.62 372.817 501.294 405.021 501.294 405.021C501.294 405.021 497.998 354.101 477.076 338.959C463.777 329.333 456.774 330.154 440.465 332.045C407.511 335.867 387.895 394.852 387.895 394.852L358.573 464.306C358.573 464.306 373.562 451.682 376.82 440.397C389.431 396.717 385.947 372.335 397.674 330.094C408.902 289.653 427.403 269.192 434.646 229.18C438.179 209.662 427.993 178.827 427.993 178.827C427.993 178.827 424.632 166.27 418.056 164.475C412.148 162.862 408.87 167.251 403.323 169.844C377.556 181.888 355.625 224.884 355.625 224.884C355.625 224.884 388.337 190.568 410.607 172.61C418.54 166.213 417.707 158.825 415.377 148.904C412.05 134.745 399.086 131.815 385.465 126.712C372.794 121.965 364.042 119.749 350.986 123.301C335.616 127.481 329.459 136.898 319.745 149.52C315.85 154.581 310.926 163.29 310.926 163.29C310.926 163.29 325.569 151.036 339.44 150.331C350.936 149.747 372.615 151.747 372.105 163.247C368.996 167.891 362.211 161.569 356.623 161.472C348.843 161.336 344.405 160.52 336.7 161.6C325.347 163.192 316.877 162.958 308.985 171.272C300.411 180.305 301.45 202.261 301.45 202.261C301.45 202.261 318.512 188.232 331.447 183.199C344.679 178.05 379.918 183.445 367.271 176.991C362.396 174.503 361.146 171.519 356.472 174.365C338.96 185.026 324.429 185.422 321.957 201.778C321.065 207.678 321.762 211.221 323.227 217.006C326.143 228.525 338.61 230.637 339.916 242.448C340.767 250.147 336.174 261.927 336.174 261.927C336.174 261.927 346.936 253.677 355.094 251.609C370.459 247.714 394.535 261.2 394.535 261.2C394.535 261.2 395.42 240.982 395.142 228.028C394.969 219.968 386.729 208.59 393.11 203.664C405.999 202.462 412.354 223.562 411.487 236.479C410.748 247.503 400.169 262.57 400.169 262.57C400.169 262.57 414.532 261.497 419.598 258.343C442.328 244.19 416.344 189.919 413.311 192.165C410.279 194.411 432.9 213.91 438.885 232.2C442.901 244.476 445.422 264.623 445.422 264.623C445.422 264.623 463.5 250.513 465.166 236.602C466.76 223.286 462.336 218.619 453.616 208.431C443.411 196.507 420.29 183.916 420.29 183.916C420.29 183.916 435.283 186.85 443.894 191.148C451.078 194.733 454.985 197.535 460.265 203.583C466.782 211.045 469.657 224.267 469.657 224.267C469.657 224.267 483.678 206.233 482.929 192.185C482.235 179.177 481.348 169.186 470.313 162.263C456.074 153.33 442.063 149.423 426.798 157.152" stroke="url(#paint8_linear)" stroke-width="2"/>
<path opacity="0.4" d="M487.381 326.336C487.381 326.336 500.714 315.64 510.971 313.175C521.622 310.614 529.676 310.265 538.42 316.865C543.852 320.966 548.344 329.225 548.344 329.225C548.344 329.225 536.126 322.803 528.154 324.315C523.405 325.216 520.523 326.304 516.936 329.544C506.854 338.653 539.886 329.596 550.743 337.765C561.408 345.789 567.928 367.306 567.928 367.306C567.928 367.306 551.372 349.897 538.778 354.25C534.994 355.558 534.765 354.771 532.826 358.273C529.078 365.044 537.913 358.212 545.034 361.242C558.734 367.071 570.94 374.211 575.213 388.473C578.653 399.952 571.776 418.967 571.776 418.967C571.776 418.967 558.444 399.689 546.864 390.53C537.166 382.86 518.272 373.134 519.338 374.886C526.104 385.998 537.434 385.197 545.722 395.226C554.603 405.972 562.633 413.48 561.282 427.356C560.917 431.112 560.263 433.19 558.999 436.747C556.759 443.048 550.421 451.569 550.421 451.569C550.421 451.569 543.219 426.942 529.849 423.691C527.032 423.006 551.082 445.581 541.424 455.846C537.763 459.739 534.7 461.724 529.395 462.37C515.128 464.107 524.543 435.345 517.07 423.07C514.938 419.567 519.687 465.48 519.687 465.48C519.687 465.48 503.612 451.615 500.181 439.352C496.837 427.401 507.336 400.352 496.333 406.092C488.62 410.115 491.652 425.343 493.073 427.678C494.495 430.013 472.084 426.055 472.883 422.768C473.682 419.482 502.372 379.214 490.316 381.753C478.261 384.292 471.981 410.116 470.725 415.281C469.469 420.446 453.627 405.887 452.197 395.359C450.724 384.519 463.768 372.313 465.634 370.778C467.499 369.242 480.239 363.886 479.389 359.203C478.538 354.521 465.845 363.757 458.59 369.065C447.472 377.201 440.167 401.883 440.167 401.883C440.167 401.883 435.417 387.61 434.176 381.528C432.563 373.63 427.731 369.832 429.009 361.872C431.195 348.271 470.905 350.616 459.477 342.924C449.669 336.322 431.065 353.42 431.065 353.42C431.065 353.42 423.837 332.67 432.75 323.992C441.966 315.02 454.464 316.053 466.252 321.198C480.38 327.364 481.278 343.252 487.218 355.637C496.385 374.75 508.059 406.954 508.059 406.954C508.059 406.954 504.763 356.034 483.842 340.891C470.542 331.265 463.539 332.087 447.23 333.978C414.276 337.8 394.66 396.785 394.66 396.785L365.338 466.239C365.338 466.239 380.327 453.615 383.585 442.33C396.196 398.65 392.712 374.268 404.439 332.027C415.667 291.586 434.168 271.125 441.411 231.113C444.944 211.595 434.758 180.76 434.758 180.76C434.758 180.76 431.397 168.203 424.821 166.408C418.913 164.795 415.635 169.184 410.088 171.777C384.321 183.821 362.39 226.817 362.39 226.817C362.39 226.817 395.102 192.501 417.372 174.543C425.305 168.146 424.473 160.758 422.142 150.837C418.815 136.678 405.851 133.748 392.23 128.645C379.559 123.897 370.807 121.682 357.751 125.233C342.382 129.414 336.224 138.831 326.51 151.453C322.616 156.514 317.691 165.223 317.691 165.223C317.691 165.223 332.334 152.969 346.205 152.264C357.701 151.679 379.38 153.68 378.87 165.18C375.761 169.824 368.976 163.502 363.388 163.405C355.609 163.269 351.17 162.452 343.465 163.533C332.113 165.125 323.642 164.89 315.75 173.205C307.176 182.238 308.215 204.194 308.215 204.194C308.215 204.194 325.277 190.165 338.213 185.132C351.445 179.983 386.683 185.378 374.036 178.924C369.162 176.436 367.911 173.452 363.237 176.298C345.725 186.959 331.195 187.354 328.722 203.711C327.83 209.611 328.527 213.153 329.992 218.939C332.908 230.458 345.375 232.57 346.681 244.381C347.533 252.08 342.939 263.86 342.939 263.86C342.939 263.86 353.701 255.61 361.859 253.542C377.224 249.647 401.3 263.133 401.3 263.133C401.3 263.133 402.185 242.915 401.907 229.961C401.734 221.901 393.494 210.523 399.875 205.596C412.764 204.395 419.119 225.495 418.252 238.411C417.513 249.435 406.935 264.503 406.935 264.503C406.935 264.503 421.297 263.43 426.363 260.276C449.093 246.123 423.109 191.851 420.076 194.098C417.044 196.344 439.665 215.842 445.65 234.133C449.666 246.409 452.187 266.556 452.187 266.556C452.187 266.556 470.265 252.446 471.931 238.535C473.525 225.219 469.101 220.552 460.381 210.364C450.176 198.44 427.055 185.849 427.055 185.849C427.055 185.849 442.048 188.783 450.659 193.08C457.843 196.666 461.75 199.468 467.03 205.515C473.547 212.978 476.422 226.2 476.422 226.2C476.422 226.2 490.443 208.166 489.694 194.118C489 181.11 488.113 171.119 477.078 164.196C462.839 155.263 448.829 151.356 433.564 159.085" stroke="url(#paint9_linear)"/>
<defs>
<linearGradient id="paint0_linear" x1="241.799" y1="92.4481" x2="258.593" y2="118.689" gradientUnits="userSpaceOnUse">
<stop offset="0.317708" stop-color="#5E19E4"/>
<stop offset="0.75" stop-color="#972BB6" stop-opacity="0.42"/>
</linearGradient>
<linearGradient id="paint1_linear" x1="371.488" y1="296.458" x2="378.952" y2="308.12" gradientUnits="userSpaceOnUse">
<stop offset="0.317708" stop-color="#5E19E4"/>
<stop offset="0.75" stop-color="#972BB6" stop-opacity="0.42"/>
</linearGradient>
<linearGradient id="paint2_linear" x1="561.823" y1="255.405" x2="569.287" y2="267.068" gradientUnits="userSpaceOnUse">
<stop offset="0.317708" stop-color="#5E19E4"/>
<stop offset="0.75" stop-color="#972BB6" stop-opacity="0.42"/>
</linearGradient>
<linearGradient id="paint3_linear" x1="113.976" y1="431.803" x2="118.035" y2="436.559" gradientUnits="userSpaceOnUse">
<stop offset="0.317708" stop-color="#5E19E4"/>
<stop offset="0.75" stop-color="#972BB6" stop-opacity="0.42"/>
</linearGradient>
<linearGradient id="paint4_linear" x1="510.507" y1="216.277" x2="514.239" y2="222.108" gradientUnits="userSpaceOnUse">
<stop offset="0.317708" stop-color="#5E19E4"/>
<stop offset="0.75" stop-color="#972BB6" stop-opacity="0.42"/>
</linearGradient>
<linearGradient id="paint5_linear" x1="111.177" y1="66.8777" x2="121.976" y2="85.1575" gradientUnits="userSpaceOnUse">
<stop offset="0.317708" stop-color="#5E19E4"/>
<stop offset="0.75" stop-color="#972BB6" stop-opacity="0.42"/>
</linearGradient>
<linearGradient id="paint6_linear" x1="44" y1="339.318" x2="55.1962" y2="356.812" gradientUnits="userSpaceOnUse">
<stop offset="0.317708" stop-color="#5E19E4"/>
<stop offset="0.75" stop-color="#972BB6" stop-opacity="0.42"/>
</linearGradient>
<linearGradient id="paint7_linear" x1="314.574" y1="393.185" x2="326.703" y2="412.137" gradientUnits="userSpaceOnUse">
<stop offset="0.317708" stop-color="#5E19E4"/>
<stop offset="0.75" stop-color="#972BB6" stop-opacity="0.42"/>
</linearGradient>
<linearGradient id="paint8_linear" x1="546.026" y1="178.733" x2="327.713" y2="456.851" gradientUnits="userSpaceOnUse">
<stop stop-color="#5E19E4"/>
<stop offset="0.0001" stop-color="#57FFB2"/>
<stop offset="0.656644" stop-color="#5E19E4"/>
<stop offset="1" stop-color="#902EAA" stop-opacity="0.37"/>
</linearGradient>
<linearGradient id="paint9_linear" x1="552.791" y1="180.666" x2="334.479" y2="458.784" gradientUnits="userSpaceOnUse">
<stop stop-color="#5E19E4"/>
<stop offset="0.0001" stop-color="#57FFB2"/>
<stop offset="0.656644" stop-color="#5E19E4"/>
<stop offset="1" stop-color="#902EAA" stop-opacity="0.37"/>
</linearGradient>
</defs>
</svg>
