<svg width="667" height="603" viewBox="0 0 667 603" fill="none" xmlns="http://www.w3.org/2000/svg">
<path d="M293.915 540.191L294.402 540.246L293.915 540.191C293.689 542.18 292.772 543.326 291.872 543.579C291.041 543.813 289.845 543.364 288.836 541.254C287.702 538.884 287.071 536.066 286.475 533.405L286.472 533.39C286.046 531.488 285.662 529.596 285.277 527.699C284.971 526.19 284.665 524.678 284.335 523.154C282.856 516.304 281.145 509.513 279.419 502.734C279.289 502.223 279.159 501.712 279.029 501.201C277.432 494.932 275.836 488.67 274.411 482.366C273.556 478.581 272.815 474.755 272.072 470.922C270.212 461.319 268.345 451.677 264.65 442.552C260.369 431.976 254.056 423.558 247.274 415.704L246.896 416.031L247.274 415.704C246.202 414.463 245.123 413.232 244.045 412.002C238.549 405.733 233.06 399.47 228.583 391.924C227.49 390.081 226.484 388.167 225.615 386.164C231.046 393.045 237.156 398.745 243.232 404.414C243.69 404.842 244.149 405.27 244.607 405.699C251.698 412.327 258.677 419.037 264.502 427.701C271.412 437.981 276.174 449.852 279.398 462.439C280.571 467.021 281.666 471.622 282.761 476.226C283.304 478.51 283.848 480.794 284.401 483.078C286.026 489.781 287.487 496.471 288.562 503.252C288.746 504.412 288.927 505.57 289.109 506.727C289.995 512.386 290.878 518.027 292.029 523.688C292.116 524.116 292.205 524.549 292.295 524.985C293.324 529.988 294.452 535.473 293.915 540.191Z" stroke="#57FFB2"/>
<path d="M341.276 444.096C341.465 443.857 341.657 443.616 341.848 443.37C341.216 444.434 340.704 445.644 340.208 446.82C340.044 447.208 339.881 447.593 339.716 447.968L339.716 447.968C339.038 449.509 338.333 451.044 337.626 452.584C336.66 454.687 335.69 456.798 334.781 458.943C331.625 466.382 330.266 474.781 329.603 483.536C329.345 486.949 329.185 490.382 329.025 493.805C328.991 494.526 328.958 495.247 328.923 495.967C328.724 500.11 328.496 504.235 328.064 508.319C327.347 515.103 326.24 522.007 324.392 528.219C324.098 529.209 323.672 531.143 323.155 533.493C323.106 533.715 323.056 533.94 323.006 534.169C322.418 536.835 321.719 539.971 320.951 542.938C320.182 545.91 319.351 548.686 318.503 550.639C318.077 551.622 317.663 552.357 317.275 552.806C316.922 553.214 316.694 553.277 316.552 553.257C316.543 553.242 316.531 553.22 316.516 553.189C316.457 553.065 316.394 552.869 316.332 552.589C316.211 552.034 316.117 551.246 316.05 550.28C315.915 548.356 315.888 545.804 315.915 543.184C315.963 538.474 316.187 533.582 316.269 531.787C316.279 531.585 316.286 531.423 316.291 531.304C316.422 528.309 316.862 525.255 317.293 522.256C317.4 521.509 317.507 520.765 317.609 520.026C318.737 511.822 320.254 503.719 321.763 495.661L321.317 495.577L321.763 495.661C322.012 494.334 322.256 493.003 322.5 491.671C323.659 485.358 324.821 479.025 326.453 473.026L326.024 472.909L326.453 473.026C328.353 466.041 331.146 459.963 334.494 454.507L334.494 454.507C334.899 453.846 335.301 453.183 335.702 452.521C337.068 450.269 338.426 448.028 339.877 445.939L339.877 445.939C340.32 445.302 340.788 444.71 341.269 444.105L341.276 444.096Z" stroke="#57FFB2"/>
<g opacity="0.4">
<path d="M225.814 377.279C231.555 384.583 238.025 390.62 244.46 396.624C244.943 397.075 245.425 397.524 245.907 397.975C253.364 404.946 260.705 412.004 266.833 421.118C274.103 431.932 279.111 444.419 282.502 457.658C283.736 462.478 284.887 467.316 286.039 472.159C286.61 474.56 287.182 476.963 287.764 479.364C289.473 486.414 291.01 493.45 292.14 500.583C292.334 501.802 292.525 503.02 292.715 504.238C293.647 510.189 294.576 516.12 295.787 522.073C295.878 522.523 295.972 522.978 296.066 523.437C297.148 528.699 298.335 534.471 297.77 539.437C297.531 541.533 296.564 542.751 295.602 543.022C294.711 543.273 293.443 542.786 292.38 540.563C291.186 538.067 290.522 535.102 289.895 532.304L289.892 532.287C289.444 530.287 289.04 528.297 288.635 526.301C288.313 524.714 287.991 523.124 287.645 521.522C286.089 514.319 284.289 507.178 282.474 500.048C282.337 499.511 282.201 498.973 282.064 498.436C280.384 491.843 278.707 485.257 277.208 478.627C276.308 474.645 275.528 470.62 274.747 466.589C272.791 456.491 270.828 446.355 266.944 436.761C262.443 425.642 255.806 416.792 248.674 408.533L248.296 408.86L248.674 408.533C247.548 407.228 246.413 405.934 245.279 404.64C239.499 398.047 233.725 391.459 229.015 383.521C227.832 381.526 226.746 379.452 225.814 377.279Z" stroke="#57FFB2"/>
<path opacity="0.7" d="M347.531 439.292C347.83 438.916 348.132 438.535 348.43 438.141C348.357 438.258 348.285 438.375 348.213 438.494L348.213 438.494C347.532 439.627 346.985 440.922 346.453 442.181C346.28 442.59 346.109 442.995 345.935 443.39L345.935 443.39C345.222 445.012 344.48 446.627 343.736 448.246C342.721 450.457 341.702 452.676 340.745 454.932C337.428 462.751 335.999 471.581 335.302 480.787C335.03 484.377 334.862 487.985 334.694 491.585C334.659 492.344 334.623 493.102 334.587 493.86C334.378 498.217 334.138 502.556 333.683 506.851C332.929 513.987 331.764 521.249 329.821 527.783C329.511 528.824 329.064 530.857 328.52 533.329C328.468 533.562 328.416 533.799 328.363 534.039C327.745 536.843 327.01 540.142 326.202 543.262C325.393 546.388 324.519 549.309 323.627 551.365C323.178 552.399 322.742 553.176 322.331 553.651C321.948 554.093 321.696 554.16 321.536 554.132C321.525 554.115 321.509 554.088 321.49 554.047C321.426 553.915 321.359 553.706 321.295 553.411C321.166 552.826 321.068 551.995 320.997 550.979C320.855 548.954 320.826 546.27 320.855 543.514C320.906 538.561 321.141 533.415 321.228 531.527C321.238 531.316 321.245 531.145 321.251 531.02C321.389 527.869 321.851 524.655 322.304 521.501C322.417 520.715 322.53 519.933 322.637 519.157C323.823 510.528 325.419 502.006 327.006 493.532L326.559 493.448L327.006 493.532C327.267 492.137 327.524 490.737 327.781 489.336C328.999 482.697 330.221 476.036 331.938 469.725L331.456 469.594L331.938 469.725C333.938 462.377 336.875 455.983 340.397 450.243L340.397 450.243C340.823 449.548 341.246 448.851 341.668 448.155C343.104 445.787 344.533 443.429 346.06 441.231L346.06 441.231C346.526 440.56 347.019 439.938 347.524 439.301L347.531 439.292Z" stroke="#57FFB2"/>
</g>
<path d="M232.593 450.883L232.484 450.981C232.415 450.909 232.306 450.788 232.167 450.632C231.74 450.154 231.026 449.355 230.299 448.694C229.812 448.252 229.384 447.934 229.088 447.816C229.047 447.799 229.015 447.79 228.991 447.784C228.99 447.789 228.988 447.795 228.987 447.801C228.91 448.18 229.084 448.635 229.47 449.154C229.789 449.584 230.188 449.973 230.533 450.309C230.597 450.371 230.659 450.432 230.719 450.491L230.719 450.491C231.986 451.743 233.224 452.966 234.351 454.447C237.011 457.939 239.043 461.8 241.072 465.656C241.144 465.792 241.215 465.928 241.287 466.063L232.593 450.883ZM232.593 450.883C234.959 452.979 237.187 455.219 239.01 457.85C240.295 459.705 241.529 461.598 242.767 463.497C243.479 464.588 244.191 465.681 244.915 466.77L245.331 466.493M232.593 450.883L245.331 466.493M245.331 466.493L244.915 466.77C246.514 469.174 248.195 471.516 249.869 473.85C250.14 474.227 250.41 474.604 250.68 474.981C252.623 477.694 254.541 480.41 256.312 483.233C259.751 488.713 262.047 494.459 263.708 500.767C265.448 507.369 267.371 514.041 269.939 520.397C270.829 522.599 272.108 524.577 273.36 526.511C273.853 527.273 274.342 528.029 274.8 528.788L275.228 528.53M245.331 466.493L275.228 528.53M275.228 528.53L274.8 528.788C275.372 529.734 275.932 530.699 276.494 531.668C277.551 533.488 278.616 535.322 279.779 537.073L280.19 537.693M275.228 528.53L280.19 537.693M280.19 537.693C280.225 537.788 280.249 537.858 280.255 537.876C280.474 538.561 280.564 539.157 280.556 539.877L280.556 539.877C280.535 541.782 279.925 543.48 278.548 544.411C277.299 545.255 275.81 545.279 274.357 544.749C272.897 544.217 271.519 543.14 270.577 541.875C267.753 538.08 265.418 533.617 263.249 529.315C261.278 525.405 259.774 521.31 258.594 517.066L258.181 517.181L258.594 517.066C257.428 512.876 256.551 508.618 255.676 504.34L255.632 504.123C254.772 499.922 253.909 495.703 252.771 491.542C250.569 483.492 246.797 476.415 242.981 469.254C242.415 468.194 241.849 467.131 241.287 466.063L280.19 537.693ZM229.011 447.731C229.011 447.731 229.01 447.732 229.008 447.734C229.01 447.732 229.011 447.731 229.011 447.731Z" stroke="#57FFB2"/>
<path d="M231.946 456.007L231.843 456.1C231.776 456.031 231.672 455.915 231.54 455.767C231.133 455.312 230.456 454.554 229.766 453.927C229.303 453.506 228.899 453.207 228.622 453.096C228.597 453.086 228.575 453.079 228.557 453.073C228.491 453.421 228.651 453.843 229.014 454.331C229.316 454.738 229.694 455.106 230.022 455.426C230.083 455.485 230.142 455.543 230.199 455.599L230.199 455.599C231.404 456.79 232.582 457.954 233.655 459.364C236.186 462.687 238.118 466.359 240.048 470.025C240.116 470.155 240.184 470.284 240.252 470.413L231.946 456.007ZM231.946 456.007C234.195 458 236.313 460.128 238.046 462.629C239.267 464.393 240.441 466.192 241.618 467.997C242.294 469.035 242.972 470.074 243.66 471.11L244.07 470.837L243.66 471.11C245.181 473.396 246.78 475.624 248.372 477.843C248.629 478.202 248.886 478.56 249.143 478.918C250.99 481.498 252.813 484.08 254.497 486.764C257.765 491.972 259.947 497.434 261.527 503.43C263.181 509.708 265.01 516.054 267.453 522.098C268.299 524.194 269.518 526.078 270.709 527.918C271.177 528.643 271.642 529.36 272.077 530.081L272.447 529.858L272.077 530.081C272.62 530.98 273.152 531.897 273.687 532.818C274.692 534.549 275.705 536.294 276.811 537.96L277.201 538.547M231.946 456.007L277.201 538.547M277.201 538.547C277.215 538.586 277.228 538.62 277.237 538.648L277.254 538.696L277.259 538.711L277.261 538.716L277.261 538.717L277.261 538.717C277.468 539.366 277.554 539.931 277.546 540.612L277.546 540.612C277.527 542.42 276.948 544.025 275.648 544.903C274.468 545.7 273.062 545.724 271.684 545.222C270.301 544.718 268.995 543.697 268.102 542.497C265.418 538.891 263.198 534.649 261.136 530.558C259.262 526.842 257.833 522.949 256.711 518.916L256.229 519.05L256.711 518.915C255.603 514.932 254.77 510.884 253.937 506.816L253.895 506.61C253.078 502.615 252.257 498.602 251.174 494.645L250.692 494.777L251.174 494.645C249.08 486.988 245.492 480.256 241.863 473.447C241.325 472.439 240.787 471.428 240.252 470.413L277.201 538.547ZM228.578 453.006C228.578 453.006 228.578 453.007 228.577 453.008C228.577 453.006 228.578 453.006 228.578 453.006Z" stroke="#57FFB2" stroke-opacity="0.3"/>
<path d="M366.284 468.631L366.363 468.702C366.417 468.646 366.499 468.555 366.602 468.439C366.913 468.091 367.417 467.527 367.937 467.055C368.228 466.789 368.48 466.597 368.665 466.496C368.647 466.686 368.542 466.92 368.333 467.202C368.109 467.503 367.829 467.776 367.58 468.019C367.533 468.065 367.487 468.11 367.443 468.153L367.443 468.153C366.527 469.058 365.625 469.95 364.802 471.03C362.871 473.566 361.396 476.368 359.93 479.155C359.877 479.254 359.825 479.354 359.773 479.453L366.284 468.631ZM366.284 468.631C364.574 470.147 362.968 471.761 361.656 473.655M366.284 468.631L361.656 473.655M361.656 473.655C360.727 474.995 359.836 476.362 358.941 477.734C358.427 478.524 357.91 479.315 357.385 480.105L356.972 479.83L357.385 480.105C356.227 481.847 355.009 483.543 353.798 485.231C353.602 485.504 353.407 485.777 353.212 486.049C351.806 488.012 350.421 489.974 349.142 492.012C346.663 495.962 345.007 500.106 343.808 504.659C342.549 509.436 341.156 514.27 339.295 518.876C338.646 520.482 337.709 521.93 336.801 523.334C336.446 523.883 336.096 524.425 335.768 524.966L335.34 524.708L335.768 524.966C335.358 525.646 334.954 526.342 334.547 527.042C333.781 528.361 333.007 529.695 332.164 530.965L331.875 531.4C331.866 531.423 331.859 531.444 331.853 531.462L331.84 531.497L331.837 531.508L331.836 531.512C331.682 531.993 331.619 532.41 331.624 532.915L331.624 532.915C331.639 534.27 332.073 535.445 333.016 536.082C333.874 536.661 334.901 536.684 335.924 536.312C336.952 535.937 337.927 535.175 338.594 534.279C340.629 531.545 342.314 528.326 343.883 525.213C345.304 522.394 346.389 519.44 347.241 516.378L347.691 516.503L347.241 516.378C348.083 513.352 348.716 510.276 349.35 507.181L349.382 507.022C350.004 503.984 350.629 500.927 351.453 497.913C353.051 492.074 355.788 486.939 358.548 481.76C358.957 480.993 359.366 480.225 359.773 479.453L361.656 473.655ZM368.833 466.426C368.834 466.426 368.835 466.425 368.835 466.425C368.835 466.425 368.834 466.425 368.833 466.426Z" stroke="#57FFB2"/>
<path opacity="0.7" d="M373.834 464.16L373.916 464.234C373.972 464.176 374.057 464.081 374.166 463.959C374.492 463.594 375.025 462.998 375.573 462.5C375.901 462.202 376.183 461.989 376.384 461.888C376.378 462.104 376.265 462.37 376.027 462.69C375.79 463.009 375.495 463.297 375.232 463.553C375.183 463.601 375.135 463.648 375.089 463.693L375.089 463.693C374.125 464.645 373.178 465.581 372.314 466.716M373.834 464.16L367.192 475.258C368.734 472.326 370.284 469.381 372.314 466.716M373.834 464.16C372.035 465.754 370.344 467.452 368.963 469.446C367.986 470.856 367.049 472.293 366.108 473.737C365.567 474.567 365.024 475.399 364.472 476.23L364.062 475.957L364.472 476.23C363.254 478.061 361.974 479.845 360.7 481.62C360.494 481.907 360.288 482.194 360.083 482.48C358.605 484.544 357.148 486.608 355.802 488.753C353.194 492.909 351.452 497.27 350.19 502.059C348.866 507.083 347.401 512.166 345.445 517.008C344.763 518.695 343.78 520.215 342.826 521.69C342.452 522.268 342.083 522.838 341.738 523.41L341.31 523.151L341.738 523.41C341.305 524.125 340.88 524.858 340.453 525.594C339.648 526.98 338.834 528.382 337.947 529.717L337.642 530.177C337.633 530.203 337.624 530.226 337.617 530.246L337.604 530.283L337.601 530.294L337.599 530.298C337.437 530.808 337.37 531.248 337.376 531.783L337.376 531.783C337.392 533.212 337.849 534.457 338.851 535.134C339.761 535.749 340.851 535.772 341.932 535.378C343.019 534.983 344.048 534.178 344.752 533.233C346.894 530.354 348.667 526.968 350.317 523.694C351.812 520.728 352.954 517.62 353.85 514.397L354.332 514.531L353.85 514.397C354.736 511.214 355.402 507.979 356.068 504.723L356.102 504.557C356.756 501.362 357.413 498.148 358.28 494.979L358.762 495.111L358.28 494.979C359.959 488.841 362.836 483.444 365.739 477.997C366.169 477.19 366.6 476.382 367.027 475.571L373.834 464.16ZM372.314 466.716L372.712 467.019L372.314 466.716ZM376.53 461.832C376.531 461.832 376.532 461.832 376.532 461.832L376.53 461.832Z" stroke="#57FFB2" stroke-opacity="0.3"/>
</svg>
