<svg width="667" height="603" viewBox="0 0 667 603" fill="none" xmlns="http://www.w3.org/2000/svg">
<path d="M268.593 364.872L267.653 365.215L268.593 364.872C268.44 364.453 268.252 363.795 268.023 362.974C268.003 362.901 267.983 362.828 267.962 362.753C267.753 362.003 267.517 361.159 267.261 360.333C266.981 359.428 266.667 358.516 266.32 357.747C265.994 357.026 265.566 356.256 264.986 355.817C264.663 355.573 264.271 355.42 263.902 355.314C263.522 355.204 263.094 355.126 262.652 355.067C261.768 354.948 260.732 354.896 259.715 354.859C259.378 354.847 259.045 354.837 258.717 354.827C258.035 354.806 257.378 354.785 256.768 354.751C255.848 354.7 255.159 354.622 254.749 354.503C250.579 353.29 246.466 351.231 242.714 348.921C235.547 344.509 228.856 338.244 223.302 331.85C210.508 317.118 202.967 297.662 199.77 278.44L199.77 278.44C199.625 277.573 199.441 274.364 199.206 269.902C199.166 269.152 199.126 268.37 199.084 267.562C198.878 263.609 198.639 259.023 198.359 254.515C198.022 249.089 197.625 243.755 197.152 239.763C197 238.477 196.838 237.317 196.665 236.33C198.161 238.082 199.648 239.843 201.133 241.609C221.418 265.775 239.403 293.077 252.935 321.549C261.125 338.782 267.906 356.76 274.655 374.654L274.684 374.731C285.146 402.468 295.293 430.195 301.895 459.063C302.483 461.636 303.088 464.238 303.699 466.867C308.975 489.573 314.696 514.189 314.019 537.485C312.993 527.201 311.059 516.932 308.794 506.739C307.363 500.298 305.808 493.919 304.264 487.584C302.254 479.337 300.261 471.164 298.583 463.02C295.746 449.26 292.198 435.772 288.294 422.304C285.045 411.098 281.139 400.056 277.256 389.078C276.605 387.237 275.954 385.397 275.307 383.559C273.109 377.314 270.86 371.088 268.593 364.872Z" stroke="url(#paint0_linear)" stroke-width="2"/>
<g opacity="0.4">
<path opacity="0.7" d="M261.146 365.715L260.679 365.887L261.146 365.715C260.988 365.287 260.799 364.627 260.577 363.834L260.517 363.621C260.312 362.89 260.083 362.075 259.834 361.279C259.561 360.405 259.259 359.539 258.929 358.818C258.61 358.12 258.229 357.471 257.76 357.124C257.51 356.938 257.187 356.81 256.848 356.716C256.503 356.619 256.106 356.548 255.681 356.494C254.831 356.385 253.825 356.337 252.818 356.305C252.49 356.295 252.163 356.286 251.84 356.277C251.16 356.259 250.498 356.241 249.887 356.209C248.978 356.162 248.242 356.088 247.776 355.956C243.588 354.772 239.477 352.758 235.742 350.508C228.596 346.203 221.947 340.088 216.442 333.858C203.734 319.475 196.294 300.47 193.177 281.707L193.177 281.707C193.032 280.83 192.858 277.667 192.641 273.345C192.604 272.615 192.566 271.853 192.527 271.066C192.336 267.219 192.114 262.757 191.851 258.372C191.535 253.091 191.159 247.91 190.705 244.039C190.478 242.106 190.23 240.483 189.956 239.332C189.919 239.177 189.881 239.029 189.843 238.888C191.746 241.066 193.633 243.26 195.514 245.459C215.57 268.949 233.333 295.504 246.674 323.219C254.745 339.988 261.415 357.484 268.046 374.878L268.077 374.961C278.359 401.931 288.339 428.92 294.797 457.038C295.373 459.542 295.965 462.077 296.562 464.637C302.251 489 308.49 515.718 306.126 540.512C305.473 528.193 303.249 515.872 300.522 503.645C299.129 497.403 297.61 491.202 296.099 485.038C294.13 477.003 292.176 469.029 290.539 461.108C287.774 447.736 284.305 434.629 280.48 421.536C277.3 410.651 273.469 399.928 269.655 389.251C269.015 387.46 268.376 385.671 267.74 383.882C265.582 377.811 263.374 371.759 261.146 365.715Z" stroke="url(#paint1_linear)"/>
</g>
<path d="M371.256 450.726C371.716 450.323 372.16 449.911 372.576 449.472C371.443 449.862 370.552 450.602 369.631 451.368C369.447 451.52 369.262 451.674 369.074 451.827C368.352 452.409 367.6 452.943 366.848 453.476C366.093 454.011 365.339 454.547 364.614 455.132C362.282 457.018 360.057 459.064 357.837 461.108C357.187 461.706 356.538 462.303 355.886 462.896C350.421 467.87 345.66 473.519 342.046 480.158C338.952 485.841 336.479 491.905 334.024 497.927C333.507 499.196 332.99 500.463 332.469 501.723C329.292 509.404 326.093 517.14 323.429 525.021C323.192 525.722 322.946 526.43 322.698 527.143C321.698 530.019 320.67 532.976 320.09 535.906C319.639 538.183 320.017 540.372 322.251 541.083C326.996 542.592 330.931 538.077 333.264 534.081C336.7 528.197 339.171 521.563 341.07 515.018C342.415 510.385 343.369 505.669 344.324 500.953C344.996 497.635 345.667 494.318 346.474 491.028C348.544 482.593 351.538 474.622 356.902 467.796M371.256 450.726C371.745 450.384 372.249 450.102 372.823 449.916C372.831 449.914 372.84 449.912 372.849 449.91C372.117 450.669 371.317 451.341 370.516 452.013C369.969 452.472 369.422 452.932 368.896 453.419C367.874 454.367 367.013 455.467 366.149 456.569C365.863 456.935 365.576 457.301 365.283 457.663C364.112 459.105 362.915 460.526 361.718 461.946C360.091 463.877 358.463 465.809 356.902 467.796M371.256 450.726C371.142 450.826 371.027 450.926 370.911 451.025C370.68 451.222 370.444 451.421 370.206 451.621C369.654 452.084 369.091 452.556 368.556 453.053L368.556 453.053C367.502 454.03 366.606 455.174 365.737 456.285C365.455 456.645 365.175 457.001 364.894 457.348L364.894 457.348C363.739 458.772 362.545 460.189 361.348 461.61C359.712 463.551 358.07 465.5 356.509 467.487M371.256 450.726C370.828 451.025 370.412 451.371 369.97 451.737C369.782 451.893 369.589 452.053 369.388 452.215L369.388 452.215C368.654 452.808 367.892 453.349 367.144 453.879L367.133 453.887C366.378 454.422 365.637 454.948 364.928 455.521L364.928 455.521C362.61 457.395 360.401 459.427 358.183 461.469C357.532 462.068 356.879 462.669 356.223 463.266L356.223 463.266C350.79 468.21 346.067 473.816 342.485 480.397C339.406 486.053 336.946 492.086 334.49 498.107C333.972 499.378 333.454 500.648 332.931 501.915C329.753 509.597 326.561 517.318 323.902 525.181C323.662 525.892 323.414 526.606 323.165 527.323C322.166 530.196 321.153 533.111 320.58 536.003C320.364 537.096 320.359 538.114 320.636 538.919C320.904 539.697 321.443 540.301 322.402 540.606C324.568 541.295 326.57 540.627 328.357 539.25C330.153 537.866 331.681 535.801 332.833 533.829C336.24 527.994 338.697 521.402 340.59 514.879C341.729 510.954 342.588 506.965 343.408 502.952C343.551 502.254 343.692 501.556 343.833 500.857C344.505 497.539 345.179 494.209 345.989 490.909C348.067 482.44 351.083 474.391 356.509 467.487M356.902 467.796L356.509 467.487M356.902 467.796L356.509 467.487C356.509 467.487 356.509 467.487 356.509 467.487" stroke="#5E19E4"/>
<path d="M225.232 429.175L225.232 429.175C226.192 429.951 227.192 430.66 228.176 431.358L228.188 431.366C229.18 432.07 230.157 432.763 231.093 433.52L231.094 433.52C234.146 435.987 237.053 438.663 239.969 441.347C240.825 442.134 241.682 442.922 242.543 443.706L242.543 443.706C249.694 450.214 255.914 457.596 260.632 466.264L261.03 466.048L260.632 466.264C264.684 473.707 267.922 481.647 271.149 489.561C271.83 491.231 272.51 492.899 273.198 494.562C277.374 504.659 281.572 514.812 285.068 525.152C285.383 526.084 285.709 527.021 286.036 527.962C287.348 531.74 288.684 535.584 289.44 539.397C289.727 540.848 289.738 542.217 289.361 543.311C288.993 544.378 288.249 545.211 286.938 545.628C284.026 546.554 281.343 545.649 278.968 543.82C276.585 541.984 274.564 539.249 273.045 536.649C268.558 528.964 265.325 520.286 262.834 511.706C261.335 506.54 260.205 501.292 259.127 496.016C258.94 495.099 258.754 494.181 258.568 493.262C257.685 488.901 256.8 484.528 255.736 480.193C253.007 469.072 249.05 458.518 241.938 449.468C239.885 446.855 237.732 444.299 235.585 441.751C234.011 439.883 232.441 438.02 230.917 436.142L230.917 436.142C230.544 435.683 230.175 435.211 229.803 434.735C228.662 433.279 227.495 431.788 226.12 430.513L226.12 430.513C225.419 429.864 224.684 429.246 223.961 428.639C223.647 428.375 223.335 428.114 223.029 427.852C222.493 427.393 221.969 426.929 221.468 426.444C222.548 426.954 223.47 427.719 224.474 428.552C224.721 428.757 224.972 428.965 225.232 429.175Z" stroke="#5E19E4"/>
<g opacity="0.4">
<path d="M378.734 445.681C378.953 445.494 379.169 445.306 379.381 445.115C378.815 445.475 378.283 445.917 377.711 446.391C377.513 446.555 377.31 446.723 377.1 446.893L377.1 446.893C376.329 447.516 375.527 448.085 374.74 448.643L374.73 448.65C373.935 449.213 373.156 449.766 372.41 450.37L372.41 450.37C369.97 452.341 367.647 454.479 365.314 456.626C364.629 457.257 363.943 457.888 363.253 458.516L363.253 458.516C357.539 463.717 352.569 469.614 348.8 476.538L348.361 476.299L348.8 476.538C345.561 482.488 342.974 488.835 340.391 495.167C339.847 496.503 339.302 497.839 338.751 499.17C335.41 507.25 332.052 515.37 329.256 523.64C329.004 524.387 328.743 525.138 328.481 525.892C327.431 528.914 326.365 531.981 325.762 535.025C325.533 536.176 325.527 537.252 325.821 538.104C326.106 538.93 326.678 539.571 327.695 539.895C329.984 540.623 332.097 539.916 333.981 538.465C335.873 537.007 337.483 534.831 338.695 532.756C342.279 526.617 344.864 519.682 346.855 512.821C348.053 508.692 348.957 504.497 349.819 500.276C349.969 499.542 350.118 498.808 350.267 498.072C350.973 494.584 351.681 491.082 352.533 487.612C354.718 478.707 357.889 470.247 363.592 462.99C365.234 460.9 366.96 458.851 368.68 456.81C369.939 455.316 371.194 453.826 372.41 452.327L372.41 452.327C372.706 451.962 373 451.587 373.297 451.208C374.211 450.04 375.152 448.839 376.258 447.813L376.258 447.813C376.821 447.291 377.412 446.795 377.992 446.308C378.243 446.098 378.491 445.889 378.734 445.681Z" stroke="#5E19E4"/>
<path d="M223.18 421.311C222.577 420.795 221.99 420.274 221.429 419.725C222.628 420.261 223.635 421.097 224.734 422.009C224.993 422.223 225.256 422.442 225.529 422.663L225.529 422.663C226.539 423.478 227.589 424.223 228.624 424.957L228.636 424.966C229.68 425.706 230.708 426.435 231.694 427.232L231.694 427.232C234.904 429.827 237.963 432.642 241.03 435.464C241.93 436.292 242.83 437.121 243.736 437.945L243.736 437.945C251.258 444.791 257.801 452.556 262.765 461.675L263.166 461.457L262.765 461.675C267.027 469.504 270.432 477.856 273.826 486.179C274.542 487.935 275.258 489.689 275.981 491.437C280.372 502.056 284.788 512.734 288.465 523.61C288.796 524.589 289.138 525.574 289.482 526.564C290.863 530.537 292.268 534.581 293.063 538.594C293.366 540.122 293.378 541.566 292.979 542.723C292.59 543.853 291.802 544.735 290.415 545.176C287.342 546.153 284.511 545.197 282.01 543.27C279.5 541.336 277.372 538.457 275.774 535.722C271.054 527.637 267.653 518.509 265.033 509.484C263.456 504.051 262.267 498.531 261.134 492.982C260.937 492.017 260.741 491.051 260.546 490.085C259.617 485.499 258.687 480.901 257.568 476.343C254.699 464.649 250.538 453.553 243.062 444.04C240.903 441.292 238.639 438.605 236.381 435.926C234.727 433.962 233.075 432.002 231.472 430.026L231.472 430.026C231.079 429.542 230.69 429.045 230.299 428.545C229.099 427.013 227.874 425.448 226.429 424.109L226.429 424.109C225.693 423.426 224.921 422.778 224.16 422.139C223.83 421.862 223.502 421.586 223.18 421.311Z" stroke="#5E19E4"/>
</g>
<defs>
<linearGradient id="paint0_linear" x1="226.54" y1="227.053" x2="284.871" y2="556.424" gradientUnits="userSpaceOnUse">
<stop offset="0.10406" stop-color="#57FFB2"/>
<stop offset="0.701766" stop-color="#5E19E4"/>
<stop offset="1" stop-color="#972BB6"/>
</linearGradient>
<linearGradient id="paint1_linear" x1="220.368" y1="231.51" x2="277.124" y2="551.989" gradientUnits="userSpaceOnUse">
<stop offset="0.10406" stop-color="#57FFB2"/>
<stop offset="0.701766" stop-color="#5E19E4"/>
<stop offset="1" stop-color="#972BB6"/>
</linearGradient>
</defs>
</svg>
