<svg width="226" height="40" viewBox="0 0 226 40" fill="none" xmlns="http://www.w3.org/2000/svg">
<path d="M75.0332 25.1973C75.0332 24.2949 74.7109 23.5918 74.0664 23.0879C73.4336 22.584 72.3145 22.0625 70.709 21.5234C69.1035 20.9844 67.791 20.4629 66.7715 19.959C63.4551 18.3301 61.7969 16.0918 61.7969 13.2441C61.7969 11.8262 62.207 10.5781 63.0273 9.5C63.8594 8.41016 65.0312 7.56641 66.543 6.96875C68.0547 6.35937 69.7539 6.05469 71.6406 6.05469C73.4805 6.05469 75.127 6.38281 76.5801 7.03906C78.0449 7.69531 79.1816 8.63281 79.9902 9.85156C80.7988 11.0586 81.2031 12.4414 81.2031 14H75.0508C75.0508 12.957 74.7285 12.1484 74.084 11.5742C73.4512 11 72.5898 10.7129 71.5 10.7129C70.3984 10.7129 69.5254 10.959 68.8809 11.4512C68.248 11.9316 67.9316 12.5469 67.9316 13.2969C67.9316 13.9531 68.2832 14.5508 68.9863 15.0898C69.6895 15.6172 70.9258 16.168 72.6953 16.7422C74.4648 17.3047 75.918 17.9141 77.0547 18.5703C79.8203 20.1641 81.2031 22.3613 81.2031 25.1621C81.2031 27.4004 80.3594 29.1582 78.6719 30.4355C76.9844 31.7129 74.6699 32.3516 71.7285 32.3516C69.6543 32.3516 67.7734 31.9824 66.0859 31.2441C64.4102 30.4941 63.1445 29.4746 62.2891 28.1855C61.4453 26.8848 61.0234 25.3906 61.0234 23.7031H67.2109C67.2109 25.0742 67.5625 26.0879 68.2656 26.7441C68.9805 27.3887 70.1348 27.7109 71.7285 27.7109C72.748 27.7109 73.5508 27.4941 74.1367 27.0605C74.7344 26.6152 75.0332 25.9941 75.0332 25.1973ZM95.4238 29.9434C94.1699 31.5488 92.4766 32.3516 90.3438 32.3516C88.2578 32.3516 86.6758 31.748 85.5977 30.541C84.5312 29.3223 83.998 27.5762 83.998 25.3027V12.9805H89.9219V25.3379C89.9219 26.9668 90.7129 27.7812 92.2949 27.7812C93.6543 27.7812 94.6211 27.2949 95.1953 26.3223V12.9805H101.154V32H95.5996L95.4238 29.9434ZM122.072 22.6484C122.072 25.7656 121.428 28.1621 120.139 29.8379C118.85 31.5137 117.033 32.3516 114.689 32.3516C112.756 32.3516 111.197 31.584 110.014 30.0488L109.768 32H104.459V5H110.383V14.5098C111.484 13.2559 112.908 12.6289 114.654 12.6289C117.021 12.6289 118.85 13.4785 120.139 15.1777C121.428 16.877 122.072 19.2676 122.072 22.3496V22.6484ZM116.131 22.2793C116.131 20.4512 115.885 19.1504 115.393 18.377C114.912 17.5918 114.168 17.1992 113.16 17.1992C111.824 17.1992 110.898 17.709 110.383 18.7285V26.2871C110.887 27.2949 111.824 27.7988 113.195 27.7988C114.59 27.7988 115.475 27.1191 115.85 25.7598C116.037 25.0918 116.131 23.9316 116.131 22.2793ZM134.658 26.6562C134.658 26.1523 134.395 25.748 133.867 25.4434C133.34 25.1387 132.338 24.8223 130.861 24.4941C129.385 24.166 128.166 23.7383 127.205 23.2109C126.244 22.6719 125.512 22.0215 125.008 21.2598C124.504 20.498 124.252 19.625 124.252 18.6406C124.252 16.8945 124.973 15.459 126.414 14.334C127.855 13.1973 129.742 12.6289 132.074 12.6289C134.582 12.6289 136.598 13.1973 138.121 14.334C139.645 15.4707 140.406 16.9648 140.406 18.8164H134.465C134.465 17.293 133.662 16.5312 132.057 16.5312C131.436 16.5312 130.914 16.707 130.492 17.0586C130.07 17.3984 129.859 17.8262 129.859 18.3418C129.859 18.8691 130.117 19.2969 130.633 19.625C131.148 19.9531 131.969 20.2227 133.094 20.4336C134.23 20.6445 135.227 20.8965 136.082 21.1895C138.941 22.1738 140.371 23.9375 140.371 26.4805C140.371 28.2148 139.598 29.627 138.051 30.7168C136.516 31.8066 134.523 32.3516 132.074 32.3516C130.445 32.3516 128.992 32.0586 127.715 31.4727C126.438 30.8867 125.441 30.0898 124.727 29.082C124.012 28.0742 123.654 27.0137 123.654 25.9004H129.191C129.215 26.7793 129.508 27.4238 130.07 27.834C130.633 28.2324 131.354 28.4316 132.232 28.4316C133.041 28.4316 133.645 28.2676 134.043 27.9395C134.453 27.6113 134.658 27.1836 134.658 26.6562ZM150.057 8.25195V12.9805H153.186V17.0938H150.057V25.7949C150.057 26.5098 150.186 27.0078 150.443 27.2891C150.701 27.5703 151.211 27.7109 151.973 27.7109C152.559 27.7109 153.051 27.6758 153.449 27.6055V31.8418C152.383 32.1816 151.27 32.3516 150.109 32.3516C148.07 32.3516 146.564 31.8711 145.592 30.9102C144.619 29.9492 144.133 28.4902 144.133 26.5332V17.0938H141.707V12.9805H144.133V8.25195H150.057ZM167.037 18.3418L165.086 18.2012C163.223 18.2012 162.027 18.7871 161.5 19.959V32H155.576V12.9805H161.131L161.324 15.4238C162.32 13.5605 163.709 12.6289 165.49 12.6289C166.123 12.6289 166.674 12.6992 167.143 12.8398L167.037 18.3418ZM179.359 32C179.148 31.6133 178.961 31.0449 178.797 30.2949C177.707 31.666 176.184 32.3516 174.227 32.3516C172.434 32.3516 170.91 31.8125 169.656 30.7344C168.402 29.6445 167.775 28.2793 167.775 26.6387C167.775 24.5762 168.537 23.0176 170.061 21.9629C171.584 20.9082 173.799 20.3809 176.705 20.3809H178.533V19.3789C178.533 17.6328 177.777 16.7598 176.266 16.7598C174.859 16.7598 174.156 17.4512 174.156 18.834H168.232C168.232 16.9941 169.012 15.5 170.57 14.3516C172.141 13.2031 174.139 12.6289 176.564 12.6289C178.99 12.6289 180.906 13.2207 182.312 14.4043C183.719 15.5879 184.439 17.2109 184.475 19.2734V27.6934C184.498 29.4395 184.768 30.7754 185.283 31.7012V32H179.359ZM175.65 28.1328C176.389 28.1328 176.998 27.9746 177.479 27.6582C177.971 27.3418 178.322 26.9844 178.533 26.5859V23.5449H176.811C174.748 23.5449 173.717 24.4707 173.717 26.3223C173.717 26.8613 173.898 27.3008 174.262 27.6406C174.625 27.9688 175.088 28.1328 175.65 28.1328ZM194.67 8.25195V12.9805H197.799V17.0938H194.67V25.7949C194.67 26.5098 194.799 27.0078 195.057 27.2891C195.314 27.5703 195.824 27.7109 196.586 27.7109C197.172 27.7109 197.664 27.6758 198.062 27.6055V31.8418C196.996 32.1816 195.883 32.3516 194.723 32.3516C192.684 32.3516 191.178 31.8711 190.205 30.9102C189.232 29.9492 188.746 28.4902 188.746 26.5332V17.0938H186.32V12.9805H188.746V8.25195H194.67ZM209.348 32.3516C206.43 32.3516 204.068 31.4844 202.264 29.75C200.459 28.0039 199.557 25.7363 199.557 22.9473V22.4551C199.557 20.5098 199.914 18.793 200.629 17.3047C201.355 15.8164 202.41 14.668 203.793 13.8594C205.176 13.0391 206.816 12.6289 208.715 12.6289C211.387 12.6289 213.496 13.4609 215.043 15.125C216.59 16.7773 217.363 19.0859 217.363 22.0508V24.3535H205.586C205.797 25.4199 206.26 26.2578 206.975 26.8672C207.689 27.4766 208.615 27.7812 209.752 27.7812C211.627 27.7812 213.092 27.125 214.146 25.8125L216.854 29.0117C216.115 30.0312 215.066 30.8457 213.707 31.4551C212.359 32.0527 210.906 32.3516 209.348 32.3516ZM208.68 17.1992C206.945 17.1992 205.914 18.3477 205.586 20.6445H211.562V20.1875C211.586 19.2383 211.346 18.5059 210.842 17.9902C210.338 17.4629 209.617 17.1992 208.68 17.1992Z" fill="#E1E1E6"/>
<path d="M21.6117 29.5508L22.921 27.9108C22.921 27.9108 21.1156 26.4937 19.8661 25.6149C18.1931 27.4189 15.567 30.4304 11.9268 30.0695C9.59059 29.8379 7.53714 28.3531 6.24027 25.9423C5.30056 24.1954 4.93337 21.8376 4.80239 20.6714H0.748604C0.948833 22.1817 1.53483 25.7606 2.83349 28.2076C4.51766 31.381 7.79388 34.7166 11.9268 34.7166C16.0596 34.7166 19.3225 32.2567 21.6117 29.5508Z" fill="url(#paint0_linear)"/>
<path d="M19.8661 25.6149C21.1156 26.4937 22.921 27.9108 22.921 27.9108L32.5008 13.5762L30.8278 12.691L29.1549 11.8058C29.1549 11.8058 21.539 23.811 19.8661 25.6149Z" fill="url(#paint1_linear)"/>
<path d="M30.4641 10.1658L29.1549 11.8058L32.5008 13.5762C34.1737 11.7723 36.5088 9.28618 40.1491 9.64708C42.4853 9.87869 44.5387 11.3635 45.8356 13.7743C46.7437 15.4625 47.1172 17.7047 47.2595 18.8973H51.3112C51.0967 17.3342 50.5079 13.8936 49.2424 11.509C47.5582 8.33556 44.282 5 40.1491 5C36.0162 5 32.7534 7.45991 30.4641 10.1658Z" fill="url(#paint2_linear)"/>
<path d="M32.5008 13.5762L29.1549 11.8058L30.8278 12.691L32.5008 13.5762Z" fill="url(#paint3_linear)"/>
<path d="M0.728255 19.7844L0 19.0452H4.12358L4.86311 19.7844H0.728255Z" fill="#2AEBEB" fill-opacity="0.5"/>
<path d="M26.1038 23.1848L23.8862 19.9322L22.4077 22.1499L24.995 24.8111L26.1038 23.1848Z" fill="url(#paint4_linear)" style="mix-blend-mode:darken"/>
<path d="M21.2032 10.1658L22.5338 11.8058C22.5338 11.8058 20.6991 13.2229 19.4291 14.1017C17.7289 12.2978 15.06 9.28618 11.3604 9.64708C8.98614 9.87869 6.89921 11.3635 5.5812 13.7743C4.62617 15.5212 4.25299 17.879 4.11987 19.0452H0C0.203493 17.5349 0.799047 13.956 2.11888 11.509C3.8305 8.33556 7.16013 5 11.3604 5C15.5606 5 18.8767 7.45992 21.2032 10.1658Z" fill="url(#paint5_linear)"/>
<path d="M19.4291 14.1017C20.6991 13.2229 22.5338 11.8058 22.5338 11.8058L32.1437 25.2533L30.4435 26.1385L28.7433 27.0238C28.7433 27.0238 21.1293 15.9056 19.4291 14.1017Z" fill="url(#paint6_linear)"/>
<path d="M30.0739 28.6637L28.7433 27.0238L32.1437 25.2533C33.8439 27.0573 36.2171 29.5434 39.9167 29.1825C42.291 28.9509 44.3779 27.466 45.6959 25.0552C46.6188 23.3671 46.9984 21.1248 47.143 19.9322H51.2608C51.0428 21.4953 50.4444 24.9359 49.1582 27.3206C47.4466 30.494 44.117 33.8295 39.9167 33.8295C35.7165 33.8295 32.4005 31.3696 30.0739 28.6637Z" fill="url(#paint7_linear)"/>
<path d="M32.1437 25.2533L28.7433 27.0238L30.4435 26.1385L32.1437 25.2533Z" fill="url(#paint8_linear)"/>
<path d="M21.9425 10.905L23.2731 12.545C23.2731 12.545 21.4383 13.9621 20.1683 14.8409C18.4681 13.037 15.7992 10.0254 12.0996 10.3863C9.72536 10.6179 7.63843 12.1027 6.32042 14.5135C5.36539 16.2604 4.99221 18.6182 4.85909 19.7844H0.73922C0.942713 18.2741 1.53827 14.6952 2.85809 12.2482C4.56972 9.07478 7.89935 5.73922 12.0996 5.73922C16.2999 5.73922 19.6159 8.19914 21.9425 10.905Z" fill="url(#paint9_linear)" fill-opacity="0.5"/>
<path d="M20.1683 14.8409C21.4383 13.9621 23.2731 12.545 23.2731 12.545L32.8829 25.9925L31.1827 26.8778L29.4825 27.763C29.4825 27.763 21.8686 16.6449 20.1683 14.8409Z" fill="url(#paint10_linear)" fill-opacity="0.5"/>
<path d="M30.8131 29.4029L29.4825 27.763L32.8829 25.9925C34.5831 27.7965 36.9563 30.2826 40.6559 29.9217C43.0302 29.6901 45.1171 28.2052 46.4351 25.7944C47.3581 24.1063 47.7376 21.864 47.8822 20.6714H52C51.782 22.2346 51.1836 25.6752 49.8975 28.0598C48.1858 31.2332 44.8562 34.5688 40.656 34.5688C36.4557 34.5688 33.1397 32.1088 30.8131 29.4029Z" fill="url(#paint11_linear)" fill-opacity="0.5"/>
<path d="M32.8829 25.9925L29.4825 27.763L31.1827 26.8778L32.8829 25.9925Z" fill="url(#paint12_linear)" fill-opacity="0.5"/>
<path d="M47.8801 20.6714L47.1435 19.9322H51.2603L51.9985 20.6714H47.8801Z" fill="#006C6C" fill-opacity="0.8"/>
<defs>
<linearGradient id="paint0_linear" x1="20.1068" y1="3.15195" x2="30.3737" y2="33.1017" gradientUnits="userSpaceOnUse">
<stop stop-color="#5E19E4"/>
<stop offset="0.771873" stop-color="#972BB6"/>
<stop offset="1" stop-color="#902EAA" stop-opacity="0.37"/>
</linearGradient>
<linearGradient id="paint1_linear" x1="20.1068" y1="3.15195" x2="30.3737" y2="33.1017" gradientUnits="userSpaceOnUse">
<stop stop-color="#5E19E4"/>
<stop offset="0.771873" stop-color="#972BB6"/>
<stop offset="1" stop-color="#902EAA" stop-opacity="0.37"/>
</linearGradient>
<linearGradient id="paint2_linear" x1="20.1068" y1="3.15195" x2="30.3737" y2="33.1017" gradientUnits="userSpaceOnUse">
<stop stop-color="#5E19E4"/>
<stop offset="0.771873" stop-color="#972BB6"/>
<stop offset="1" stop-color="#902EAA" stop-opacity="0.37"/>
</linearGradient>
<linearGradient id="paint3_linear" x1="20.1068" y1="3.15195" x2="30.3737" y2="33.1017" gradientUnits="userSpaceOnUse">
<stop stop-color="#5E19E4"/>
<stop offset="0.771873" stop-color="#972BB6"/>
<stop offset="1" stop-color="#902EAA" stop-opacity="0.37"/>
</linearGradient>
<linearGradient id="paint4_linear" x1="25.8821" y1="21.3367" x2="23.8862" y2="23.4066" gradientUnits="userSpaceOnUse">
<stop/>
<stop offset="0.677393" stop-color="#0F0017" stop-opacity="0.219429"/>
<stop offset="1" stop-opacity="0"/>
</linearGradient>
<linearGradient id="paint5_linear" x1="21.2772" y1="7.37792" x2="19.5075" y2="37.2113" gradientUnits="userSpaceOnUse">
<stop stop-color="#57FFB2"/>
<stop offset="0.405182" stop-color="#60C5B2"/>
<stop offset="0.648598" stop-color="#67CACA" stop-opacity="0.747681"/>
<stop offset="1" stop-color="#67CACA" stop-opacity="0"/>
</linearGradient>
<linearGradient id="paint6_linear" x1="21.2772" y1="7.37792" x2="19.5075" y2="37.2113" gradientUnits="userSpaceOnUse">
<stop stop-color="#57FFB2"/>
<stop offset="0.405182" stop-color="#60C5B2"/>
<stop offset="0.648598" stop-color="#67CACA" stop-opacity="0.747681"/>
<stop offset="1" stop-color="#67CACA" stop-opacity="0"/>
</linearGradient>
<linearGradient id="paint7_linear" x1="21.2772" y1="7.37792" x2="19.5075" y2="37.2113" gradientUnits="userSpaceOnUse">
<stop stop-color="#57FFB2"/>
<stop offset="0.405182" stop-color="#60C5B2"/>
<stop offset="0.648598" stop-color="#67CACA" stop-opacity="0.747681"/>
<stop offset="1" stop-color="#67CACA" stop-opacity="0"/>
</linearGradient>
<linearGradient id="paint8_linear" x1="21.2772" y1="7.37792" x2="19.5075" y2="37.2113" gradientUnits="userSpaceOnUse">
<stop stop-color="#57FFB2"/>
<stop offset="0.405182" stop-color="#60C5B2"/>
<stop offset="0.648598" stop-color="#67CACA" stop-opacity="0.747681"/>
<stop offset="1" stop-color="#67CACA" stop-opacity="0"/>
</linearGradient>
<linearGradient id="paint9_linear" x1="22.0164" y1="8.11714" x2="20.2467" y2="37.9505" gradientUnits="userSpaceOnUse">
<stop stop-color="#57FFB2"/>
<stop offset="0.405182" stop-color="#60C5B2"/>
<stop offset="0.648598" stop-color="#67CACA" stop-opacity="0.747681"/>
<stop offset="1" stop-color="#67CACA" stop-opacity="0"/>
</linearGradient>
<linearGradient id="paint10_linear" x1="22.0164" y1="8.11714" x2="20.2467" y2="37.9505" gradientUnits="userSpaceOnUse">
<stop stop-color="#57FFB2"/>
<stop offset="0.405182" stop-color="#60C5B2"/>
<stop offset="0.648598" stop-color="#67CACA" stop-opacity="0.747681"/>
<stop offset="1" stop-color="#67CACA" stop-opacity="0"/>
</linearGradient>
<linearGradient id="paint11_linear" x1="22.0164" y1="8.11714" x2="20.2467" y2="37.9505" gradientUnits="userSpaceOnUse">
<stop stop-color="#57FFB2"/>
<stop offset="0.405182" stop-color="#60C5B2"/>
<stop offset="0.648598" stop-color="#67CACA" stop-opacity="0.747681"/>
<stop offset="1" stop-color="#67CACA" stop-opacity="0"/>
</linearGradient>
<linearGradient id="paint12_linear" x1="22.0164" y1="8.11714" x2="20.2467" y2="37.9505" gradientUnits="userSpaceOnUse">
<stop stop-color="#57FFB2"/>
<stop offset="0.405182" stop-color="#60C5B2"/>
<stop offset="0.648598" stop-color="#67CACA" stop-opacity="0.747681"/>
<stop offset="1" stop-color="#67CACA" stop-opacity="0"/>
</linearGradient>
</defs>
</svg>
