<svg width="108" height="104" viewBox="0 0 108 104" fill="none" xmlns="http://www.w3.org/2000/svg">
<path d="M67.5993 55.3798C67.5993 55.3798 70.9825 52.6658 73.5852 52.0402C76.288 51.3905 78.3316 51.302 80.5503 52.9768C81.9288 54.0173 83.0686 56.1129 83.0686 56.1129C83.0686 56.1129 79.9683 54.4833 77.9454 54.8671C76.7404 55.0957 76.009 55.3718 75.0989 56.194C72.5406 58.5052 80.9224 56.2071 83.6773 58.28C86.3835 60.3161 88.0378 65.776 88.0378 65.776C88.0378 65.776 83.8368 61.3585 80.6411 62.4631C79.681 62.7949 79.6229 62.5952 79.131 63.4839C78.1798 65.2021 80.4216 63.4683 82.2287 64.2372C85.7049 65.7162 88.8021 67.5282 89.8865 71.1469C90.7595 74.0599 89.0144 78.8848 89.0144 78.8848C89.0144 78.8848 85.6313 73.9931 82.6929 71.6691C80.2321 69.7228 75.4378 67.2549 75.7083 67.6992C77.4251 70.519 80.3001 70.3158 82.4032 72.8605C84.6569 75.5874 86.6943 77.4925 86.3516 81.0135C86.2588 81.9667 86.0929 82.494 85.7722 83.3964C85.2038 84.9954 83.5957 87.1575 83.5957 87.1575C83.5957 87.1575 81.7682 80.9084 78.3754 80.0834C77.6606 79.9096 83.7632 85.638 81.3127 88.2429C80.3835 89.2306 79.6063 89.7343 78.2602 89.8982C74.6401 90.339 77.0292 83.0408 75.1328 79.9259C74.5917 79.0372 75.7969 90.6873 75.7969 90.6873C75.7969 90.6873 71.7178 87.1691 70.8472 84.0575C69.9986 81.0249 72.6629 74.1612 69.8709 75.6178C67.9138 76.6388 68.6831 80.5027 69.0437 81.0952C69.4044 81.6877 63.7177 80.6834 63.9205 79.8494C64.1233 79.0154 71.4032 68.7976 68.3442 69.4418C65.2851 70.086 63.6917 76.639 63.373 77.9496C63.0543 79.2602 59.0342 75.5659 58.6713 72.8944C58.2977 70.1436 61.6076 67.0466 62.0809 66.6569C62.5542 66.2672 65.7871 64.9081 65.5713 63.7199C65.3555 62.5318 62.1345 64.8753 60.2938 66.2223C57.4725 68.2868 55.6188 74.5497 55.6188 74.5497C55.6188 74.5497 54.4136 70.9281 54.0986 69.3849C53.6894 67.3806 52.4632 66.4168 52.7877 64.3971C53.3421 60.9457 63.4185 61.5409 60.5187 59.589C58.03 57.9138 53.3092 62.2525 53.3092 62.2525C53.3092 62.2525 51.475 56.9872 53.7369 54.7851C56.0752 52.5085 59.2468 52.7706 62.2378 54.0761C65.8229 55.6408 66.0508 59.6723 67.558 62.815C69.884 67.6649 72.8463 75.8366 72.8463 75.8366C72.8463 75.8366 72.01 62.9157 66.7012 59.0733C63.3264 56.6307 61.5494 56.8391 57.4112 57.319C49.049 58.2888 44.0716 73.2561 44.0716 73.2561L36.6312 90.88C36.6312 90.88 40.4346 87.6766 41.2613 84.8131C44.4612 73.7294 43.5772 67.5426 46.5531 56.8239C49.4021 46.562 54.0966 41.3703 55.9345 31.2173C56.8311 26.2646 54.2463 18.4402 54.2463 18.4402C54.2463 18.4402 53.3935 15.254 51.7247 14.7984C50.2257 14.3892 49.394 15.5028 47.9863 16.1608C41.4481 19.217 35.8831 30.1271 35.8831 30.1271C35.8831 30.1271 44.1838 21.4194 49.8347 16.8626C51.8476 15.2395 51.6364 13.3647 51.045 10.8475C50.2009 7.25444 46.9112 6.51101 43.4549 5.21611C40.2398 4.01154 38.019 3.44941 34.706 4.35053C30.806 5.4113 29.2436 7.80079 26.7786 11.0037C25.7904 12.2878 24.5409 14.4977 24.5409 14.4977C24.5409 14.4977 28.2564 11.3884 31.7762 11.2095C34.6934 11.0612 40.1942 11.5688 40.0648 14.4869C39.2759 15.6652 37.5542 14.0611 36.1363 14.0364C34.1623 14.002 33.0361 13.7948 31.0808 14.0689C28.2003 14.4729 26.0509 14.4134 24.0484 16.5231C21.8727 18.8154 22.1362 24.3867 22.1362 24.3867C22.1362 24.3867 26.4658 20.8269 29.7481 19.5496C33.1057 18.2431 42.0473 19.6122 38.8383 17.9743C37.6014 17.3431 37.2841 16.5859 36.0979 17.308C31.6544 20.0131 27.9673 20.1136 27.3398 24.2639C27.1135 25.7612 27.2905 26.6601 27.6621 28.128C28.4021 31.051 31.5655 31.587 31.897 34.5839C32.113 36.5376 30.9474 39.5268 30.9474 39.5268C30.9474 39.5268 33.6782 37.4333 35.7483 36.9086C39.6473 35.9201 45.7565 39.3422 45.7565 39.3422C45.7565 39.3422 45.981 34.2119 45.9104 30.925C45.8665 28.8798 43.7756 25.9926 45.3948 24.7425C48.6655 24.4377 50.2779 29.7917 50.058 33.0692C49.8704 35.8665 47.1862 39.6899 47.1862 39.6899C47.1862 39.6899 50.8306 39.4176 52.116 38.6173C57.8838 35.0261 51.2905 21.2547 50.5209 21.8247C49.7514 22.3947 55.4916 27.3424 57.0101 31.9836C58.0293 35.0986 58.669 40.2107 58.669 40.2107C58.669 40.2107 63.2563 36.6303 63.6789 33.1005C64.0835 29.7217 62.9608 28.5374 60.7482 25.9521C58.1586 22.9265 52.2918 19.7316 52.2918 19.7316C52.2918 19.7316 56.0962 20.476 58.2813 21.5666C60.1041 22.4763 61.0954 23.1874 62.4354 24.7219C64.0889 26.6154 64.8186 29.9705 64.8186 29.9705C64.8186 29.9705 68.3763 25.3944 68.1862 21.8299C68.0102 18.5292 67.785 15.9938 64.9849 14.2372C61.3719 11.9705 57.8167 10.9791 53.9432 12.9403" stroke="url(#paint0_linear)"/>
<path opacity="0.4" d="M69.316 55.8702C69.316 55.8702 72.6991 53.1562 75.3018 52.5305C78.0046 51.8809 80.0482 51.7924 82.2669 53.4671C83.6454 54.5077 84.7852 56.6033 84.7852 56.6033C84.7852 56.6033 81.685 54.9737 79.662 55.3575C78.457 55.5861 77.7256 55.8622 76.8156 56.6843C74.2572 58.9956 82.639 56.6975 85.394 58.7703C88.1001 60.8065 89.7545 66.2663 89.7545 66.2663C89.7545 66.2663 85.5534 61.8488 82.3577 62.9534C81.3977 63.2853 81.3396 63.0856 80.8476 63.9743C79.8964 65.6924 82.1383 63.9587 83.9454 64.7276C87.4215 66.2066 90.5187 68.0185 91.6032 71.6373C92.4761 74.5503 90.7311 79.3752 90.7311 79.3752C90.7311 79.3752 87.348 74.4834 84.4096 72.1594C81.9487 70.2132 77.1544 67.7452 77.425 68.1896C79.1417 71.0094 82.0168 70.8062 84.1198 73.3509C86.3735 76.0778 88.4109 77.9828 88.0682 81.5038C87.9755 82.457 87.8095 82.9843 87.4888 83.8867C86.9205 85.4858 85.3123 87.6479 85.3123 87.6479C85.3123 87.6479 83.4848 81.3988 80.092 80.5738C79.3772 80.4 85.4798 86.1284 83.0293 88.7332C82.1001 89.7209 81.323 90.2246 79.9768 90.3885C76.3568 90.8294 78.7458 83.5312 76.8494 80.4162C76.3084 79.5275 77.5135 91.1776 77.5135 91.1776C77.5135 91.1776 73.4344 87.6594 72.5638 84.5479C71.7153 81.5152 74.3796 74.6516 71.5875 76.1081C69.6304 77.1291 70.3997 80.9931 70.7604 81.5855C71.121 82.178 65.4343 81.1737 65.6372 80.3397C65.84 79.5057 73.1198 69.2879 70.0608 69.9322C67.0018 70.5764 65.4083 77.1293 65.0896 78.4399C64.7709 79.7505 60.7508 76.0563 60.3879 73.3848C60.0143 70.634 63.3242 67.5369 63.7976 67.1472C64.2709 66.7576 67.5037 65.3985 67.2879 64.2103C67.0721 63.0221 63.8511 65.3657 62.0104 66.7127C59.1892 68.7771 57.3354 75.0401 57.3354 75.0401C57.3354 75.0401 56.1302 71.4185 55.8152 69.8752C55.406 67.8709 54.1798 66.9072 54.5043 64.8874C55.0587 61.4361 65.1352 62.0312 62.2353 60.0793C59.7466 58.4042 55.0258 62.7428 55.0258 62.7428C55.0258 62.7428 53.1917 57.4775 55.4535 55.2755C57.7919 52.9989 60.9634 53.261 63.9545 54.5664C67.5395 56.1312 67.7674 60.1626 69.2746 63.3053C71.6006 68.1553 74.5629 76.3269 74.5629 76.3269C74.5629 76.3269 73.7266 63.406 68.4178 59.5637C65.043 57.1211 63.266 57.3295 59.1278 57.8094C50.7656 58.7791 45.7882 73.7464 45.7882 73.7464L38.3479 91.3704C38.3479 91.3704 42.1512 88.1669 42.9779 85.3035C46.1778 74.2198 45.2938 68.0329 48.2697 57.3143C51.1187 47.0524 55.8132 41.8606 57.6512 31.7076C58.5477 26.755 55.9629 18.9305 55.9629 18.9305C55.9629 18.9305 55.1101 15.7444 53.4414 15.2888C51.9424 14.8795 51.1106 15.9932 49.703 16.6512C43.1648 19.7074 37.5997 30.6174 37.5997 30.6174C37.5997 30.6174 45.9004 21.9098 51.5513 17.353C53.5642 15.7299 53.3531 13.8551 52.7617 11.3378C51.9175 7.7448 48.6278 7.00137 45.1716 5.70646C41.9564 4.50189 39.7356 3.93976 36.4226 4.84088C32.5226 5.90165 30.9602 8.29114 28.4952 11.4941C27.507 12.7782 26.2575 14.988 26.2575 14.988C26.2575 14.988 29.973 11.8788 33.4928 11.6998C36.41 11.5515 41.9108 12.0592 41.7815 14.9773C40.9925 16.1556 39.2708 14.5514 37.853 14.5267C35.8789 14.4924 34.7527 14.2851 32.7975 14.5593C29.9169 14.9632 27.7675 14.9038 25.765 17.0135C23.5893 19.3057 23.8528 24.877 23.8528 24.877C23.8528 24.877 28.1825 21.3172 31.4647 20.04C34.8223 18.7334 43.7639 20.1025 40.5549 18.4647C39.318 17.8334 39.0007 17.0762 37.8146 17.7983C33.371 20.5035 29.6839 20.604 29.0565 24.7543C28.8301 26.2515 29.0072 27.1504 29.3788 28.6184C30.1187 31.5414 33.2821 32.0774 33.6136 35.0743C33.8297 37.028 32.664 40.0172 32.664 40.0172C32.664 40.0172 35.3949 37.9237 37.465 37.3989C41.3639 36.4105 47.4731 39.8326 47.4731 39.8326C47.4731 39.8326 47.6976 34.7022 47.6271 31.4153C47.5832 29.3701 45.4923 26.483 47.1114 25.2328C50.3821 24.928 51.9945 30.282 51.7747 33.5596C51.587 36.3569 48.9028 40.1802 48.9028 40.1802C48.9028 40.1802 52.5472 39.908 53.8327 39.1076C59.6005 35.5165 53.0071 21.7451 52.2376 22.3151C51.468 22.8851 57.2082 27.8327 58.7267 32.4739C59.7459 35.589 60.3856 40.7011 60.3856 40.7011C60.3856 40.7011 64.9729 37.1207 65.3955 33.5908C65.8001 30.2121 64.6774 29.0278 62.4648 26.4425C59.8752 23.4168 54.0085 20.2219 54.0085 20.2219C54.0085 20.2219 57.8128 20.9664 59.9979 22.0569C61.8207 22.9666 62.812 23.6778 64.152 25.2123C65.8055 27.1058 66.5352 30.4608 66.5352 30.4608C66.5352 30.4608 70.093 25.8848 69.9028 22.3203C69.7268 19.0195 69.5016 16.4842 66.7016 14.7276C63.0885 12.4609 59.5333 11.4694 55.6599 13.4307" stroke="url(#paint1_linear)"/>
<defs>
<linearGradient id="paint0_linear" x1="84.1969" y1="18.4165" x2="28.8006" y2="88.9882" gradientUnits="userSpaceOnUse">
<stop stop-color="#5E19E4"/>
<stop offset="0.0001" stop-color="#57FFB2"/>
<stop offset="0.656644" stop-color="#5E19E4"/>
<stop offset="1" stop-color="#902EAA" stop-opacity="0.37"/>
</linearGradient>
<linearGradient id="paint1_linear" x1="85.9135" y1="18.9069" x2="30.5173" y2="89.4786" gradientUnits="userSpaceOnUse">
<stop stop-color="#5E19E4"/>
<stop offset="0.0001" stop-color="#57FFB2"/>
<stop offset="0.656644" stop-color="#5E19E4"/>
<stop offset="1" stop-color="#902EAA" stop-opacity="0.37"/>
</linearGradient>
</defs>
</svg>
