<svg width="110" height="96" viewBox="0 0 110 96" fill="none" xmlns="http://www.w3.org/2000/svg">
<path d="M26.9469 27.2611C23.0667 28.4244 20.7075 30.9 17.9152 33.8347C13.5926 38.3777 11.1182 41.3523 11.174 47.6229C11.2118 51.861 12.3904 54.3324 14.6976 57.8876C17.4951 62.1985 20.2794 63.8701 24.7907 66.3314C31.9498 70.2373 37.4351 68.0696 45.3241 70.137C49.8454 71.3218 54.8293 75.0612 56.7646 73.6526C58.7 72.2439 56.9268 57.2586 55.936 53.5315C54.495 48.111 52.8958 43.9309 49.5952 39.3961C49.5952 39.3961 45.1429 32.2361 40.3228 29.3681C35.7784 26.6641 32.0122 25.7425 26.9469 27.2611Z" stroke="url(#paint0_linear)"/>
<path d="M24.9544 32.6588C21.0742 33.8221 18.7149 36.2977 15.9227 39.2324C11.6001 43.7754 9.1256 46.75 9.18149 53.0206C9.21926 57.2587 10.3978 59.7301 12.705 63.2853C15.5026 67.5962 18.2868 69.2678 22.7981 71.7291C29.9573 75.635 35.4426 73.4673 43.3315 75.5347C47.8528 76.7195 52.8367 80.4589 54.7721 79.0503C56.7074 77.6416 54.9342 62.6563 53.9434 58.9292C52.5024 53.5087 50.9032 49.3286 47.6027 44.7938C47.6027 44.7938 43.1503 37.6338 38.3303 34.7658C33.7858 32.0618 30.0196 31.1402 24.9544 32.6588Z" stroke="url(#paint1_linear)" stroke-opacity="0.4"/>
<path d="M70.5009 13.2977C67.9081 13.0754 65.9136 13.9964 63.5519 15.0893C59.8959 16.7812 57.7146 17.9731 56.2657 21.732C55.2864 24.2725 55.4062 26.0274 55.9439 28.6965C56.5959 31.9329 57.8639 33.5896 59.9768 36.1262C63.33 40.1518 67.119 40.1536 71.3426 43.2535C73.7633 45.0301 75.8564 48.4419 77.3455 48.058C78.8345 47.674 81.3178 38.3035 81.607 35.843C82.0276 32.2644 82.0605 29.3894 81.161 25.9004C81.161 25.9004 80.194 20.5709 77.9928 17.7183C75.9174 15.0288 73.8856 13.588 70.5009 13.2977Z" stroke="url(#paint2_linear)"/>
<path d="M68.0346 16.0509C65.4419 15.8286 63.4474 16.7496 61.0857 17.8425C57.4297 19.5344 55.2484 20.7263 53.7994 24.4852C52.8202 27.0257 52.9399 28.7806 53.4777 31.4497C54.1297 34.686 55.3977 36.3428 57.5106 38.8794C60.8637 42.905 64.6527 42.9068 68.8764 46.0066C71.2971 47.7832 73.3902 51.195 74.8792 50.8111C76.3683 50.4272 78.8516 41.0567 79.1408 38.5961C79.5614 35.0176 79.5943 32.1426 78.6947 28.6535C78.6947 28.6535 77.7278 23.3241 75.5265 20.4715C73.4512 17.782 71.4193 16.3412 68.0346 16.0509Z" stroke="url(#paint3_linear)" stroke-opacity="0.4"/>
<path d="M85.8811 38.322C88.6783 38.0821 90.83 39.0758 93.3778 40.2548C97.322 42.0801 99.6753 43.366 101.238 47.4211C102.295 50.1619 102.166 52.0552 101.586 54.9346C100.882 58.4261 99.5142 60.2134 97.2347 62.9501C93.6173 67.2929 89.5296 67.2949 84.973 70.6391C82.3615 72.5557 80.1034 76.2365 78.4969 75.8223C76.8905 75.4082 74.2115 65.2989 73.8995 62.6444C73.4457 58.7838 73.4102 55.6822 74.3807 51.9181C74.3807 51.9181 75.4239 46.1685 77.7986 43.091C80.0376 40.1896 82.2296 38.6352 85.8811 38.322Z" stroke="url(#paint4_linear)"/>
<path d="M88.5418 41.2922C91.3389 41.0523 93.4906 42.046 96.0385 43.225C99.9827 45.0503 102.336 46.3362 103.899 50.3914C104.956 53.1321 104.826 55.0254 104.246 57.9048C103.543 61.3963 102.175 63.1836 99.8954 65.9203C96.2779 70.2631 92.1902 70.2651 87.6336 73.6093C85.0221 75.5259 82.764 79.2067 81.1576 78.7925C79.5512 78.3784 76.8721 68.2692 76.5601 65.6146C76.1063 61.754 76.0709 58.6524 77.0413 54.8883C77.0413 54.8883 78.0845 49.1387 80.4593 46.0613C82.6982 43.1598 84.8903 41.6054 88.5418 41.2922Z" stroke="url(#paint5_linear)" stroke-opacity="0.4"/>
<defs>
<linearGradient id="paint0_linear" x1="24.4236" y1="25.1502" x2="45.6832" y2="89.6129" gradientUnits="userSpaceOnUse">
<stop stop-color="#58FFB3"/>
<stop offset="0.474005" stop-color="#5E19E4"/>
<stop offset="1" stop-color="#902EAA" stop-opacity="0.37"/>
</linearGradient>
<linearGradient id="paint1_linear" x1="22.4311" y1="30.5479" x2="43.6906" y2="95.0106" gradientUnits="userSpaceOnUse">
<stop stop-color="#58FFB3"/>
<stop offset="0.474005" stop-color="#5E19E4"/>
<stop offset="1" stop-color="#902EAA" stop-opacity="0.37"/>
</linearGradient>
<linearGradient id="paint2_linear" x1="69.4926" y1="11.4403" x2="66.9531" y2="54.9721" gradientUnits="userSpaceOnUse">
<stop stop-color="#58FFB3"/>
<stop offset="0.474005" stop-color="#5E19E4"/>
<stop offset="1" stop-color="#902EAA" stop-opacity="0.37"/>
</linearGradient>
<linearGradient id="paint3_linear" x1="67.0264" y1="14.1935" x2="64.4869" y2="57.7253" gradientUnits="userSpaceOnUse">
<stop stop-color="#58FFB3"/>
<stop offset="0.474005" stop-color="#5E19E4"/>
<stop offset="1" stop-color="#902EAA" stop-opacity="0.37"/>
</linearGradient>
<linearGradient id="paint4_linear" x1="86.9688" y1="36.3182" x2="89.7085" y2="83.2815" gradientUnits="userSpaceOnUse">
<stop stop-color="#58FFB3"/>
<stop offset="0.474005" stop-color="#5E19E4"/>
<stop offset="1" stop-color="#902EAA" stop-opacity="0.37"/>
</linearGradient>
<linearGradient id="paint5_linear" x1="89.6295" y1="39.2884" x2="92.3692" y2="86.2517" gradientUnits="userSpaceOnUse">
<stop stop-color="#58FFB3"/>
<stop offset="0.474005" stop-color="#5E19E4"/>
<stop offset="1" stop-color="#902EAA" stop-opacity="0.37"/>
</linearGradient>
</defs>
</svg>
