<svg width="531" height="484" viewBox="0 0 531 484" fill="none" xmlns="http://www.w3.org/2000/svg">
<path opacity="0.5" d="M448.388 423.886L416.047 409.009C415.032 408.503 414.145 407.187 414.145 406.074V371.663C414.145 370.549 415.032 370.043 416.047 370.448L448.388 385.326C449.403 385.832 450.29 387.148 450.29 388.261V422.672C450.417 423.886 449.529 424.392 448.388 423.886Z" fill="url(#paint0_linear)"/>
<path d="M327.896 290.913C327.404 292.102 327.713 293.474 328.676 294.327C340.624 304.915 353.532 316.242 363.437 324.904C364.939 326.217 367.279 325.72 367.939 323.837C376.025 300.767 363.145 270.242 347.887 245.958C346.507 243.762 343.205 244.315 342.533 246.82C338.793 260.756 334.211 275.633 327.896 290.913Z" fill="url(#paint1_linear)" fill-opacity="0.4"/>
<path d="M245.932 207.545C245.581 205.579 243.391 204.593 241.627 205.707C224.68 216.415 213.554 233.974 220.049 265.511C220.315 266.798 221.445 267.698 222.787 267.705C232.417 267.754 244.952 267.832 256.884 267.824C258.936 267.822 260.495 265.826 259.955 263.897C254.125 243.066 249.119 225.392 245.932 207.545Z" fill="url(#paint2_linear)" fill-opacity="0.4"/>
<path opacity="0.3" d="M282.979 325.478C281.412 324.854 280.151 323.527 279.56 321.947C181.352 59.3894 284.781 25.7859 293.846 28.0722C318.874 30.9733 405.414 147.81 309.563 330.257C308.146 332.953 304.878 334.198 302.049 333.071L282.979 325.478Z" fill="url(#paint3_linear)"/>
<path opacity="0.3" d="M303.178 333.753C305.055 334.492 307.221 333.664 308.174 331.886C402.151 156.53 324.075 36.2524 296.605 28.4312C294.657 27.8767 293.148 29.5966 293.148 31.6216V327.078C293.148 328.721 294.153 330.197 295.682 330.799L303.178 333.753Z" fill="url(#paint4_linear)"/>
<path opacity="0.6" d="M323.439 121.272C323.439 137.589 309.593 145.267 292.49 138.435C275.387 131.604 261.541 112.803 261.541 96.4857C261.541 80.1688 275.387 72.4903 292.49 79.3219C309.593 86.1536 323.439 104.955 323.439 121.272Z" fill="white"/>
<path opacity="0.3" d="M311.182 374.844C305.517 369.615 302.937 362.959 300.664 357.117C298.02 350.388 295.81 344.657 289.799 343.246C282.92 341.617 279.661 345.86 275.06 351.741C272.369 355.203 269.183 359.297 264.594 363.066C259.913 360.313 254.945 358.044 249.684 356.406C227.642 349.453 208.811 355.674 203.881 370.303C200.896 369.06 197.906 367.928 194.844 366.945C159.484 355.806 130.02 368.832 128.993 396.111C127.968 423.353 137.578 425.609 172.87 436.748C207.164 447.559 172.87 444.056 255.043 461.805C261.329 468.439 265.537 463.518 275.06 466.503C277.524 467.267 311.182 466.503 311.182 466.503C324.433 483.214 331.697 473.811 359.292 473.811C367.264 478.509 461.328 493.39 462.589 461.663C463.784 429.936 424.272 372.867 348.529 384.926C331.358 366.945 322.352 373.447 311.182 374.844Z" fill="url(#paint5_linear)"/>
<path opacity="0.8" d="M463.201 272.918C463.202 270.561 461.831 268.399 459.636 267.543C452.795 264.877 446.076 263.507 439.754 263.484C432.336 263.457 425.568 265.311 419.86 268.939C414.151 272.567 409.639 277.86 406.563 284.551C403.945 290.244 402.392 296.871 401.987 304.117C401.855 306.468 403.258 308.608 405.403 309.58L454.696 331.927C458.667 333.727 463.171 330.825 463.173 326.465L463.201 272.918Z" fill="url(#paint6_linear)"/>
<path opacity="0.4" d="M414.911 320.843C412.261 319.623 409.26 321.562 409.492 324.47C410.412 335.992 413.826 348.273 419.466 360.187C426.137 374.28 435.619 387.239 446.693 397.417C457.767 407.595 469.992 414.534 481.777 417.369C493.562 420.203 504.364 418.8 512.864 413.319C521.364 407.838 527.121 398.551 529.492 386.645C531.829 374.712 530.643 360.673 526.038 346.31C521.432 331.947 513.677 317.881 503.687 305.921C495.243 295.812 485.564 287.573 475.51 281.939C472.968 280.515 469.958 282.431 469.958 285.345V339.931C469.958 342.848 466.936 344.784 464.286 343.565L414.911 320.843Z" fill="url(#paint7_linear)" fill-opacity="0.4"/>
<path opacity="0.2" d="M512.514 174.138L496.059 166.571C495.543 166.313 495.091 165.644 495.091 165.078V147.575C495.091 147.008 495.543 146.751 496.059 146.957L512.514 154.524C513.03 154.782 513.482 155.451 513.482 156.017V173.52C513.546 174.138 513.094 174.396 512.514 174.138Z" fill="url(#paint8_linear)"/>
<path opacity="0.5" d="M425.085 130.489L392.744 115.612C391.73 115.106 390.842 113.79 390.842 112.677V78.2658C390.842 77.1525 391.73 76.6465 392.744 77.0513L425.085 91.929C426.1 92.435 426.988 93.7507 426.988 94.864V129.275C427.115 130.489 426.227 130.995 425.085 130.489Z" fill="url(#paint9_linear)"/>
<path opacity="0.5" d="M99.0016 195.831L79.2558 186.299C78.6363 185.975 78.0942 185.132 78.0942 184.418V162.37C78.0942 161.657 78.6363 161.333 79.2558 161.592L99.0016 171.125C99.6211 171.449 100.163 172.292 100.163 173.005V195.053C100.241 195.831 99.6985 196.156 99.0016 195.831Z" fill="url(#paint10_linear)"/>
<path opacity="0.5" d="M146.834 254.297L127.088 244.765C126.468 244.44 125.926 243.597 125.926 242.884V220.836C125.926 220.123 126.468 219.798 127.088 220.058L146.834 229.59C147.453 229.915 147.995 230.758 147.995 231.471V253.519C148.073 254.297 147.531 254.622 146.834 254.297Z" fill="url(#paint11_linear)"/>
<path opacity="0.5" d="M213.965 345.102L188.734 333.547C187.942 333.154 187.25 332.132 187.25 331.268V304.542C187.25 303.678 187.942 303.285 188.734 303.599L213.965 315.154C214.756 315.547 215.449 316.569 215.449 317.433V344.159C215.548 345.102 214.855 345.495 213.965 345.102Z" fill="url(#paint12_linear)"/>
<path opacity="0.5" d="M475.265 221.956L451.131 210.875C450.374 210.498 449.711 209.518 449.711 208.689V183.06C449.711 182.231 450.374 181.854 451.131 182.155L475.265 193.236C476.022 193.613 476.685 194.593 476.685 195.422V221.052C476.779 221.956 476.117 222.333 475.265 221.956Z" fill="url(#paint13_linear)"/>
<path opacity="0.3" d="M239.438 306.78C239.438 304.827 238.301 303.053 236.527 302.237L7.92216 197.13C4.60811 195.607 0.830517 198.03 0.83347 201.677L0.904735 289.71C0.906315 291.662 2.04313 293.434 3.81623 294.249L218.431 392.913L232.123 400.063C235.452 401.802 239.438 399.387 239.438 395.631V306.78Z" fill="url(#paint14_linear)"/>
<path opacity="0.3" d="M178.102 306.983C178.102 305.81 177.419 304.746 176.354 304.256L130.078 283.002C128.09 282.089 125.826 283.541 125.826 285.728V287.81C125.826 288.982 126.508 290.047 127.574 290.536L173.85 311.791C175.837 312.704 178.102 311.252 178.102 309.065V306.983Z" fill="white"/>
<path opacity="0.3" d="M178.101 331.138C178.101 329.966 177.419 328.901 176.354 328.412L52.8662 271.654C50.8787 270.741 48.6133 272.193 48.6133 274.38V276.461C48.6133 277.633 49.2956 278.698 50.3604 279.187L173.848 335.945C175.836 336.858 178.101 335.406 178.101 333.219V331.138Z" fill="white"/>
<path opacity="0.3" d="M178.102 348.57C178.102 347.398 177.42 346.334 176.355 345.845L26.1677 276.764C24.1802 275.85 21.9141 277.302 21.9141 279.49V281.57C21.9141 282.742 22.5961 283.806 23.6604 284.296L173.848 353.376C175.835 354.29 178.102 352.838 178.102 350.65V348.57Z" fill="white"/>
<path opacity="0.2" d="M117.34 196.254L92.1626 184.681V177.935L117.34 189.507C119.399 190.444 122.399 192.365 124.928 195.317C127.693 198.456 129.634 202.438 129.634 206.748C129.634 211.527 128.105 214.245 125.222 214.994C122.516 215.697 119.281 214.479 117.34 213.589L106.987 208.81L106.928 208.763C106.045 208.341 104.634 207.92 103.516 208.201C102.575 208.435 101.575 209.138 101.575 211.808C101.575 214.479 102.633 216.072 103.457 217.056C104.516 218.274 105.928 219.117 106.81 219.492L106.928 219.539L138.576 234.109V240.856L107.163 226.379C104.986 225.489 101.869 223.568 99.1628 220.569C96.2215 217.243 94.2215 213.073 94.2215 208.435C94.2215 203.797 96.2215 201.454 99.104 200.798C101.81 200.189 104.928 201.079 107.104 202.11L117.34 206.842C118.81 207.545 119.928 207.826 120.693 207.639C121.281 207.498 122.34 206.842 122.34 203.422C122.34 201.173 121.458 199.721 120.575 198.784C119.516 197.519 118.163 196.628 117.34 196.254Z" fill="url(#paint15_linear)"/>
<g filter="url(#filter0_d)">
<path d="M176.88 108.562C176.848 106.76 174.939 104.44 172.617 103.379C170.295 102.318 168.439 102.919 168.472 104.72L176.88 108.562ZM168.986 133.433C169.018 135.235 170.927 137.555 173.249 138.616C175.571 139.676 177.427 139.076 177.395 137.275L168.986 133.433ZM185.297 125.495C186.818 127.556 189.474 128.943 191.228 128.593C192.983 128.243 193.172 126.289 191.651 124.228L185.297 125.495ZM172.617 103.378L175.794 102.744L172.527 98.3174L169.365 99.8072L172.617 103.378ZM154.023 107.037C152.551 107.73 152.814 109.891 154.61 111.864C156.406 113.836 159.055 114.872 160.527 114.178L154.023 107.037ZM178.844 160.461L178.903 163.722L178.903 163.722L178.844 160.461ZM223.237 180.742L223.184 177.483L223.178 177.48L223.237 180.742ZM223.303 180.772L223.356 184.031L223.361 184.034L223.303 180.772ZM225.778 130.439L221.621 128.981L222.097 131.617L225.243 133.398L225.778 130.439ZM134.912 75.1996L133.648 77.6934L137.254 80.2544L138.766 78.2948L134.912 75.1996ZM126.352 136.478L126.293 133.217L126.287 133.214L126.352 136.478ZM168.472 104.72L168.986 133.433L177.395 137.275L176.88 108.562L168.472 104.72ZM191.651 124.228L175.794 102.744L169.441 104.012L185.297 125.495L191.651 124.228ZM169.365 99.8072L154.023 107.037L160.527 114.178L175.869 106.949L169.365 99.8072ZM223.25 177.513L223.184 177.483L223.289 184.001L223.356 184.031L223.25 177.513ZM246.924 165.739C247.159 178.862 235.903 183.294 223.244 177.51L223.361 184.034C241.953 192.527 255.612 185.218 255.332 169.581L246.924 165.739ZM225.243 133.398C236.725 139.898 246.707 153.629 246.924 165.739L255.332 169.581C255.072 155.052 242.925 136.886 226.312 127.48L225.243 133.398ZM177.303 74.4506C198.758 84.2526 217.702 107.307 221.621 128.981L229.935 131.897C225.564 107.726 203.936 80.1484 177.186 67.9273L177.303 74.4506ZM138.766 78.2948C146.186 68.6775 160.804 66.9127 177.303 74.4506L177.186 67.9273C156.693 58.5645 139.496 61.1666 131.058 72.1045L138.766 78.2948ZM136.176 72.7058C132.631 70.188 128.894 67.9996 125.044 66.2406L125.161 72.764C128.093 74.1033 130.937 75.7682 133.648 77.6934L136.176 72.7058ZM125.044 66.2406C101.989 55.7073 84.7695 64.6941 85.1234 84.4399L93.5318 88.2814C93.2229 71.0497 108.038 64.941 125.161 72.764L125.044 66.2406ZM85.1234 84.4399C85.4773 104.186 103.305 129.184 126.361 139.718L126.244 133.194C109.121 125.371 93.8406 105.513 93.5318 88.2814L85.1234 84.4399ZM126.361 139.718C126.38 139.726 126.398 139.735 126.417 139.743L126.287 133.214C126.273 133.207 126.258 133.201 126.244 133.194L126.361 139.718ZM178.786 157.199L126.293 133.217L126.41 139.74L178.903 163.722L178.786 157.199ZM223.178 177.48L178.786 157.199L178.903 163.722L223.295 184.003L223.178 177.48Z" fill="url(#paint16_linear)" fill-opacity="0.5"/>
</g>
<path opacity="0.2" d="M91.8374 27.9733L75.3825 20.4058C74.8663 20.1484 74.4146 19.4792 74.4146 18.9129V1.40987C74.4146 0.843594 74.8663 0.586198 75.3825 0.792116L91.8374 8.35962C92.3536 8.61702 92.8053 9.28625 92.8053 9.85253V27.3556C92.8698 27.9734 92.4181 28.2307 91.8374 27.9733Z" fill="url(#paint17_linear)"/>
<defs>
<filter id="filter0_d" x="85.1182" y="61.7878" width="210.218" height="165.831" filterUnits="userSpaceOnUse" color-interpolation-filters="sRGB">
<feFlood flood-opacity="0" result="BackgroundImageFix"/>
<feColorMatrix in="SourceAlpha" type="matrix" values="0 0 0 0 0 0 0 0 0 0 0 0 0 0 0 0 0 0 127 0"/>
<feOffset dx="20" dy="20"/>
<feGaussianBlur stdDeviation="10"/>
<feColorMatrix type="matrix" values="0 0 0 0 0 0 0 0 0 0 0 0 0 0 0 0 0 0 0.15 0"/>
<feBlend mode="normal" in2="BackgroundImageFix" result="effect1_dropShadow"/>
<feBlend mode="normal" in="SourceGraphic" in2="effect1_dropShadow" result="shape"/>
</filter>
<linearGradient id="paint0_linear" x1="413.065" y1="352.742" x2="450.463" y2="351.874" gradientUnits="userSpaceOnUse">
<stop stop-color="#23A1FD" stop-opacity="0.24"/>
<stop offset="0.651042" stop-color="#23A1FD" stop-opacity="0.65"/>
<stop offset="1" stop-color="#23A1FD" stop-opacity="0.96"/>
</linearGradient>
<linearGradient id="paint1_linear" x1="370.838" y1="282.004" x2="328.849" y2="304.142" gradientUnits="userSpaceOnUse">
<stop stop-color="white" stop-opacity="0"/>
<stop offset="0.0001" stop-color="#00AEEA"/>
<stop offset="0.0002" stop-color="#00AEEA"/>
<stop offset="0.0003" stop-color="#23A1FD"/>
<stop offset="1" stop-color="#23A1FD"/>
</linearGradient>
<linearGradient id="paint2_linear" x1="265.178" y1="235.975" x2="225.072" y2="259.409" gradientUnits="userSpaceOnUse">
<stop stop-color="white" stop-opacity="0"/>
<stop offset="0.0001" stop-color="#00AEEA"/>
<stop offset="0.0002" stop-color="#00AEEA"/>
<stop offset="0.0003" stop-color="#23A1FD"/>
<stop offset="1" stop-color="#23A1FD"/>
</linearGradient>
<linearGradient id="paint3_linear" x1="410.236" y1="37.4639" x2="272.345" y2="383.196" gradientUnits="userSpaceOnUse">
<stop stop-color="#48BAF8"/>
<stop offset="1" stop-color="#23A2FD"/>
</linearGradient>
<linearGradient id="paint4_linear" x1="354.566" y1="142.423" x2="251.518" y2="380.976" gradientUnits="userSpaceOnUse">
<stop stop-color="#23A1FD"/>
<stop offset="1" stop-color="white"/>
</linearGradient>
<linearGradient id="paint5_linear" x1="298.754" y1="327.38" x2="267.919" y2="460.749" gradientUnits="userSpaceOnUse">
<stop stop-color="#008DF3"/>
<stop offset="1" stop-color="white" stop-opacity="0"/>
</linearGradient>
<linearGradient id="paint6_linear" x1="428.218" y1="264.601" x2="437.328" y2="333.44" gradientUnits="userSpaceOnUse">
<stop stop-color="#23A1FD" stop-opacity="0.39"/>
<stop offset="1" stop-color="#2F3675" stop-opacity="0.74"/>
</linearGradient>
<linearGradient id="paint7_linear" x1="420.277" y1="334.813" x2="536.893" y2="358.832" gradientUnits="userSpaceOnUse">
<stop stop-color="#23A1FD" stop-opacity="0.31"/>
<stop offset="1" stop-color="#23A1FD"/>
</linearGradient>
<linearGradient id="paint8_linear" x1="494.542" y1="137.95" x2="513.57" y2="137.509" gradientUnits="userSpaceOnUse">
<stop stop-color="#BFE4FF"/>
<stop offset="0.8124" stop-color="#23A1FD"/>
<stop offset="1" stop-color="#23A1FD"/>
</linearGradient>
<linearGradient id="paint9_linear" x1="389.763" y1="59.3446" x2="427.161" y2="58.4767" gradientUnits="userSpaceOnUse">
<stop stop-color="#23A1FD" stop-opacity="0.24"/>
<stop offset="0.651042" stop-color="#23A1FD" stop-opacity="0.65"/>
<stop offset="1" stop-color="#23A1FD" stop-opacity="0.96"/>
</linearGradient>
<linearGradient id="paint10_linear" x1="77.4354" y1="150.247" x2="100.27" y2="149.742" gradientUnits="userSpaceOnUse">
<stop stop-color="#23A1FD" stop-opacity="0.24"/>
<stop offset="0.651042" stop-color="#23A1FD" stop-opacity="0.65"/>
<stop offset="1" stop-color="#23A1FD" stop-opacity="0.96"/>
</linearGradient>
<linearGradient id="paint11_linear" x1="125.267" y1="208.712" x2="148.102" y2="208.207" gradientUnits="userSpaceOnUse">
<stop stop-color="#23A1FD" stop-opacity="0.24"/>
<stop offset="0.651042" stop-color="#23A1FD" stop-opacity="0.65"/>
<stop offset="1" stop-color="#23A1FD" stop-opacity="0.96"/>
</linearGradient>
<linearGradient id="paint12_linear" x1="186.408" y1="289.847" x2="215.583" y2="289.167" gradientUnits="userSpaceOnUse">
<stop stop-color="#23A1FD" stop-opacity="0.34"/>
<stop offset="1" stop-color="#4E5C8F"/>
</linearGradient>
<linearGradient id="paint13_linear" x1="448.906" y1="168.967" x2="476.813" y2="168.318" gradientUnits="userSpaceOnUse">
<stop stop-color="#23A1FD" stop-opacity="0.24"/>
<stop offset="0.651042" stop-color="#23A1FD" stop-opacity="0.65"/>
<stop offset="1" stop-color="#23A1FD" stop-opacity="0.96"/>
</linearGradient>
<linearGradient id="paint14_linear" x1="252.186" y1="368.839" x2="-14.8729" y2="210.75" gradientUnits="userSpaceOnUse">
<stop stop-color="#23A1FD"/>
<stop offset="1" stop-color="#23A1FD" stop-opacity="0.37"/>
</linearGradient>
<linearGradient id="paint15_linear" x1="112.097" y1="178.908" x2="121.167" y2="238.499" gradientUnits="userSpaceOnUse">
<stop stop-color="#5CCFD7"/>
<stop offset="1" stop-color="#23A2FD"/>
</linearGradient>
<linearGradient id="paint16_linear" x1="104.621" y1="101.73" x2="261.47" y2="89.8366" gradientUnits="userSpaceOnUse">
<stop stop-color="#00AEEA" stop-opacity="0.51"/>
<stop offset="1" stop-color="#2F3675"/>
</linearGradient>
<linearGradient id="paint17_linear" x1="73.8655" y1="-8.2144" x2="92.8933" y2="-8.65608" gradientUnits="userSpaceOnUse">
<stop stop-color="#BFE4FF"/>
<stop offset="0.8124" stop-color="#23A1FD"/>
<stop offset="1" stop-color="#23A1FD"/>
</linearGradient>
</defs>
</svg>
