<svg width="652" height="562" viewBox="0 0 652 562" fill="none" xmlns="http://www.w3.org/2000/svg">
<path opacity="0.5" fill-rule="evenodd" clip-rule="evenodd" d="M269.036 555.076L91.8525 475.492C88.7194 474.064 86.1265 470.282 86.1265 467.004V225.9C86.1265 222.623 88.7194 221.11 91.8525 222.539L269.036 302.122C272.169 303.551 274.762 307.333 274.762 310.61V551.715C274.762 554.992 272.169 556.505 269.036 555.076Z" fill="white"/>
<path opacity="0.75" fill-rule="evenodd" clip-rule="evenodd" d="M266.587 555.076L89.4033 475.492C86.2702 474.064 83.6772 470.282 83.6772 467.005V225.9C83.6772 222.623 86.2702 221.11 89.4033 222.539L266.587 302.122C269.72 303.551 272.313 307.333 272.313 310.61V551.715C272.421 554.992 269.828 556.421 266.587 555.076Z" fill="url(#paint0_linear)"/>
<path d="M154.328 472.642L154.317 472.635L154.305 472.63L98.0165 447.334L98.0166 447.334L98.0046 447.329C97.7489 447.23 97.4771 447.211 97.2542 447.332C97.0191 447.46 96.9077 447.706 96.9077 447.983C96.9077 448.253 97.0101 448.532 97.1667 448.764C97.3227 448.994 97.5468 449.199 97.817 449.306L154.1 474.599L154.1 474.599L154.112 474.603C154.367 474.703 154.639 474.722 154.862 474.601C155.097 474.472 155.208 474.227 155.208 473.95C155.208 473.713 155.099 473.453 154.949 473.232C154.796 473.006 154.581 472.789 154.328 472.642Z" fill="url(#paint1_linear)"/>
<path d="M154.328 472.642L154.317 472.635L154.305 472.63L98.0165 447.334L98.0166 447.334L98.0046 447.329C97.7489 447.23 97.4771 447.211 97.2542 447.332C97.0191 447.46 96.9077 447.706 96.9077 447.983C96.9077 448.253 97.0101 448.532 97.1667 448.764C97.3227 448.994 97.5468 449.199 97.817 449.306L154.1 474.599L154.1 474.599L154.112 474.603C154.367 474.703 154.639 474.722 154.862 474.601C155.097 474.472 155.208 474.227 155.208 473.95C155.208 473.713 155.099 473.453 154.949 473.232C154.796 473.006 154.581 472.789 154.328 472.642Z" stroke="white" stroke-width="0.5"/>
<path d="M154.328 472.642L154.317 472.635L154.305 472.63L98.0165 447.334L98.0166 447.334L98.0046 447.329C97.7489 447.23 97.4771 447.211 97.2542 447.332C97.0191 447.46 96.9077 447.706 96.9077 447.983C96.9077 448.253 97.0101 448.532 97.1667 448.764C97.3227 448.994 97.5468 449.199 97.817 449.306L154.1 474.599L154.1 474.599L154.112 474.603C154.367 474.703 154.639 474.722 154.862 474.601C155.097 474.472 155.208 474.227 155.208 473.95C155.208 473.713 155.099 473.453 154.949 473.232C154.796 473.006 154.581 472.789 154.328 472.642Z" stroke="white" stroke-width="0.5"/>
<path d="M154.328 472.642L154.317 472.635L154.305 472.63L98.0165 447.334L98.0166 447.334L98.0046 447.329C97.7489 447.23 97.4771 447.211 97.2542 447.332C97.0191 447.46 96.9077 447.706 96.9077 447.983C96.9077 448.253 97.0101 448.532 97.1667 448.764C97.3227 448.994 97.5468 449.199 97.817 449.306L154.1 474.599L154.1 474.599L154.112 474.603C154.367 474.703 154.639 474.722 154.862 474.601C155.097 474.472 155.208 474.227 155.208 473.95C155.208 473.713 155.099 473.453 154.949 473.232C154.796 473.006 154.581 472.789 154.328 472.642Z" stroke="white" stroke-width="0.5"/>
<path d="M98.0165 453.916L98.0166 453.916L98.0046 453.911C97.7489 453.812 97.4771 453.793 97.2542 453.914C97.0191 454.042 96.9077 454.287 96.9077 454.564C96.9077 454.834 97.0101 455.114 97.1667 455.345C97.3227 455.576 97.5468 455.78 97.817 455.887L154.1 481.18L154.1 481.18L154.112 481.185C154.367 481.284 154.639 481.303 154.862 481.182C155.097 481.054 155.208 480.809 155.208 480.532C155.208 480.262 155.106 479.983 154.949 479.751C154.793 479.52 154.569 479.316 154.299 479.209L98.0165 453.916Z" fill="url(#paint2_linear)"/>
<path d="M98.0165 453.916L98.0166 453.916L98.0046 453.911C97.7489 453.812 97.4771 453.793 97.2542 453.914C97.0191 454.042 96.9077 454.287 96.9077 454.564C96.9077 454.834 97.0101 455.114 97.1667 455.345C97.3227 455.576 97.5468 455.78 97.817 455.887L154.1 481.18L154.1 481.18L154.112 481.185C154.367 481.284 154.639 481.303 154.862 481.182C155.097 481.054 155.208 480.809 155.208 480.532C155.208 480.262 155.106 479.983 154.949 479.751C154.793 479.52 154.569 479.316 154.299 479.209L98.0165 453.916Z" stroke="white" stroke-width="0.5"/>
<path d="M98.0165 453.916L98.0166 453.916L98.0046 453.911C97.7489 453.812 97.4771 453.793 97.2542 453.914C97.0191 454.042 96.9077 454.287 96.9077 454.564C96.9077 454.834 97.0101 455.114 97.1667 455.345C97.3227 455.576 97.5468 455.78 97.817 455.887L154.1 481.18L154.1 481.18L154.112 481.185C154.367 481.284 154.639 481.303 154.862 481.182C155.097 481.054 155.208 480.809 155.208 480.532C155.208 480.262 155.106 479.983 154.949 479.751C154.793 479.52 154.569 479.316 154.299 479.209L98.0165 453.916Z" stroke="white" stroke-width="0.5"/>
<path d="M98.0165 453.916L98.0166 453.916L98.0046 453.911C97.7489 453.812 97.4771 453.793 97.2542 453.914C97.0191 454.042 96.9077 454.287 96.9077 454.564C96.9077 454.834 97.0101 455.114 97.1667 455.345C97.3227 455.576 97.5468 455.78 97.817 455.887L154.1 481.18L154.1 481.18L154.112 481.185C154.367 481.284 154.639 481.303 154.862 481.182C155.097 481.054 155.208 480.809 155.208 480.532C155.208 480.262 155.106 479.983 154.949 479.751C154.793 479.52 154.569 479.316 154.299 479.209L98.0165 453.916Z" stroke="white" stroke-width="0.5"/>
<path d="M154.328 460.273L154.317 460.266L154.305 460.261L98.0165 434.965L98.0166 434.965L98.0046 434.96C97.7489 434.861 97.4771 434.842 97.2542 434.963C97.0191 435.091 96.9077 435.337 96.9077 435.614C96.9077 435.884 97.0101 436.163 97.1667 436.394C97.3227 436.625 97.5468 436.83 97.817 436.937L154.1 462.229L154.1 462.23L154.112 462.234C154.367 462.334 154.639 462.353 154.862 462.231C155.097 462.103 155.208 461.858 155.208 461.581C155.208 461.343 155.099 461.084 154.949 460.863C154.796 460.637 154.581 460.42 154.328 460.273Z" fill="url(#paint3_linear)"/>
<path d="M154.328 460.273L154.317 460.266L154.305 460.261L98.0165 434.965L98.0166 434.965L98.0046 434.96C97.7489 434.861 97.4771 434.842 97.2542 434.963C97.0191 435.091 96.9077 435.337 96.9077 435.614C96.9077 435.884 97.0101 436.163 97.1667 436.394C97.3227 436.625 97.5468 436.83 97.817 436.937L154.1 462.229L154.1 462.23L154.112 462.234C154.367 462.334 154.639 462.353 154.862 462.231C155.097 462.103 155.208 461.858 155.208 461.581C155.208 461.343 155.099 461.084 154.949 460.863C154.796 460.637 154.581 460.42 154.328 460.273Z" stroke="white" stroke-width="0.5"/>
<path d="M154.328 460.273L154.317 460.266L154.305 460.261L98.0165 434.965L98.0166 434.965L98.0046 434.96C97.7489 434.861 97.4771 434.842 97.2542 434.963C97.0191 435.091 96.9077 435.337 96.9077 435.614C96.9077 435.884 97.0101 436.163 97.1667 436.394C97.3227 436.625 97.5468 436.83 97.817 436.937L154.1 462.229L154.1 462.23L154.112 462.234C154.367 462.334 154.639 462.353 154.862 462.231C155.097 462.103 155.208 461.858 155.208 461.581C155.208 461.343 155.099 461.084 154.949 460.863C154.796 460.637 154.581 460.42 154.328 460.273Z" stroke="white" stroke-width="0.5"/>
<path d="M154.328 460.273L154.317 460.266L154.305 460.261L98.0165 434.965L98.0166 434.965L98.0046 434.96C97.7489 434.861 97.4771 434.842 97.2542 434.963C97.0191 435.091 96.9077 435.337 96.9077 435.614C96.9077 435.884 97.0101 436.163 97.1667 436.394C97.3227 436.625 97.5468 436.83 97.817 436.937L154.1 462.229L154.1 462.23L154.112 462.234C154.367 462.334 154.639 462.353 154.862 462.231C155.097 462.103 155.208 461.858 155.208 461.581C155.208 461.343 155.099 461.084 154.949 460.863C154.796 460.637 154.581 460.42 154.328 460.273Z" stroke="white" stroke-width="0.5"/>
<path d="M98.0165 441.547L98.0166 441.547L98.0046 441.542C97.7489 441.442 97.4771 441.423 97.2542 441.545C97.0191 441.673 96.9077 441.918 96.9077 442.195C96.9077 442.465 97.0101 442.744 97.1667 442.976C97.3227 443.206 97.5468 443.411 97.817 443.518L154.1 468.811L154.1 468.811L154.112 468.816C154.367 468.915 154.639 468.934 154.862 468.813C155.097 468.685 155.208 468.439 155.208 468.163C155.208 467.892 155.106 467.613 154.949 467.382C154.793 467.151 154.569 466.947 154.299 466.84L98.0165 441.547Z" fill="url(#paint4_linear)"/>
<path d="M98.0165 441.547L98.0166 441.547L98.0046 441.542C97.7489 441.442 97.4771 441.423 97.2542 441.545C97.0191 441.673 96.9077 441.918 96.9077 442.195C96.9077 442.465 97.0101 442.744 97.1667 442.976C97.3227 443.206 97.5468 443.411 97.817 443.518L154.1 468.811L154.1 468.811L154.112 468.816C154.367 468.915 154.639 468.934 154.862 468.813C155.097 468.685 155.208 468.439 155.208 468.163C155.208 467.892 155.106 467.613 154.949 467.382C154.793 467.151 154.569 466.947 154.299 466.84L98.0165 441.547Z" stroke="white" stroke-width="0.5"/>
<path d="M98.0165 441.547L98.0166 441.547L98.0046 441.542C97.7489 441.442 97.4771 441.423 97.2542 441.545C97.0191 441.673 96.9077 441.918 96.9077 442.195C96.9077 442.465 97.0101 442.744 97.1667 442.976C97.3227 443.206 97.5468 443.411 97.817 443.518L154.1 468.811L154.1 468.811L154.112 468.816C154.367 468.915 154.639 468.934 154.862 468.813C155.097 468.685 155.208 468.439 155.208 468.163C155.208 467.892 155.106 467.613 154.949 467.382C154.793 467.151 154.569 466.947 154.299 466.84L98.0165 441.547Z" stroke="white" stroke-width="0.5"/>
<path d="M98.0165 441.547L98.0166 441.547L98.0046 441.542C97.7489 441.442 97.4771 441.423 97.2542 441.545C97.0191 441.673 96.9077 441.918 96.9077 442.195C96.9077 442.465 97.0101 442.744 97.1667 442.976C97.3227 443.206 97.5468 443.411 97.817 443.518L154.1 468.811L154.1 468.811L154.112 468.816C154.367 468.915 154.639 468.934 154.862 468.813C155.097 468.685 155.208 468.439 155.208 468.163C155.208 467.892 155.106 467.613 154.949 467.382C154.793 467.151 154.569 466.947 154.299 466.84L98.0165 441.547Z" stroke="white" stroke-width="0.5"/>
<path fill-rule="evenodd" clip-rule="evenodd" d="M113.463 290.156L98.3372 283.349C97.4729 283.013 96.8247 282.004 96.8247 281.08C96.8247 280.24 97.4729 279.819 98.3372 280.156L113.463 286.963C114.327 287.299 114.975 288.307 114.975 289.232C114.975 290.156 114.327 290.576 113.463 290.156Z" fill="url(#paint5_linear)"/>
<path fill-rule="evenodd" clip-rule="evenodd" d="M113.461 301.589L98.3358 294.782C97.4715 294.446 96.8232 293.438 96.8232 292.513C96.8232 291.673 97.4715 291.253 98.3358 291.589L113.461 298.396C114.326 298.732 114.974 299.74 114.974 300.665C114.974 301.589 114.326 301.925 113.461 301.589Z" fill="url(#paint6_linear)"/>
<path fill-rule="evenodd" clip-rule="evenodd" d="M113.461 312.055L98.3358 305.248C97.4715 304.912 96.8232 303.903 96.8232 302.979C96.8232 302.139 97.4715 301.718 98.3358 302.055L113.461 308.862C114.326 309.198 114.974 310.206 114.974 311.131C114.974 312.055 114.326 312.475 113.461 312.055Z" fill="url(#paint7_linear)"/>
<path fill-rule="evenodd" clip-rule="evenodd" d="M153.975 306.039L129.883 295.198C129.451 295.03 129.126 295.198 129.126 295.618C129.126 296.039 129.451 296.543 129.883 296.711L153.975 307.552C154.408 307.72 154.732 307.552 154.732 307.132C154.732 306.711 154.408 306.207 153.975 306.039Z" fill="url(#paint8_linear)"/>
<path fill-rule="evenodd" clip-rule="evenodd" d="M153.975 314.947L129.883 304.106C129.451 303.938 129.126 304.106 129.126 304.526C129.126 304.946 129.451 305.451 129.883 305.619L153.975 316.459C154.408 316.628 154.732 316.459 154.732 316.039C154.732 315.619 154.408 315.115 153.975 314.947Z" fill="url(#paint9_linear)"/>
<path fill-rule="evenodd" clip-rule="evenodd" d="M153.975 323.855L129.883 313.014C129.451 312.846 129.126 313.014 129.126 313.434C129.126 313.854 129.451 314.359 129.883 314.527L153.975 325.368C154.408 325.536 154.732 325.368 154.732 324.947C154.732 324.527 154.408 324.023 153.975 323.855Z" fill="url(#paint10_linear)"/>
<path fill-rule="evenodd" clip-rule="evenodd" d="M153.059 338.414L98.8591 314.45C97.8869 314.078 97.1577 314.45 97.1577 315.379C97.1577 316.308 97.8869 317.422 98.8591 317.794L153.059 341.758C154.031 342.129 154.76 341.758 154.76 340.829C154.76 339.9 154.031 338.786 153.059 338.414Z" fill="url(#paint11_linear)" fill-opacity="0.7"/>
<path fill-rule="evenodd" clip-rule="evenodd" d="M103.748 356.992L98.2381 354.555C97.6979 354.303 97.1577 353.631 97.1577 353.042V347.328C97.1577 346.739 97.5899 346.487 98.2381 346.739L103.748 349.177C104.288 349.429 104.828 350.101 104.828 350.689V356.404C104.72 356.908 104.288 357.244 103.748 356.992Z" fill="url(#paint12_linear)"/>
<path fill-rule="evenodd" clip-rule="evenodd" d="M103.748 376.276L98.2381 373.839C97.6979 373.587 97.1577 372.915 97.1577 372.326V366.612C97.1577 366.024 97.5899 365.772 98.2381 366.024L103.748 368.461C104.288 368.713 104.828 369.385 104.828 369.973V375.688C104.72 376.192 104.288 376.528 103.748 376.276Z" fill="url(#paint13_linear)"/>
<path fill-rule="evenodd" clip-rule="evenodd" d="M103.748 392.497L98.2381 390.06C97.6979 389.808 97.1577 389.136 97.1577 388.548V382.833C97.1577 382.245 97.5899 381.993 98.2381 382.245L103.748 384.682C104.288 384.934 104.828 385.606 104.828 386.195V391.909C104.72 392.413 104.288 392.75 103.748 392.497Z" fill="url(#paint14_linear)"/>
<path fill-rule="evenodd" clip-rule="evenodd" d="M103.748 407.909L98.2381 405.471C97.6979 405.219 97.1577 404.547 97.1577 403.959V398.244C97.1577 397.656 97.5899 397.404 98.2381 397.656L103.748 400.093C104.288 400.345 104.828 401.017 104.828 401.606V407.32C104.72 407.825 104.288 408.161 103.748 407.909Z" fill="url(#paint15_linear)"/>
<path fill-rule="evenodd" clip-rule="evenodd" d="M141.02 367.007L116.603 356.082C116.171 355.914 115.739 355.325 115.739 354.821C115.739 354.317 116.063 354.149 116.603 354.317L141.02 365.242C141.452 365.41 141.884 365.998 141.884 366.502C141.884 367.007 141.452 367.259 141.02 367.007Z" fill="url(#paint16_linear)"/>
<path fill-rule="evenodd" clip-rule="evenodd" d="M141.02 370.536L116.603 359.611C116.171 359.443 115.739 358.855 115.739 358.35C115.739 357.846 116.063 357.678 116.603 357.846L141.02 368.771C141.452 368.939 141.884 369.527 141.884 370.032C141.884 370.452 141.452 370.704 141.02 370.536Z" fill="url(#paint17_linear)"/>
<path fill-rule="evenodd" clip-rule="evenodd" d="M140.822 374.044L116.405 363.119C115.973 362.951 115.541 362.363 115.541 361.859C115.541 361.355 115.865 361.186 116.405 361.355L140.822 372.279C141.254 372.448 141.686 373.036 141.686 373.54C141.686 373.96 141.254 374.212 140.822 374.044Z" fill="url(#paint18_linear)"/>
<path fill-rule="evenodd" clip-rule="evenodd" d="M141.02 384.133L116.603 373.208C116.171 373.04 115.739 372.452 115.739 371.948C115.739 371.443 116.063 371.275 116.603 371.443L141.02 382.368C141.452 382.536 141.884 383.125 141.884 383.629C141.884 384.133 141.452 384.385 141.02 384.133Z" fill="url(#paint19_linear)"/>
<path fill-rule="evenodd" clip-rule="evenodd" d="M141.02 387.662L116.603 376.737C116.171 376.569 115.739 375.981 115.739 375.477C115.739 374.973 116.063 374.805 116.603 374.973L141.02 385.898C141.452 386.066 141.884 386.654 141.884 387.158C141.884 387.578 141.452 387.83 141.02 387.662Z" fill="url(#paint20_linear)"/>
<path fill-rule="evenodd" clip-rule="evenodd" d="M140.822 391.171L116.405 380.246C115.973 380.078 115.541 379.489 115.541 378.985C115.541 378.481 115.865 378.313 116.405 378.481L140.822 389.406C141.254 389.574 141.686 390.162 141.686 390.666C141.686 391.087 141.254 391.339 140.822 391.171Z" fill="url(#paint21_linear)"/>
<path fill-rule="evenodd" clip-rule="evenodd" d="M141.02 400.308L116.603 389.383C116.171 389.215 115.739 388.627 115.739 388.122C115.739 387.618 116.063 387.45 116.603 387.618L141.02 398.543C141.452 398.711 141.884 399.299 141.884 399.804C141.884 400.308 141.452 400.56 141.02 400.308Z" fill="url(#paint22_linear)"/>
<path fill-rule="evenodd" clip-rule="evenodd" d="M141.02 403.837L116.603 392.912C116.171 392.744 115.739 392.156 115.739 391.652C115.739 391.148 116.063 390.979 116.603 391.148L141.02 402.072C141.452 402.24 141.884 402.829 141.884 403.333C141.884 403.753 141.452 404.005 141.02 403.837Z" fill="url(#paint23_linear)"/>
<path fill-rule="evenodd" clip-rule="evenodd" d="M140.822 407.346L116.405 396.421C115.973 396.253 115.541 395.664 115.541 395.16C115.541 394.656 115.865 394.488 116.405 394.656L140.822 405.581C141.254 405.749 141.686 406.337 141.686 406.841C141.686 407.261 141.254 407.514 140.822 407.346Z" fill="url(#paint24_linear)"/>
<path fill-rule="evenodd" clip-rule="evenodd" d="M141.02 416.483L116.603 405.558C116.171 405.39 115.739 404.801 115.739 404.297C115.739 403.793 116.063 403.625 116.603 403.793L141.02 414.718C141.452 414.886 141.884 415.474 141.884 415.978C141.884 416.483 141.452 416.735 141.02 416.483Z" fill="url(#paint25_linear)"/>
<path fill-rule="evenodd" clip-rule="evenodd" d="M141.02 420.012L116.603 409.088C116.171 408.92 115.739 408.331 115.739 407.827C115.739 407.323 116.063 407.155 116.603 407.323L141.02 418.248C141.452 418.416 141.884 419.004 141.884 419.508C141.884 419.928 141.452 420.181 141.02 420.012Z" fill="url(#paint26_linear)"/>
<path fill-rule="evenodd" clip-rule="evenodd" d="M140.822 423.52L116.405 412.595C115.973 412.427 115.541 411.839 115.541 411.335C115.541 410.831 115.865 410.663 116.405 410.831L140.822 421.756C141.254 421.924 141.686 422.512 141.686 423.016C141.686 423.436 141.254 423.688 140.822 423.52Z" fill="url(#paint27_linear)"/>
<path fill-rule="evenodd" clip-rule="evenodd" d="M227.2 344.325L178.043 322.223C176.962 321.719 176.206 320.542 176.206 319.45V312.727C176.206 311.634 177.07 311.13 178.043 311.634L227.2 333.736C228.281 334.24 229.037 335.417 229.037 336.509V343.232C229.037 344.325 228.173 344.829 227.2 344.325Z" fill="url(#paint28_linear)" fill-opacity="0.6"/>
<path fill-rule="evenodd" clip-rule="evenodd" d="M204.215 363.761L176.125 351.155C175.477 350.903 175.044 350.147 175.044 349.475V348.214C175.044 347.542 175.585 347.29 176.125 347.542L204.215 360.147C204.863 360.399 205.295 361.156 205.295 361.828V363.089C205.295 363.761 204.755 364.013 204.215 363.761Z" fill="url(#paint29_linear)" fill-opacity="0.5"/>
<path d="M262.452 403.772L262.452 403.772L262.464 403.777C262.718 403.876 262.999 403.898 263.227 403.756C263.462 403.61 263.561 403.341 263.561 403.04C263.561 402.773 263.461 402.476 263.308 402.226C263.157 401.979 262.933 401.744 262.652 401.633L175.902 362.642L175.902 362.641L175.89 362.637C175.614 362.529 175.334 362.544 175.116 362.696C174.901 362.847 174.793 363.1 174.793 363.374C174.793 363.641 174.894 363.938 175.046 364.187C175.198 364.434 175.422 364.669 175.703 364.781L262.452 403.772Z" fill="url(#paint30_linear)" stroke="white" stroke-width="0.5"/>
<path d="M175.902 369.302L175.902 369.302L175.89 369.297C175.614 369.19 175.334 369.205 175.116 369.357C174.901 369.508 174.793 369.761 174.793 370.034C174.793 370.301 174.894 370.598 175.046 370.848C175.198 371.095 175.422 371.33 175.703 371.441L262.441 410.427C262.707 410.579 263.001 410.607 263.238 410.441C263.466 410.282 263.561 409.997 263.561 409.7C263.561 409.433 263.461 409.136 263.308 408.887C263.157 408.64 262.933 408.405 262.652 408.293L175.902 369.302Z" fill="url(#paint31_linear)" stroke="white" stroke-width="0.5"/>
<path d="M176.454 375.962L176.454 375.962L176.442 375.957C176.166 375.85 175.886 375.865 175.668 376.017C175.453 376.168 175.345 376.421 175.345 376.695C175.345 376.962 175.445 377.258 175.598 377.508C175.749 377.755 175.974 377.99 176.254 378.102L262.993 417.088C263.259 417.239 263.553 417.267 263.79 417.101C264.018 416.942 264.113 416.657 264.113 416.36C264.113 416.093 264.013 415.797 263.86 415.547C263.709 415.3 263.485 415.065 263.204 414.953L176.454 375.962Z" fill="url(#paint32_linear)" stroke="white" stroke-width="0.5"/>
<path d="M235.118 384.842L235.118 384.842L235.13 384.847C235.385 384.946 235.665 384.969 235.893 384.826C236.129 384.68 236.227 384.411 236.227 384.11C236.227 383.843 236.127 383.546 235.974 383.297C235.823 383.05 235.599 382.814 235.318 382.703L175.902 355.981L175.902 355.981L175.89 355.976C175.614 355.869 175.334 355.884 175.116 356.036C174.901 356.187 174.793 356.44 174.793 356.714C174.793 356.981 174.894 357.277 175.046 357.527C175.198 357.774 175.422 358.009 175.703 358.121L235.118 384.842Z" fill="url(#paint33_linear)" stroke="white" stroke-width="0.5"/>
<path fill-rule="evenodd" clip-rule="evenodd" d="M204.767 406.725L176.677 394.119C176.029 393.867 175.597 393.111 175.597 392.438V391.178C175.597 390.506 176.137 390.253 176.677 390.506L204.767 403.111C205.415 403.363 205.848 404.12 205.848 404.792V406.053C205.848 406.725 205.307 406.977 204.767 406.725Z" fill="url(#paint34_linear)" fill-opacity="0.5"/>
<path d="M263.004 446.736L263.004 446.736L263.016 446.741C263.27 446.84 263.55 446.862 263.779 446.72C264.014 446.573 264.113 446.304 264.113 446.003C264.113 445.737 264.013 445.44 263.86 445.19C263.709 444.943 263.485 444.708 263.204 444.596L176.454 405.605L176.454 405.605L176.442 405.6C176.166 405.493 175.886 405.508 175.668 405.66C175.453 405.811 175.345 406.064 175.345 406.338C175.345 406.605 175.445 406.901 175.598 407.151C175.749 407.398 175.974 407.633 176.254 407.745L263.004 446.736Z" fill="url(#paint35_linear)" stroke="white" stroke-width="0.5"/>
<path d="M176.454 412.266L176.454 412.265L176.442 412.261C176.166 412.153 175.886 412.168 175.668 412.32C175.453 412.471 175.345 412.724 175.345 412.998C175.345 413.265 175.445 413.562 175.598 413.811C175.749 414.058 175.974 414.293 176.254 414.405L262.993 453.391C263.259 453.542 263.553 453.57 263.79 453.404C264.018 453.245 264.113 452.96 264.113 452.664C264.113 452.397 264.013 452.1 263.86 451.85C263.709 451.603 263.485 451.368 263.204 451.257L176.454 412.266Z" fill="url(#paint36_linear)" stroke="white" stroke-width="0.5"/>
<path d="M177.007 418.926L177.007 418.925L176.995 418.921C176.719 418.813 176.439 418.828 176.221 418.98C176.006 419.131 175.898 419.384 175.898 419.658C175.898 419.925 175.999 420.222 176.151 420.471C176.303 420.718 176.527 420.953 176.808 421.065L263.546 460.051C263.812 460.202 264.106 460.23 264.343 460.064C264.571 459.905 264.666 459.62 264.666 459.324C264.666 459.057 264.566 458.76 264.413 458.51C264.262 458.263 264.038 458.028 263.757 457.917L177.007 418.926Z" fill="url(#paint37_linear)" stroke="white" stroke-width="0.5"/>
<path d="M235.67 427.806L235.67 427.806L235.682 427.811C235.936 427.909 236.217 427.932 236.445 427.79C236.68 427.643 236.779 427.374 236.779 427.073C236.779 426.806 236.679 426.51 236.526 426.26C236.375 426.013 236.151 425.778 235.87 425.666L176.454 398.945L176.454 398.944L176.442 398.94C176.166 398.832 175.886 398.847 175.668 398.999C175.453 399.15 175.345 399.403 175.345 399.677C175.345 399.944 175.445 400.241 175.598 400.49C175.749 400.737 175.973 400.972 176.254 401.084L235.67 427.806Z" fill="url(#paint38_linear)" stroke="white" stroke-width="0.5"/>
<path fill-rule="evenodd" clip-rule="evenodd" d="M203.541 487.599L175.451 474.994C174.803 474.742 174.371 473.985 174.371 473.313V472.052C174.371 471.38 174.911 471.128 175.451 471.38L203.541 483.986C204.189 484.238 204.621 484.994 204.621 485.666V486.927C204.621 487.599 204.081 487.851 203.541 487.599Z" fill="url(#paint39_linear)" fill-opacity="0.5"/>
<path d="M261.778 527.61L261.778 527.611L261.79 527.615C262.045 527.714 262.325 527.737 262.553 527.594C262.789 527.448 262.887 527.179 262.887 526.878C262.887 526.611 262.787 526.314 262.634 526.065C262.483 525.818 262.259 525.582 261.978 525.471L175.228 486.48L175.229 486.48L175.217 486.475C174.94 486.367 174.66 486.382 174.442 486.535C174.227 486.685 174.12 486.938 174.12 487.212C174.12 487.479 174.22 487.776 174.372 488.025C174.524 488.273 174.748 488.508 175.029 488.619L261.778 527.61Z" fill="url(#paint40_linear)" stroke="white" stroke-width="0.5"/>
<path d="M175.228 493.14L175.229 493.14L175.217 493.135C174.94 493.028 174.66 493.042 174.442 493.195C174.227 493.346 174.12 493.599 174.12 493.872C174.12 494.139 174.22 494.436 174.372 494.686C174.524 494.933 174.748 495.168 175.029 495.279L261.767 534.265C262.034 534.416 262.328 534.445 262.565 534.279C262.792 534.119 262.887 533.835 262.887 533.538C262.887 533.271 262.787 532.974 262.634 532.725C262.483 532.478 262.259 532.243 261.978 532.131L175.228 493.14Z" fill="url(#paint41_linear)" stroke="white" stroke-width="0.5"/>
<path d="M175.781 499.801L175.781 499.8L175.769 499.796C175.493 499.688 175.213 499.703 174.995 499.855C174.78 500.006 174.672 500.259 174.672 500.533C174.672 500.8 174.772 501.097 174.925 501.346C175.076 501.593 175.301 501.828 175.582 501.94L262.32 540.926C262.586 541.077 262.88 541.105 263.117 540.939C263.345 540.78 263.44 540.495 263.44 540.199C263.44 539.932 263.34 539.635 263.187 539.385C263.036 539.138 262.812 538.903 262.531 538.792L175.781 499.801Z" fill="url(#paint42_linear)" stroke="white" stroke-width="0.5"/>
<path d="M234.445 508.681L234.445 508.681L234.457 508.686C234.711 508.784 234.991 508.807 235.219 508.665C235.455 508.518 235.553 508.249 235.553 507.948C235.553 507.681 235.453 507.385 235.301 507.135C235.149 506.888 234.925 506.653 234.644 506.541L175.228 479.82L175.229 479.819L175.217 479.815C174.94 479.707 174.66 479.722 174.442 479.874C174.227 480.025 174.12 480.278 174.12 480.552C174.12 480.819 174.22 481.116 174.372 481.365C174.524 481.612 174.748 481.847 175.029 481.959L234.445 508.681Z" fill="url(#paint43_linear)" stroke="white" stroke-width="0.5"/>
<path d="M154.102 485.011L154.091 485.004L154.079 484.998L97.7904 459.703L97.7905 459.703L97.7785 459.698C97.5229 459.599 97.251 459.58 97.0282 459.701C96.793 459.829 96.6816 460.075 96.6816 460.351C96.6816 460.622 96.784 460.901 96.9407 461.132C97.0966 461.363 97.3208 461.567 97.5909 461.674L153.874 486.967L153.873 486.967L153.885 486.972C154.141 487.072 154.413 487.091 154.636 486.969C154.871 486.841 154.982 486.596 154.982 486.319C154.982 486.081 154.873 485.822 154.723 485.601C154.57 485.375 154.355 485.158 154.102 485.011Z" fill="url(#paint44_linear)"/>
<path d="M154.102 485.011L154.091 485.004L154.079 484.998L97.7904 459.703L97.7905 459.703L97.7785 459.698C97.5229 459.599 97.251 459.58 97.0282 459.701C96.793 459.829 96.6816 460.075 96.6816 460.351C96.6816 460.622 96.784 460.901 96.9407 461.132C97.0966 461.363 97.3208 461.567 97.5909 461.674L153.874 486.967L153.873 486.967L153.885 486.972C154.141 487.072 154.413 487.091 154.636 486.969C154.871 486.841 154.982 486.596 154.982 486.319C154.982 486.081 154.873 485.822 154.723 485.601C154.57 485.375 154.355 485.158 154.102 485.011Z" stroke="white" stroke-width="0.5"/>
<path d="M154.102 485.011L154.091 485.004L154.079 484.998L97.7904 459.703L97.7905 459.703L97.7785 459.698C97.5229 459.599 97.251 459.58 97.0282 459.701C96.793 459.829 96.6816 460.075 96.6816 460.351C96.6816 460.622 96.784 460.901 96.9407 461.132C97.0966 461.363 97.3208 461.567 97.5909 461.674L153.874 486.967L153.873 486.967L153.885 486.972C154.141 487.072 154.413 487.091 154.636 486.969C154.871 486.841 154.982 486.596 154.982 486.319C154.982 486.081 154.873 485.822 154.723 485.601C154.57 485.375 154.355 485.158 154.102 485.011Z" stroke="white" stroke-width="0.5"/>
<path d="M154.102 485.011L154.091 485.004L154.079 484.998L97.7904 459.703L97.7905 459.703L97.7785 459.698C97.5229 459.599 97.251 459.58 97.0282 459.701C96.793 459.829 96.6816 460.075 96.6816 460.351C96.6816 460.622 96.784 460.901 96.9407 461.132C97.0966 461.363 97.3208 461.567 97.5909 461.674L153.874 486.967L153.873 486.967L153.885 486.972C154.141 487.072 154.413 487.091 154.636 486.969C154.871 486.841 154.982 486.596 154.982 486.319C154.982 486.081 154.873 485.822 154.723 485.601C154.57 485.375 154.355 485.158 154.102 485.011Z" stroke="white" stroke-width="0.5"/>
<path d="M97.7904 465.333L97.7905 465.333L97.7785 465.328C97.5229 465.229 97.251 465.21 97.0282 465.331C96.793 465.459 96.6816 465.705 96.6816 465.982C96.6816 466.252 96.784 466.531 96.9407 466.763C97.0966 466.993 97.3208 467.198 97.5909 467.305L153.874 492.598L153.873 492.598L153.885 492.603C154.141 492.702 154.413 492.721 154.636 492.6C154.871 492.472 154.982 492.226 154.982 491.949C154.982 491.679 154.88 491.4 154.723 491.168C154.567 490.938 154.343 490.733 154.073 490.626L97.7904 465.333Z" fill="url(#paint45_linear)"/>
<path d="M97.7904 465.333L97.7905 465.333L97.7785 465.328C97.5229 465.229 97.251 465.21 97.0282 465.331C96.793 465.459 96.6816 465.705 96.6816 465.982C96.6816 466.252 96.784 466.531 96.9407 466.763C97.0966 466.993 97.3208 467.198 97.5909 467.305L153.874 492.598L153.873 492.598L153.885 492.603C154.141 492.702 154.413 492.721 154.636 492.6C154.871 492.472 154.982 492.226 154.982 491.949C154.982 491.679 154.88 491.4 154.723 491.168C154.567 490.938 154.343 490.733 154.073 490.626L97.7904 465.333Z" stroke="white" stroke-width="0.5"/>
<path d="M97.7904 465.333L97.7905 465.333L97.7785 465.328C97.5229 465.229 97.251 465.21 97.0282 465.331C96.793 465.459 96.6816 465.705 96.6816 465.982C96.6816 466.252 96.784 466.531 96.9407 466.763C97.0966 466.993 97.3208 467.198 97.5909 467.305L153.874 492.598L153.873 492.598L153.885 492.603C154.141 492.702 154.413 492.721 154.636 492.6C154.871 492.472 154.982 492.226 154.982 491.949C154.982 491.679 154.88 491.4 154.723 491.168C154.567 490.938 154.343 490.733 154.073 490.626L97.7904 465.333Z" stroke="white" stroke-width="0.5"/>
<path d="M97.7904 465.333L97.7905 465.333L97.7785 465.328C97.5229 465.229 97.251 465.21 97.0282 465.331C96.793 465.459 96.6816 465.705 96.6816 465.982C96.6816 466.252 96.784 466.531 96.9407 466.763C97.0966 466.993 97.3208 467.198 97.5909 467.305L153.874 492.598L153.873 492.598L153.885 492.603C154.141 492.702 154.413 492.721 154.636 492.6C154.871 492.472 154.982 492.226 154.982 491.949C154.982 491.679 154.88 491.4 154.723 491.168C154.567 490.938 154.343 490.733 154.073 490.626L97.7904 465.333Z" stroke="white" stroke-width="0.5"/>
<path fill-rule="evenodd" clip-rule="evenodd" d="M208.751 452.854C208.751 453.632 207.948 454.151 207.239 453.831L175.546 439.576C175.174 439.408 174.935 439.038 174.935 438.631V438.631C174.935 437.88 175.708 437.378 176.394 437.685L208.116 451.875C208.502 452.047 208.751 452.431 208.751 452.854V452.854Z" fill="url(#paint46_linear)" fill-opacity="0.5"/>
<path fill-rule="evenodd" clip-rule="evenodd" d="M249.373 486.804C249.373 487.582 248.57 488.102 247.86 487.783L175.567 455.3C175.182 455.127 174.934 454.744 174.934 454.321V454.321C174.934 453.543 175.737 453.023 176.447 453.342L248.739 485.825C249.125 485.998 249.373 486.381 249.373 486.804V486.804Z" fill="url(#paint47_linear)" fill-opacity="0.5"/>
<path fill-rule="evenodd" clip-rule="evenodd" d="M249.373 476.338C249.373 477.117 248.57 477.636 247.86 477.317L175.567 444.834C175.182 444.661 174.934 444.278 174.934 443.855V443.855C174.934 443.077 175.737 442.558 176.447 442.877L248.739 475.359C249.125 475.532 249.373 475.916 249.373 476.338V476.338Z" fill="url(#paint48_linear)" fill-opacity="0.5"/>
<path fill-rule="evenodd" clip-rule="evenodd" d="M249.373 481.936C249.373 482.714 248.57 483.234 247.86 482.915L175.567 450.432C175.182 450.259 174.934 449.876 174.934 449.453V449.453C174.934 448.675 175.737 448.155 176.447 448.474L248.739 480.957C249.125 481.13 249.373 481.513 249.373 481.936V481.936Z" fill="url(#paint49_linear)" fill-opacity="0.5"/>
<path d="M106.74 242.459L95.5382 248.311L95.5381 237.088L106.74 242.459Z" fill="url(#paint50_linear)" fill-opacity="0.8"/>
<path d="M95.5559 247.736L106.121 262.618L95.5557 257.349L95.5559 247.736Z" fill="url(#paint51_linear)" fill-opacity="0.8"/>
<path d="M106.135 242.208L116.701 257.09L116.701 247.6L106.135 242.208Z" fill="url(#paint52_linear)" fill-opacity="0.8"/>
<path d="M116.718 256.514L105.517 262.367L116.718 267.873L116.718 256.514Z" fill="url(#paint53_linear)" fill-opacity="0.8"/>
<defs>
<linearGradient id="paint0_linear" x1="56.2157" y1="240.661" x2="324.671" y2="527.465" gradientUnits="userSpaceOnUse">
<stop offset="0.0402931" stop-color="#CDEAFF"/>
<stop offset="0.325109" stop-color="#EBF0F4" stop-opacity="0.51"/>
<stop offset="0.522829" stop-color="#D8EBF9" stop-opacity="0.615843"/>
<stop offset="0.79212" stop-color="#BDE5FF" stop-opacity="0.76"/>
</linearGradient>
<linearGradient id="paint1_linear" x1="169.975" y1="491.669" x2="113.908" y2="504.414" gradientUnits="userSpaceOnUse">
<stop stop-color="white"/>
<stop offset="1" stop-color="white" stop-opacity="0.47"/>
</linearGradient>
<linearGradient id="paint2_linear" x1="169.975" y1="498.25" x2="113.908" y2="510.995" gradientUnits="userSpaceOnUse">
<stop stop-color="white"/>
<stop offset="1" stop-color="white" stop-opacity="0.47"/>
</linearGradient>
<linearGradient id="paint3_linear" x1="169.975" y1="479.3" x2="113.908" y2="492.045" gradientUnits="userSpaceOnUse">
<stop stop-color="white"/>
<stop offset="1" stop-color="white" stop-opacity="0.47"/>
</linearGradient>
<linearGradient id="paint4_linear" x1="169.975" y1="485.881" x2="113.908" y2="498.626" gradientUnits="userSpaceOnUse">
<stop stop-color="white"/>
<stop offset="1" stop-color="white" stop-opacity="0.47"/>
</linearGradient>
<linearGradient id="paint5_linear" x1="119.691" y1="296.896" x2="101.801" y2="300.242" gradientUnits="userSpaceOnUse">
<stop stop-color="#516FA7"/>
<stop offset="1" stop-color="#2B94E9" stop-opacity="0.63"/>
</linearGradient>
<linearGradient id="paint6_linear" x1="119.689" y1="308.271" x2="101.804" y2="311.628" gradientUnits="userSpaceOnUse">
<stop stop-color="#516FA7"/>
<stop offset="1" stop-color="#2B94E9" stop-opacity="0.63"/>
</linearGradient>
<linearGradient id="paint7_linear" x1="119.689" y1="318.795" x2="101.799" y2="322.141" gradientUnits="userSpaceOnUse">
<stop stop-color="#516FA7"/>
<stop offset="1" stop-color="#2B94E9" stop-opacity="0.63"/>
</linearGradient>
<linearGradient id="paint8_linear" x1="161.384" y1="315.602" x2="136.441" y2="321.023" gradientUnits="userSpaceOnUse">
<stop stop-color="#23A2FD"/>
<stop offset="0.5535" stop-color="#48BAF8"/>
<stop offset="1" stop-color="#A4E2F9"/>
</linearGradient>
<linearGradient id="paint9_linear" x1="161.384" y1="324.51" x2="136.441" y2="329.93" gradientUnits="userSpaceOnUse">
<stop stop-color="#23A2FD"/>
<stop offset="0.5535" stop-color="#48BAF8"/>
<stop offset="1" stop-color="#A4E2F9"/>
</linearGradient>
<linearGradient id="paint10_linear" x1="161.384" y1="333.418" x2="136.441" y2="338.838" gradientUnits="userSpaceOnUse">
<stop stop-color="#23A2FD"/>
<stop offset="0.5535" stop-color="#48BAF8"/>
<stop offset="1" stop-color="#A4E2F9"/>
</linearGradient>
<linearGradient id="paint11_linear" x1="91.6426" y1="316.686" x2="127.854" y2="292.481" gradientUnits="userSpaceOnUse">
<stop stop-color="#23A1FD"/>
<stop offset="1" stop-color="#5373AC"/>
</linearGradient>
<linearGradient id="paint12_linear" x1="90.9278" y1="341.725" x2="106.269" y2="344.853" gradientUnits="userSpaceOnUse">
<stop stop-color="#0094FF" stop-opacity="0"/>
<stop offset="1" stop-color="#4A6FAB" stop-opacity="0.89"/>
</linearGradient>
<linearGradient id="paint13_linear" x1="90.9278" y1="361.01" x2="106.269" y2="364.137" gradientUnits="userSpaceOnUse">
<stop stop-color="#0094FF" stop-opacity="0"/>
<stop offset="1" stop-color="#4A6FAB" stop-opacity="0.89"/>
</linearGradient>
<linearGradient id="paint14_linear" x1="90.9278" y1="377.231" x2="106.269" y2="380.359" gradientUnits="userSpaceOnUse">
<stop stop-color="#0094FF" stop-opacity="0"/>
<stop offset="1" stop-color="#4A6FAB" stop-opacity="0.89"/>
</linearGradient>
<linearGradient id="paint15_linear" x1="90.9278" y1="392.642" x2="106.269" y2="395.77" gradientUnits="userSpaceOnUse">
<stop stop-color="#0094FF" stop-opacity="0"/>
<stop offset="1" stop-color="#4A6FAB" stop-opacity="0.89"/>
</linearGradient>
<linearGradient id="paint16_linear" x1="148.676" y1="375.328" x2="123.189" y2="380.821" gradientUnits="userSpaceOnUse">
<stop stop-color="white"/>
<stop offset="1" stop-color="white"/>
</linearGradient>
<linearGradient id="paint17_linear" x1="148.676" y1="378.781" x2="123.197" y2="384.292" gradientUnits="userSpaceOnUse">
<stop stop-color="white"/>
<stop offset="1" stop-color="white"/>
</linearGradient>
<linearGradient id="paint18_linear" x1="148.478" y1="382.29" x2="122.999" y2="387.801" gradientUnits="userSpaceOnUse">
<stop stop-color="white"/>
<stop offset="1" stop-color="white"/>
</linearGradient>
<linearGradient id="paint19_linear" x1="148.676" y1="392.454" x2="123.189" y2="397.947" gradientUnits="userSpaceOnUse">
<stop stop-color="white"/>
<stop offset="1" stop-color="white"/>
</linearGradient>
<linearGradient id="paint20_linear" x1="148.676" y1="395.908" x2="123.197" y2="401.419" gradientUnits="userSpaceOnUse">
<stop stop-color="white"/>
<stop offset="1" stop-color="white"/>
</linearGradient>
<linearGradient id="paint21_linear" x1="148.478" y1="399.416" x2="122.999" y2="404.927" gradientUnits="userSpaceOnUse">
<stop stop-color="white"/>
<stop offset="1" stop-color="white"/>
</linearGradient>
<linearGradient id="paint22_linear" x1="148.676" y1="408.629" x2="123.189" y2="414.122" gradientUnits="userSpaceOnUse">
<stop stop-color="white"/>
<stop offset="1" stop-color="white"/>
</linearGradient>
<linearGradient id="paint23_linear" x1="148.676" y1="412.083" x2="123.197" y2="417.594" gradientUnits="userSpaceOnUse">
<stop stop-color="white"/>
<stop offset="1" stop-color="white"/>
</linearGradient>
<linearGradient id="paint24_linear" x1="148.478" y1="415.591" x2="122.999" y2="421.102" gradientUnits="userSpaceOnUse">
<stop stop-color="white"/>
<stop offset="1" stop-color="white"/>
</linearGradient>
<linearGradient id="paint25_linear" x1="148.676" y1="424.804" x2="123.189" y2="430.297" gradientUnits="userSpaceOnUse">
<stop stop-color="white"/>
<stop offset="1" stop-color="white"/>
</linearGradient>
<linearGradient id="paint26_linear" x1="148.676" y1="428.258" x2="123.197" y2="433.769" gradientUnits="userSpaceOnUse">
<stop stop-color="white"/>
<stop offset="1" stop-color="white"/>
</linearGradient>
<linearGradient id="paint27_linear" x1="148.478" y1="431.766" x2="122.999" y2="437.277" gradientUnits="userSpaceOnUse">
<stop stop-color="white"/>
<stop offset="1" stop-color="white"/>
</linearGradient>
<linearGradient id="paint28_linear" x1="239.94" y1="344.739" x2="192.986" y2="360.503" gradientUnits="userSpaceOnUse">
<stop stop-color="#002C81"/>
<stop offset="0.145833" stop-color="#4D6BA5"/>
<stop offset="1" stop-color="#2A97ED"/>
</linearGradient>
<linearGradient id="paint29_linear" x1="213.154" y1="374.357" x2="183.428" y2="380.161" gradientUnits="userSpaceOnUse">
<stop stop-color="#516FA7"/>
<stop offset="1" stop-color="#2B94E9" stop-opacity="0.63"/>
</linearGradient>
<linearGradient id="paint30_linear" x1="286.242" y1="429.704" x2="200.695" y2="449.315" gradientUnits="userSpaceOnUse">
<stop stop-color="white"/>
<stop offset="1" stop-color="white" stop-opacity="0.79"/>
</linearGradient>
<linearGradient id="paint31_linear" x1="286.242" y1="436.423" x2="200.687" y2="456.019" gradientUnits="userSpaceOnUse">
<stop stop-color="white"/>
<stop offset="1" stop-color="white" stop-opacity="0.79"/>
</linearGradient>
<linearGradient id="paint32_linear" x1="286.794" y1="443.083" x2="201.239" y2="462.679" gradientUnits="userSpaceOnUse">
<stop stop-color="white"/>
<stop offset="1" stop-color="white" stop-opacity="0.79"/>
</linearGradient>
<linearGradient id="paint33_linear" x1="251.807" y1="402.924" x2="192.677" y2="416.308" gradientUnits="userSpaceOnUse">
<stop stop-color="white"/>
<stop offset="1" stop-color="white" stop-opacity="0.79"/>
</linearGradient>
<linearGradient id="paint34_linear" x1="213.706" y1="417.32" x2="183.981" y2="423.125" gradientUnits="userSpaceOnUse">
<stop stop-color="#516FA7"/>
<stop offset="1" stop-color="#2B94E9" stop-opacity="0.63"/>
</linearGradient>
<linearGradient id="paint35_linear" x1="286.794" y1="472.668" x2="201.247" y2="492.279" gradientUnits="userSpaceOnUse">
<stop stop-color="white"/>
<stop offset="1" stop-color="white" stop-opacity="0.79"/>
</linearGradient>
<linearGradient id="paint36_linear" x1="286.794" y1="479.387" x2="201.239" y2="498.982" gradientUnits="userSpaceOnUse">
<stop stop-color="white"/>
<stop offset="1" stop-color="white" stop-opacity="0.79"/>
</linearGradient>
<linearGradient id="paint37_linear" x1="287.347" y1="486.047" x2="201.792" y2="505.643" gradientUnits="userSpaceOnUse">
<stop stop-color="white"/>
<stop offset="1" stop-color="white" stop-opacity="0.79"/>
</linearGradient>
<linearGradient id="paint38_linear" x1="252.359" y1="445.888" x2="193.229" y2="459.271" gradientUnits="userSpaceOnUse">
<stop stop-color="white"/>
<stop offset="1" stop-color="white" stop-opacity="0.79"/>
</linearGradient>
<linearGradient id="paint39_linear" x1="212.48" y1="498.195" x2="182.755" y2="504" gradientUnits="userSpaceOnUse">
<stop stop-color="#516FA7"/>
<stop offset="1" stop-color="#2B94E9" stop-opacity="0.63"/>
</linearGradient>
<linearGradient id="paint40_linear" x1="285.568" y1="553.542" x2="200.021" y2="573.153" gradientUnits="userSpaceOnUse">
<stop stop-color="white"/>
<stop offset="1" stop-color="white" stop-opacity="0.79"/>
</linearGradient>
<linearGradient id="paint41_linear" x1="285.568" y1="560.261" x2="200.013" y2="579.857" gradientUnits="userSpaceOnUse">
<stop stop-color="white"/>
<stop offset="1" stop-color="white" stop-opacity="0.79"/>
</linearGradient>
<linearGradient id="paint42_linear" x1="286.121" y1="566.922" x2="200.566" y2="586.518" gradientUnits="userSpaceOnUse">
<stop stop-color="white"/>
<stop offset="1" stop-color="white" stop-opacity="0.79"/>
</linearGradient>
<linearGradient id="paint43_linear" x1="251.134" y1="526.763" x2="192.003" y2="540.146" gradientUnits="userSpaceOnUse">
<stop stop-color="white"/>
<stop offset="1" stop-color="white" stop-opacity="0.79"/>
</linearGradient>
<linearGradient id="paint44_linear" x1="169.748" y1="504.037" x2="113.682" y2="516.782" gradientUnits="userSpaceOnUse">
<stop stop-color="white"/>
<stop offset="1" stop-color="white" stop-opacity="0.47"/>
</linearGradient>
<linearGradient id="paint45_linear" x1="169.748" y1="509.668" x2="113.682" y2="522.413" gradientUnits="userSpaceOnUse">
<stop stop-color="white"/>
<stop offset="1" stop-color="white" stop-opacity="0.47"/>
</linearGradient>
<linearGradient id="paint46_linear" x1="191.843" y1="437.032" x2="191.843" y2="454.512" gradientUnits="userSpaceOnUse">
<stop stop-color="#55B8FF"/>
<stop offset="1" stop-color="#517EB8"/>
</linearGradient>
<linearGradient id="paint47_linear" x1="212.153" y1="452.663" x2="212.153" y2="488.463" gradientUnits="userSpaceOnUse">
<stop stop-color="#55B8FF"/>
<stop offset="1" stop-color="#517EB8"/>
</linearGradient>
<linearGradient id="paint48_linear" x1="212.153" y1="442.197" x2="212.153" y2="477.997" gradientUnits="userSpaceOnUse">
<stop stop-color="#55B8FF"/>
<stop offset="1" stop-color="#517EB8"/>
</linearGradient>
<linearGradient id="paint49_linear" x1="212.153" y1="447.794" x2="212.153" y2="483.594" gradientUnits="userSpaceOnUse">
<stop stop-color="#55B8FF"/>
<stop offset="1" stop-color="#517EB8"/>
</linearGradient>
<linearGradient id="paint50_linear" x1="116.634" y1="255.521" x2="91.761" y2="244.007" gradientUnits="userSpaceOnUse">
<stop stop-color="#23A1FD" stop-opacity="0.71"/>
<stop offset="1" stop-color="#00AEEA" stop-opacity="0.19"/>
</linearGradient>
<linearGradient id="paint51_linear" x1="116.634" y1="255.521" x2="91.761" y2="244.007" gradientUnits="userSpaceOnUse">
<stop stop-color="#23A1FD" stop-opacity="0.71"/>
<stop offset="1" stop-color="#00AEEA" stop-opacity="0.19"/>
</linearGradient>
<linearGradient id="paint52_linear" x1="116.634" y1="255.521" x2="91.761" y2="244.007" gradientUnits="userSpaceOnUse">
<stop stop-color="#23A1FD" stop-opacity="0.71"/>
<stop offset="1" stop-color="#00AEEA" stop-opacity="0.19"/>
</linearGradient>
<linearGradient id="paint53_linear" x1="116.634" y1="255.521" x2="91.761" y2="244.007" gradientUnits="userSpaceOnUse">
<stop stop-color="#23A1FD" stop-opacity="0.71"/>
<stop offset="1" stop-color="#00AEEA" stop-opacity="0.19"/>
</linearGradient>
</defs>
</svg>
