<svg width="652" height="562" viewBox="0 0 652 562" fill="none" xmlns="http://www.w3.org/2000/svg">
<path opacity="0.4" fill-rule="evenodd" clip-rule="evenodd" d="M162.863 373.811L30.0747 313.526C27.7977 312.464 26 309.662 26 307.15V145.907C26 143.492 27.7977 142.333 30.0747 143.396L96.4687 173.538L162.863 203.68C165.14 204.743 166.937 207.545 166.937 210.057V371.299C167.057 373.715 165.14 374.874 162.863 373.811Z" fill="url(#paint0_linear)"/>
<path d="M136.695 233.431L136.695 233.432L136.707 233.436C136.961 233.535 137.241 233.558 137.47 233.416C137.705 233.269 137.804 233 137.804 232.699C137.804 232.432 137.704 232.135 137.551 231.886C137.4 231.639 137.176 231.404 136.895 231.292L50.1449 192.301L50.145 192.301L50.133 192.296C49.8568 192.189 49.5765 192.204 49.3588 192.356C49.1435 192.507 49.0361 192.76 49.0361 193.033C49.0361 193.3 49.1362 193.597 49.289 193.847C49.4403 194.094 49.6644 194.329 49.9454 194.44L136.695 233.431Z" fill="url(#paint1_linear)" stroke="white" stroke-width="0.5"/>
<path d="M50.1449 198.961L50.145 198.961L50.133 198.956C49.8568 198.849 49.5765 198.864 49.3588 199.016C49.1435 199.167 49.0361 199.42 49.0361 199.694C49.0361 199.961 49.1362 200.257 49.289 200.507C49.4403 200.754 49.6644 200.989 49.9454 201.101L136.684 240.087C136.95 240.238 137.244 240.266 137.481 240.1C137.708 239.941 137.804 239.656 137.804 239.359C137.804 239.092 137.704 238.796 137.551 238.546C137.4 238.299 137.176 238.064 136.895 237.952L50.1449 198.961Z" fill="url(#paint2_linear)" stroke="white" stroke-width="0.5"/>
<path d="M50.6976 205.621L50.6978 205.621L50.6858 205.617C50.4095 205.509 50.1292 205.524 49.9116 205.676C49.6962 205.827 49.5889 206.08 49.5889 206.354C49.5889 206.621 49.689 206.918 49.8417 207.167C49.993 207.414 50.2172 207.649 50.4981 207.761L137.236 246.747C137.503 246.898 137.797 246.926 138.034 246.76C138.261 246.601 138.357 246.316 138.357 246.02C138.357 245.753 138.256 245.456 138.104 245.206C137.952 244.959 137.728 244.724 137.447 244.613L50.6976 205.621Z" fill="url(#paint3_linear)" stroke="white" stroke-width="0.5"/>
<path d="M109.361 214.502L109.361 214.502L109.373 214.507C109.627 214.606 109.907 214.628 110.136 214.486C110.371 214.34 110.47 214.071 110.47 213.77C110.47 213.503 110.37 213.206 110.217 212.956C110.066 212.709 109.842 212.474 109.561 212.363L50.145 185.641L50.1451 185.641L50.133 185.636C49.8568 185.529 49.5765 185.543 49.3588 185.696C49.1435 185.847 49.0361 186.1 49.0361 186.373C49.0361 186.64 49.1362 186.937 49.289 187.187C49.4403 187.434 49.6644 187.669 49.9454 187.78L109.361 214.502Z" fill="url(#paint4_linear)" stroke="white" stroke-width="0.5"/>
<path d="M136.695 274.345L136.695 274.345L136.707 274.35C136.961 274.448 137.241 274.471 137.47 274.329C137.705 274.182 137.804 273.913 137.804 273.612C137.804 273.345 137.704 273.049 137.551 272.799C137.4 272.552 137.176 272.317 136.895 272.205L50.1449 233.214L50.145 233.214L50.133 233.209C49.8568 233.102 49.5765 233.117 49.3588 233.269C49.1435 233.42 49.0361 233.673 49.0361 233.947C49.0361 234.213 49.1362 234.51 49.289 234.76C49.4403 235.007 49.6644 235.242 49.9454 235.354L136.695 274.345Z" fill="url(#paint5_linear)" stroke="white" stroke-width="0.5"/>
<path d="M50.1449 239.874L50.145 239.874L50.133 239.869C49.8568 239.762 49.5765 239.777 49.3588 239.929C49.1435 240.08 49.0361 240.333 49.0361 240.607C49.0361 240.874 49.1362 241.17 49.289 241.42C49.4403 241.667 49.6644 241.902 49.9454 242.014L136.684 281C136.95 281.151 137.244 281.179 137.481 281.013C137.708 280.854 137.804 280.569 137.804 280.272C137.804 280.006 137.704 279.709 137.551 279.459C137.4 279.212 137.176 278.977 136.895 278.866L50.1449 239.874Z" fill="url(#paint6_linear)" stroke="white" stroke-width="0.5"/>
<path d="M50.6976 246.535L50.6978 246.534L50.6858 246.53C50.4095 246.422 50.1292 246.437 49.9116 246.589C49.6962 246.74 49.5889 246.993 49.5889 247.267C49.5889 247.534 49.689 247.831 49.8417 248.08C49.993 248.327 50.2172 248.562 50.4981 248.674L137.236 287.66C137.503 287.811 137.797 287.839 138.034 287.673C138.261 287.514 138.357 287.229 138.357 286.933C138.357 286.666 138.256 286.369 138.104 286.119C137.952 285.872 137.728 285.637 137.447 285.526L50.6976 246.535Z" fill="url(#paint7_linear)" stroke="white" stroke-width="0.5"/>
<path d="M109.361 255.414L109.361 255.415L109.373 255.419C109.627 255.518 109.907 255.541 110.136 255.399C110.371 255.252 110.47 254.983 110.47 254.682C110.47 254.415 110.37 254.118 110.217 253.869C110.066 253.622 109.842 253.387 109.561 253.275L50.145 226.554L50.1451 226.553L50.133 226.549C49.8568 226.441 49.5765 226.456 49.3588 226.608C49.1435 226.759 49.0361 227.012 49.0361 227.286C49.0361 227.553 49.1362 227.85 49.289 228.099C49.4403 228.346 49.6644 228.581 49.9454 228.693L109.361 255.414Z" fill="url(#paint8_linear)" stroke="white" stroke-width="0.5"/>
<path d="M136.695 330.481L136.695 330.482L136.707 330.486C136.961 330.585 137.241 330.608 137.47 330.466C137.705 330.319 137.804 330.05 137.804 329.749C137.804 329.482 137.704 329.185 137.551 328.936C137.4 328.689 137.176 328.454 136.895 328.342L50.1449 289.351L50.145 289.351L50.133 289.346C49.8568 289.239 49.5765 289.253 49.3588 289.406C49.1435 289.556 49.0361 289.81 49.0361 290.083C49.0361 290.35 49.1362 290.647 49.289 290.897C49.4403 291.144 49.6644 291.379 49.9454 291.49L136.695 330.481Z" fill="url(#paint9_linear)" stroke="white" stroke-width="0.5"/>
<path d="M50.1449 296.011L50.145 296.011L50.133 296.006C49.8568 295.899 49.5765 295.914 49.3588 296.066C49.1435 296.217 49.0361 296.47 49.0361 296.743C49.0361 297.01 49.1362 297.307 49.289 297.557C49.4403 297.804 49.6644 298.039 49.9454 298.15L136.684 337.136C136.95 337.288 137.244 337.316 137.481 337.15C137.708 336.991 137.804 336.706 137.804 336.409C137.804 336.142 137.704 335.845 137.551 335.596C137.4 335.349 137.176 335.114 136.895 335.002L50.1449 296.011Z" fill="url(#paint10_linear)" stroke="white" stroke-width="0.5"/>
<path d="M50.6976 302.671L50.6978 302.671L50.6858 302.666C50.4095 302.559 50.1292 302.574 49.9116 302.726C49.6962 302.877 49.5889 303.13 49.5889 303.404C49.5889 303.67 49.689 303.967 49.8417 304.217C49.993 304.464 50.2172 304.699 50.4981 304.811L137.236 343.797C137.503 343.948 137.797 343.976 138.034 343.81C138.261 343.651 138.357 343.366 138.357 343.069C138.357 342.802 138.256 342.506 138.104 342.256C137.952 342.009 137.728 341.774 137.447 341.662L50.6976 302.671Z" fill="url(#paint11_linear)" stroke="white" stroke-width="0.5"/>
<path d="M109.361 311.552L109.361 311.552L109.373 311.557C109.627 311.655 109.907 311.678 110.136 311.536C110.371 311.389 110.47 311.12 110.47 310.819C110.47 310.552 110.37 310.256 110.217 310.006C110.066 309.759 109.842 309.524 109.561 309.412L50.145 282.691L50.1451 282.691L50.133 282.686C49.8568 282.578 49.5765 282.593 49.3588 282.746C49.1435 282.896 49.0361 283.149 49.0361 283.423C49.0361 283.69 49.1362 283.987 49.289 284.236C49.4403 284.483 49.6644 284.719 49.9454 284.83L109.361 311.552Z" fill="url(#paint12_linear)" stroke="white" stroke-width="0.5"/>
<defs>
<linearGradient id="paint0_linear" x1="11.5745" y1="104.914" x2="208.639" y2="293.818" gradientUnits="userSpaceOnUse">
<stop offset="0.3225" stop-color="#23A1FD" stop-opacity="0.2"/>
<stop offset="0.6149" stop-color="#23A1FD" stop-opacity="0.24"/>
<stop offset="1" stop-color="#8093BB" stop-opacity="0.59"/>
</linearGradient>
<linearGradient id="paint1_linear" x1="160.485" y1="259.363" x2="74.9375" y2="278.975" gradientUnits="userSpaceOnUse">
<stop stop-color="white"/>
<stop offset="1" stop-color="white" stop-opacity="0.79"/>
</linearGradient>
<linearGradient id="paint2_linear" x1="160.485" y1="266.082" x2="74.93" y2="285.678" gradientUnits="userSpaceOnUse">
<stop stop-color="white"/>
<stop offset="1" stop-color="white" stop-opacity="0.79"/>
</linearGradient>
<linearGradient id="paint3_linear" x1="161.038" y1="272.743" x2="75.4827" y2="292.338" gradientUnits="userSpaceOnUse">
<stop stop-color="white"/>
<stop offset="1" stop-color="white" stop-opacity="0.79"/>
</linearGradient>
<linearGradient id="paint4_linear" x1="126.05" y1="232.584" x2="66.9196" y2="245.967" gradientUnits="userSpaceOnUse">
<stop stop-color="white"/>
<stop offset="1" stop-color="white" stop-opacity="0.79"/>
</linearGradient>
<linearGradient id="paint5_linear" x1="160.485" y1="300.277" x2="74.9375" y2="319.888" gradientUnits="userSpaceOnUse">
<stop stop-color="white"/>
<stop offset="1" stop-color="white" stop-opacity="0.79"/>
</linearGradient>
<linearGradient id="paint6_linear" x1="160.485" y1="306.996" x2="74.93" y2="326.591" gradientUnits="userSpaceOnUse">
<stop stop-color="white"/>
<stop offset="1" stop-color="white" stop-opacity="0.79"/>
</linearGradient>
<linearGradient id="paint7_linear" x1="161.038" y1="313.656" x2="75.4827" y2="333.251" gradientUnits="userSpaceOnUse">
<stop stop-color="white"/>
<stop offset="1" stop-color="white" stop-opacity="0.79"/>
</linearGradient>
<linearGradient id="paint8_linear" x1="126.05" y1="273.496" x2="66.9196" y2="286.88" gradientUnits="userSpaceOnUse">
<stop stop-color="white"/>
<stop offset="1" stop-color="white" stop-opacity="0.79"/>
</linearGradient>
<linearGradient id="paint9_linear" x1="160.485" y1="356.413" x2="74.9375" y2="376.025" gradientUnits="userSpaceOnUse">
<stop stop-color="white"/>
<stop offset="1" stop-color="white" stop-opacity="0.79"/>
</linearGradient>
<linearGradient id="paint10_linear" x1="160.485" y1="363.132" x2="74.93" y2="382.728" gradientUnits="userSpaceOnUse">
<stop stop-color="white"/>
<stop offset="1" stop-color="white" stop-opacity="0.79"/>
</linearGradient>
<linearGradient id="paint11_linear" x1="161.038" y1="369.792" x2="75.4827" y2="389.388" gradientUnits="userSpaceOnUse">
<stop stop-color="white"/>
<stop offset="1" stop-color="white" stop-opacity="0.79"/>
</linearGradient>
<linearGradient id="paint12_linear" x1="126.05" y1="329.634" x2="66.9196" y2="343.017" gradientUnits="userSpaceOnUse">
<stop stop-color="white"/>
<stop offset="1" stop-color="white" stop-opacity="0.79"/>
</linearGradient>
</defs>
</svg>
