<svg width="652" height="562" viewBox="0 0 652 562" fill="none" xmlns="http://www.w3.org/2000/svg">
<path opacity="0.5" fill-rule="evenodd" clip-rule="evenodd" d="M596.614 199.946C596.614 193.92 591.962 186.862 585.98 184.279L244.87 34.8658C236.904 31.5358 232.614 32.4872 232.614 39.1474V52.2856L596.393 209.936V199.946H596.614Z" fill="url(#paint0_linear)"/>
<path opacity="0.5" fill-rule="evenodd" clip-rule="evenodd" d="M232 51.5171V264.17C232 267.621 392.41 335.049 395.832 336.528L590.501 421.802C593.796 423.281 596.584 421.703 596.584 418.253V209.948L232 51.5171Z" fill="url(#paint1_linear)"/>
<path opacity="0.7" d="M262.598 86.784L264.377 83.3343L267.437 84.6666L264.035 90.1298L264.059 94.5905L261.213 93.3516L261.19 88.9847L257.713 80.4332L260.787 81.7717L262.598 86.784ZM275.718 95.2318C275.726 96.6796 275.374 97.6541 274.664 98.1552C273.958 98.6533 272.964 98.6232 271.681 98.065C270.452 97.5296 269.47 96.6891 268.736 95.5435C268.007 94.4 267.639 93.1226 267.631 91.7112C267.624 90.2686 267.973 89.3034 268.679 88.8158C269.39 88.3251 270.388 88.3598 271.675 88.9201C272.472 89.2667 273.176 89.7577 273.788 90.3931C274.4 91.0285 274.872 91.7641 275.205 92.5999C275.542 93.4327 275.713 94.3099 275.718 95.2318ZM270.47 92.947C270.474 93.7073 270.57 94.3285 270.758 94.8104C270.946 95.2872 271.259 95.621 271.698 95.8119C272.132 96.0008 272.436 95.9357 272.61 95.6167C272.789 95.2945 272.876 94.7532 272.872 93.9929C272.868 93.2377 272.775 92.628 272.592 92.1637C272.408 91.6995 272.098 91.3719 271.659 91.181C271.23 90.9942 270.924 91.0531 270.74 91.3575C270.556 91.6568 270.466 92.1866 270.47 92.947ZM282.656 102.687L282.3 101.433L282.135 101.361C281.904 101.666 281.579 101.836 281.161 101.872C280.747 101.905 280.259 101.799 279.697 101.554C278.805 101.166 278.11 100.583 277.611 99.8049C277.113 99.0214 276.861 98.1141 276.855 97.0829L276.824 91.3176L279.62 92.5347L279.646 97.3703C279.649 97.9484 279.725 98.4181 279.874 98.7793C280.028 99.1425 280.277 99.3989 280.62 99.5483C281.102 99.7579 281.444 99.7016 281.647 99.3794C281.849 99.052 281.948 98.3961 281.943 97.4118L281.922 93.537L284.718 94.7541L284.765 103.605L282.656 102.687ZM291.081 97.3683C291.324 97.4741 291.555 97.5956 291.775 97.7327L291.932 97.8324L291.697 100.606C291.468 100.444 291.151 100.275 290.746 100.098C290.136 99.8328 289.693 99.7934 289.418 99.9803C289.143 100.162 289.007 100.539 289.01 101.112L289.034 105.463L286.238 104.246L286.191 95.3954L288.272 96.3012L288.715 97.905L288.851 97.9642C289.082 97.5971 289.404 97.3607 289.817 97.2548C290.235 97.1457 290.656 97.1836 291.081 97.3683ZM299.431 110.146C298.296 109.652 297.415 108.889 296.786 107.857C296.162 106.821 295.847 105.606 295.839 104.21C295.832 102.778 296.14 101.808 296.766 101.301C297.395 100.795 298.294 100.797 299.462 101.306C299.839 101.469 300.215 101.678 300.592 101.93C300.969 102.183 301.266 102.415 301.481 102.629L301.122 103.571C300.859 103.343 300.573 103.124 300.262 102.917C299.952 102.704 299.678 102.545 299.44 102.441C297.847 101.748 297.057 102.511 297.069 104.73C297.075 105.782 297.272 106.673 297.661 107.404C298.055 108.136 298.633 108.668 299.396 109.001C300.049 109.285 300.718 109.423 301.403 109.414L301.409 110.563C300.886 110.631 300.227 110.492 299.431 110.146ZM309.56 110.121C309.567 111.517 309.251 112.468 308.612 112.974C307.973 113.475 307.086 113.478 305.951 112.985C305.251 112.68 304.628 112.229 304.082 111.633C303.537 111.037 303.115 110.339 302.816 109.538C302.517 108.738 302.365 107.887 302.36 106.986C302.352 105.591 302.666 104.644 303.301 104.146C303.935 103.643 304.82 103.638 305.954 104.132C307.051 104.609 307.923 105.386 308.57 106.463C309.223 107.542 309.553 108.762 309.56 110.121ZM303.59 107.522C303.596 108.615 303.8 109.536 304.204 110.283C304.607 111.03 305.197 111.573 305.974 111.911C306.751 112.249 307.338 112.222 307.736 111.829C308.138 111.432 308.336 110.684 308.33 109.585C308.324 108.497 308.117 107.583 307.709 106.844C307.306 106.102 306.711 105.56 305.924 105.218C305.147 104.88 304.563 104.903 304.17 105.288C303.777 105.673 303.584 106.418 303.59 107.522ZM314.742 107.958C315.09 108.109 315.402 108.276 315.679 108.459L315.521 109.591C315.196 109.371 314.91 109.208 314.662 109.1C314.028 108.824 313.486 108.868 313.036 109.234C312.591 109.601 312.371 110.204 312.375 111.043L312.4 115.636L311.213 115.119L311.167 106.557L312.147 106.984L312.291 108.629L312.348 108.654C312.636 108.223 312.984 107.946 313.393 107.822C313.801 107.699 314.251 107.744 314.742 107.958ZM320.044 119.12C318.886 118.616 317.969 117.832 317.292 116.768C316.621 115.707 316.282 114.492 316.274 113.122C316.267 111.742 316.571 110.78 317.186 110.238C317.806 109.697 318.641 109.655 319.689 110.112C320.671 110.539 321.45 111.232 322.026 112.189C322.602 113.141 322.893 114.195 322.899 115.351L322.903 116.172L317.505 113.821C317.534 114.837 317.769 115.7 318.211 116.412C318.657 117.126 319.28 117.657 320.081 118.006C320.925 118.373 321.758 118.544 322.58 118.517L322.587 119.673C322.168 119.689 321.771 119.656 321.395 119.575C321.023 119.502 320.573 119.35 320.044 119.12ZM319.681 111.191C319.052 110.917 318.55 110.922 318.176 111.206C317.806 111.492 317.59 112.017 317.528 112.779L321.625 114.563C321.621 113.745 321.45 113.048 321.114 112.47C320.778 111.887 320.301 111.461 319.681 111.191ZM331.444 115.245C332.474 115.693 333.274 116.426 333.846 117.444C334.422 118.458 334.713 119.669 334.721 121.075C334.728 122.481 334.446 123.449 333.873 123.979C333.305 124.506 332.511 124.548 331.491 124.103C330.981 123.881 330.514 123.577 330.088 123.189C329.668 122.798 329.313 122.327 329.025 121.775L328.939 121.738L328.695 122.73L327.844 122.36L327.779 110.204L328.966 110.721L328.982 113.674C328.985 114.335 328.969 114.921 328.934 115.43L328.991 115.455C329.54 114.842 330.357 114.772 331.444 115.245ZM331.278 116.256C330.468 115.903 329.885 115.904 329.531 116.259C329.176 116.608 329.002 117.385 329.008 118.588C329.014 119.791 329.203 120.733 329.572 121.413C329.942 122.089 330.532 122.603 331.343 122.955C332.072 123.273 332.614 123.22 332.968 122.798C333.322 122.37 333.497 121.612 333.491 120.524C333.485 119.409 333.302 118.501 332.941 117.798C332.581 117.096 332.027 116.582 331.278 116.256ZM341.186 128.168L340.943 126.847L340.886 126.822C340.498 127.188 340.109 127.383 339.719 127.405C339.334 127.424 338.851 127.308 338.27 127.054C337.493 126.716 336.881 126.232 336.436 125.601C335.995 124.973 335.772 124.255 335.768 123.448C335.759 121.719 337.019 121.364 339.55 122.382L340.88 122.914L340.877 122.383C340.873 121.711 340.737 121.158 340.469 120.724C340.205 120.287 339.782 119.942 339.2 119.689C338.547 119.405 337.81 119.302 336.987 119.38L336.618 118.23C337.002 118.168 337.423 118.172 337.88 118.241C338.342 118.313 338.804 118.449 339.266 118.65C340.201 119.057 340.893 119.584 341.343 120.232C341.799 120.883 342.029 121.708 342.034 122.708L342.065 128.551L341.186 128.168ZM338.5 126.087C339.239 126.409 339.817 126.439 340.234 126.179C340.656 125.921 340.864 125.394 340.86 124.597L340.856 123.824L339.669 123.362C338.726 122.987 338.045 122.852 337.627 122.956C337.214 123.056 337.009 123.406 337.012 124.005C337.015 124.474 337.145 124.887 337.404 125.243C337.667 125.602 338.033 125.884 338.5 126.087ZM349.423 131.754L349.393 126.215C349.39 125.518 349.241 124.933 348.949 124.463C348.656 123.993 348.2 123.623 347.58 123.353C346.76 122.996 346.161 122.977 345.782 123.295C345.404 123.613 345.217 124.33 345.223 125.444L345.247 129.936L344.06 129.42L344.015 120.858L344.98 121.278L345.179 122.534L345.236 122.559C345.477 122.243 345.816 122.065 346.254 122.027C346.691 121.984 347.179 122.079 347.717 122.314C348.661 122.725 349.373 123.284 349.852 123.991C350.331 124.694 350.574 125.592 350.58 126.685L350.61 132.271L349.423 131.754ZM353.747 129.264C353.95 129.036 354.26 128.755 354.677 128.422L357.192 126.594L358.601 127.208L355.445 129.474L358.868 135.866L357.431 135.24L354.642 129.989L353.753 130.444L353.77 133.647L352.597 133.136L352.533 120.981L353.705 121.491L353.74 127.936C353.741 128.223 353.724 128.657 353.689 129.239L353.747 129.264ZM361.02 136.803L359.833 136.286L359.788 127.724L360.974 128.241L361.02 136.803ZM359.675 125.361C359.674 125.064 359.739 124.877 359.872 124.799C360.005 124.717 360.171 124.719 360.371 124.806C360.562 124.889 360.727 125.031 360.866 125.232C361.005 125.433 361.075 125.679 361.077 125.971C361.078 126.262 361.01 126.451 360.873 126.537C360.735 126.617 360.571 126.616 360.38 126.533C360.18 126.446 360.013 126.303 359.879 126.104C359.745 125.9 359.677 125.652 359.675 125.361ZM368.442 140.034L368.412 134.495C368.409 133.798 368.26 133.214 367.968 132.743C367.675 132.273 367.219 131.903 366.599 131.633C365.78 131.276 365.18 131.257 364.801 131.575C364.423 131.893 364.236 132.61 364.242 133.724L364.266 138.216L363.079 137.7L363.034 129.138L363.999 129.558L364.198 130.814L364.255 130.839C364.496 130.523 364.835 130.345 365.273 130.307C365.71 130.264 366.198 130.359 366.737 130.594C367.68 131.005 368.392 131.564 368.871 132.271C369.351 132.974 369.593 133.872 369.599 134.965L369.629 140.551L368.442 140.034ZM377.984 135.646L377.989 136.467L376.538 136.022C376.673 136.263 376.793 136.554 376.9 136.897C377.006 137.234 377.06 137.588 377.062 137.957C377.067 138.796 376.808 139.351 376.286 139.623C375.765 139.894 375.046 139.831 374.131 139.432C373.897 139.331 373.678 139.214 373.473 139.084C372.969 139.155 372.719 139.412 372.721 139.855C372.722 140.089 372.811 140.302 372.988 140.494C373.165 140.68 373.468 140.866 373.897 141.053L375.284 141.657C376.133 142.026 376.784 142.505 377.239 143.093C377.699 143.682 377.931 144.35 377.935 145.094C377.94 146.042 377.596 146.612 376.902 146.804C376.209 147.001 375.195 146.809 373.86 146.228C372.836 145.782 372.043 145.229 371.483 144.569C370.928 143.912 370.649 143.203 370.645 142.443C370.642 141.922 370.792 141.538 371.095 141.291C371.398 141.043 371.826 140.972 372.378 141.078C372.177 140.891 372.007 140.664 371.868 140.396C371.733 140.129 371.665 139.858 371.664 139.582C371.662 139.269 371.737 139.029 371.888 138.861C372.039 138.693 372.279 138.572 372.607 138.496C372.2 138.137 371.868 137.683 371.608 137.134C371.353 136.586 371.224 136.031 371.221 135.469C371.216 134.531 371.469 133.922 371.982 133.641C372.494 133.355 373.222 133.417 374.165 133.828C374.575 134.006 374.945 134.219 375.274 134.467L377.984 135.646ZM371.788 142.925C371.791 143.389 371.972 143.818 372.33 144.213C372.689 144.609 373.202 144.951 373.869 145.242C374.866 145.676 375.601 145.832 376.076 145.712C376.556 145.598 376.794 145.263 376.791 144.706C376.789 144.242 376.656 143.862 376.393 143.566C376.13 143.275 375.636 142.971 374.911 142.656L373.489 142.037C372.95 141.802 372.531 141.76 372.232 141.911C371.934 142.061 371.786 142.399 371.788 142.925ZM372.393 135.948C372.397 136.547 372.554 137.068 372.865 137.51C373.177 137.952 373.609 138.293 374.162 138.534C375.32 139.038 375.896 138.676 375.89 137.447C375.883 136.16 375.293 135.262 374.12 134.751C373.563 134.509 373.135 134.486 372.836 134.683C372.537 134.881 372.39 135.302 372.393 135.948ZM386.175 147.91C385.665 147.688 385.197 147.383 384.772 146.995C384.351 146.604 383.997 146.133 383.708 145.582L383.623 145.544C383.682 146.069 383.714 146.556 383.716 147.003L383.735 150.527L382.548 150.01L382.482 137.604L383.447 138.025L383.618 139.268L383.675 139.293C383.977 138.957 384.331 138.773 384.735 138.741C385.139 138.709 385.603 138.807 386.127 139.036C387.167 139.488 387.969 140.225 388.536 141.246C389.107 142.269 389.397 143.48 389.404 144.881C389.412 146.288 389.129 147.256 388.557 147.786C387.989 148.313 387.195 148.354 386.175 147.91ZM385.962 140.062C385.161 139.714 384.583 139.704 384.228 140.033C383.873 140.361 383.694 141.052 383.69 142.105L383.691 142.394C383.698 143.597 383.886 144.539 384.256 145.22C384.625 145.895 385.216 146.409 386.026 146.762C386.703 147.057 387.23 146.988 387.608 146.555C387.991 146.124 388.18 145.382 388.174 144.33C388.169 143.263 387.971 142.361 387.582 141.625C387.198 140.886 386.658 140.365 385.962 140.062ZM392.237 150.394L391.05 149.877L390.985 137.721L392.172 138.238L392.237 150.394ZM399.115 153.388L398.873 152.067L398.816 152.042C398.428 152.408 398.039 152.602 397.649 152.625C397.264 152.644 396.781 152.527 396.199 152.274C395.422 151.936 394.811 151.452 394.365 150.821C393.924 150.193 393.702 149.475 393.697 148.668C393.688 146.939 394.949 146.583 397.48 147.602L398.809 148.134L398.806 147.603C398.803 146.931 398.667 146.378 398.398 145.944C398.134 145.507 397.711 145.162 397.13 144.909C396.477 144.625 395.739 144.522 394.917 144.6L394.547 143.449C394.932 143.388 395.353 143.392 395.81 143.461C396.271 143.532 396.733 143.669 397.196 143.87C398.13 144.277 398.822 144.804 399.273 145.452C399.728 146.103 399.958 146.928 399.964 147.928L399.995 153.771L399.115 153.388ZM396.429 151.307C397.168 151.628 397.746 151.659 398.163 151.399C398.585 151.141 398.794 150.614 398.79 149.817L398.785 149.044L397.599 148.582C396.655 148.207 395.974 148.072 395.557 148.176C395.143 148.276 394.938 148.626 394.942 149.225C394.944 149.694 395.075 150.107 395.333 150.463C395.597 150.822 395.962 151.103 396.429 151.307ZM404.516 154.827C404.726 154.919 404.928 154.991 405.123 155.045C405.319 155.094 405.473 155.125 405.588 155.138L405.593 156.13C405.465 156.142 405.274 156.114 405.022 156.045C404.774 155.984 404.55 155.91 404.35 155.823C402.834 155.163 402.072 153.961 402.062 152.216L402.035 147.123L400.913 146.634L400.909 146.009L402.029 145.959L402.52 144.348L403.206 144.647L403.217 146.632L405.49 147.621L405.496 148.629L403.222 147.639L403.249 152.678C403.252 153.194 403.366 153.638 403.591 154.012C403.817 154.385 404.125 154.657 404.516 154.827ZM410.201 150.677L408.206 149.809L408.246 157.363L407.059 156.846L407.019 149.292L405.617 148.682L405.614 148.096L407.013 148.238L407.011 147.761C406.999 145.657 407.835 144.971 409.518 145.704C409.933 145.884 410.419 146.187 410.978 146.612L410.676 147.517C410.217 147.157 409.826 146.906 409.502 146.765C409.054 146.57 408.724 146.589 408.511 146.824C408.298 147.054 408.194 147.528 408.197 148.246L408.2 148.801L410.195 149.67L410.201 150.677ZM417.954 157.311C417.962 158.707 417.646 159.658 417.006 160.164C416.367 160.665 415.48 160.668 414.346 160.175C413.645 159.87 413.022 159.419 412.477 158.823C411.931 158.227 411.509 157.529 411.21 156.728C410.911 155.928 410.759 155.077 410.754 154.176C410.747 152.781 411.06 151.834 411.695 151.336C412.33 150.833 413.214 150.828 414.349 151.322C415.445 151.799 416.317 152.576 416.965 153.653C417.617 154.732 417.947 155.952 417.954 157.311ZM411.984 154.712C411.99 155.805 412.194 156.726 412.598 157.473C413.001 158.22 413.592 158.763 414.369 159.101C415.146 159.439 415.733 159.412 416.13 159.019C416.532 158.622 416.73 157.874 416.724 156.775C416.719 155.687 416.512 154.773 416.104 154.034C415.7 153.292 415.105 152.75 414.319 152.408C413.542 152.07 412.957 152.093 412.564 152.478C412.172 152.863 411.978 153.608 411.984 154.712ZM423.136 155.148C423.484 155.299 423.796 155.466 424.073 155.649L423.915 156.781C423.59 156.561 423.304 156.398 423.056 156.29C422.422 156.014 421.881 156.058 421.431 156.424C420.986 156.791 420.765 157.394 420.77 158.233L420.794 162.826L419.607 162.309L419.562 153.747L420.541 154.174L420.686 155.819L420.743 155.844C421.031 155.413 421.379 155.136 421.787 155.012C422.195 154.889 422.645 154.934 423.136 155.148ZM435.116 169.061L435.086 163.491C435.082 162.809 434.946 162.24 434.677 161.786C434.409 161.326 433.993 160.973 433.431 160.728C432.692 160.407 432.147 160.401 431.797 160.711C431.447 161.021 431.274 161.657 431.279 162.621L431.305 167.402L430.118 166.885L430.088 161.315C430.085 160.633 429.948 160.064 429.68 159.61C429.411 159.15 428.993 158.796 428.426 158.549C427.682 158.226 427.138 158.233 426.792 158.571C426.452 158.906 426.284 159.628 426.29 160.737L426.314 165.229L425.127 164.712L425.082 156.15L426.047 156.571L426.246 157.827L426.303 157.851C426.525 157.532 426.838 157.344 427.242 157.286C427.651 157.23 428.108 157.312 428.613 157.532C429.838 158.065 430.641 158.898 431.023 160.031L431.08 160.056C431.311 159.71 431.648 159.503 432.09 159.435C432.532 159.368 433.036 159.458 433.604 159.705C434.49 160.091 435.154 160.629 435.595 161.32C436.041 162.008 436.267 162.898 436.273 163.992L436.303 169.578L435.116 169.061Z" fill="#303778" fill-opacity="0.7"/>
<path opacity="0.6" fill-rule="evenodd" clip-rule="evenodd" d="M245.648 49.0343L243.812 48.1508C242.467 47.4898 241.475 45.6611 241.591 44.2839C241.716 42.8083 242.915 42.1776 244.251 42.937L246.087 43.8205C247.432 44.4816 248.424 46.3102 248.308 47.6874C248.183 49.163 246.993 49.6953 245.648 49.0343Z" fill="url(#paint2_linear)"/>
<path opacity="0.6" fill-rule="evenodd" clip-rule="evenodd" d="M256.678 53.7916L254.842 52.9081C253.498 52.2471 252.506 50.4185 252.622 49.0412C252.746 47.5656 253.945 46.935 255.282 47.6943L257.117 48.5779C258.462 49.2389 259.454 51.0675 259.338 52.4447C259.214 53.9203 258.023 54.4526 256.678 53.7916Z" fill="url(#paint3_linear)"/>
<path opacity="0.4" fill-rule="evenodd" clip-rule="evenodd" d="M267.708 58.5489L265.873 57.6654C264.528 57.0044 263.536 55.1758 263.652 53.7986C263.776 52.323 264.975 51.6923 266.312 52.4517L268.147 53.3352C269.492 53.9962 270.484 55.8248 270.368 57.2021C270.244 58.6776 269.053 59.21 267.708 58.5489Z" fill="url(#paint4_linear)"/>
<defs>
<linearGradient id="paint0_linear" x1="561.684" y1="121.512" x2="227.423" y2="-115.332" gradientUnits="userSpaceOnUse">
<stop stop-color="#8191B8" stop-opacity="0.68"/>
<stop offset="1" stop-color="#CCCCCC" stop-opacity="0.15"/>
</linearGradient>
<linearGradient id="paint1_linear" x1="596.612" y1="214.281" x2="207.717" y2="199.292" gradientUnits="userSpaceOnUse">
<stop stop-color="#E2E2E2"/>
<stop offset="1" stop-color="#D0DFEA" stop-opacity="0"/>
</linearGradient>
<linearGradient id="paint2_linear" x1="245.225" y1="42.717" x2="244.895" y2="49.2232" gradientUnits="userSpaceOnUse">
<stop stop-color="#5CCFD7" stop-opacity="0.45"/>
<stop offset="1" stop-color="#23A1FD"/>
</linearGradient>
<linearGradient id="paint3_linear" x1="256.255" y1="47.4743" x2="255.925" y2="53.9805" gradientUnits="userSpaceOnUse">
<stop stop-color="#2C94E8" stop-opacity="0.31"/>
<stop offset="1" stop-color="#4D6BA5"/>
</linearGradient>
<linearGradient id="paint4_linear" x1="267.285" y1="52.2317" x2="266.955" y2="58.7379" gradientUnits="userSpaceOnUse">
<stop stop-color="#2C94E8" stop-opacity="0.31"/>
<stop offset="1" stop-color="#4D6BA5"/>
</linearGradient>
</defs>
</svg>
