<svg width="652" height="562" viewBox="0 0 652 562" fill="none" xmlns="http://www.w3.org/2000/svg">
<g filter="url(#filter0_d)">
<path fill-rule="evenodd" clip-rule="evenodd" d="M495.621 239.194C495.624 237.715 494.234 235.839 492.588 235.146L166.27 90.2768C165.637 89.9798 164.623 89.9778 164.242 90.0757C159.044 90.9527 155.997 93.9042 155.994 95.0872L155.293 322.615C155.29 324.093 156.427 326.166 158.199 326.958L485.657 472.125C486.924 472.424 491.489 471.25 494.156 468.593L494.791 468.003C495.045 467.708 495.299 467.314 495.3 466.722L495.748 239.194L495.621 239.194Z" fill="white"/>
<path opacity="0.85" fill-rule="evenodd" clip-rule="evenodd" d="M161.068 90.4849L487.259 235.255C488.905 236.047 490.296 237.824 490.293 239.303L489.845 466.93C489.842 468.409 488.447 468.997 486.8 468.304L160.356 323.435C158.71 322.643 157.319 320.865 157.322 319.387L157.897 91.7602C157.9 90.2815 159.295 89.6927 161.068 90.4849Z" fill="url(#paint0_linear)" fill-opacity="0.4"/>
<path opacity="0.4" d="M228.802 307.232C228.824 306.265 229.834 305.637 230.708 306.046L245.526 312.974C246.003 313.198 246.303 313.682 246.291 314.209V314.209C246.269 315.176 245.259 315.804 244.385 315.395L229.567 308.467C229.089 308.243 228.79 307.759 228.802 307.232V307.232Z" fill="url(#paint1_linear)"/>
<path opacity="0.2" d="M295.875 286.463C295.883 286.063 295.651 285.698 295.286 285.535L174.212 231.467C173.56 231.176 172.819 231.645 172.801 232.36L171.988 264.307C171.978 264.709 172.209 265.077 172.576 265.241L293.826 319.437C294.48 319.73 295.224 319.257 295.238 318.539L295.875 286.463Z" fill="url(#paint2_linear)" fill-opacity="0.7"/>
<path opacity="0.5" d="M190.168 266.115L177.09 260.468C176.68 260.276 176.325 259.784 176.331 259.371L176.506 246.585C176.511 246.171 176.875 245.986 177.286 246.14L190.364 251.787C190.774 251.979 191.128 252.471 191.123 252.885L190.948 265.671C190.993 266.122 190.63 266.307 190.168 266.115Z" fill="url(#paint3_linear)"/>
<path opacity="0.5" d="M193.846 265.17L180.768 259.524C180.358 259.332 180.004 258.84 180.009 258.426L180.184 245.64C180.19 245.227 180.553 245.042 180.964 245.196L194.042 250.843C194.452 251.035 194.807 251.527 194.801 251.94L194.626 264.726C194.672 265.178 194.308 265.363 193.846 265.17Z" fill="url(#paint4_linear)" fill-opacity="0.3"/>
<g opacity="0.9">
<path fill-rule="evenodd" clip-rule="evenodd" d="M182.502 197.342C182.499 198.596 181.27 199.48 180.081 199.082V199.082C179.33 198.831 178.824 198.127 178.825 197.335L178.881 169.128C178.883 167.874 180.112 166.991 181.302 167.388V167.388C182.053 167.639 182.559 168.343 182.557 169.136L182.502 197.342Z" fill="url(#paint5_linear)"/>
<path fill-rule="evenodd" clip-rule="evenodd" d="M191.78 199.988C191.777 201.646 190.061 202.747 188.552 202.059V202.059C187.738 201.688 187.216 200.874 187.218 199.979L187.293 161.544C187.297 159.903 188.979 158.802 190.484 159.456V159.456C191.318 159.819 191.858 160.643 191.856 161.553L191.78 199.988Z" fill="url(#paint6_linear)"/>
<path fill-rule="evenodd" clip-rule="evenodd" d="M217.864 211.771C217.861 213.429 216.145 214.53 214.637 213.842V213.842C213.822 213.47 213.3 212.657 213.302 211.762L213.348 188.38C213.351 186.722 215.067 185.621 216.576 186.309V186.309C217.39 186.68 217.912 187.494 217.911 188.389L217.864 211.771Z" fill="url(#paint7_linear)"/>
<path fill-rule="evenodd" clip-rule="evenodd" d="M200.532 204.011C200.529 205.67 198.813 206.771 197.304 206.082V206.082C196.49 205.711 195.968 204.897 195.97 204.002L196.016 180.621C196.019 178.962 197.735 177.861 199.244 178.55V178.55C200.058 178.921 200.58 179.735 200.579 180.63L200.532 204.011Z" fill="url(#paint8_linear)"/>
<path fill-rule="evenodd" clip-rule="evenodd" d="M226.476 215.731C226.473 217.389 224.757 218.49 223.248 217.802V217.802C222.434 217.43 221.912 216.617 221.914 215.722L222.011 166.315C222.014 164.656 223.73 163.555 225.239 164.244V164.244C226.053 164.615 226.575 165.429 226.574 166.324L226.476 215.731Z" fill="url(#paint9_linear)"/>
<path fill-rule="evenodd" clip-rule="evenodd" d="M235.215 219.662C235.211 221.303 233.529 222.404 232.024 221.75V221.75C231.189 221.388 230.65 220.564 230.652 219.653L230.725 182.598C230.728 180.94 232.444 179.839 233.953 180.527V180.527C234.767 180.899 235.289 181.712 235.287 182.607L235.215 219.662Z" fill="url(#paint10_linear)"/>
<path fill-rule="evenodd" clip-rule="evenodd" d="M252.56 227.513C252.557 229.172 250.841 230.273 249.332 229.585V229.585C248.517 229.213 247.995 228.4 247.997 227.505L248.07 190.42C248.073 188.762 249.789 187.661 251.298 188.349V188.349C252.113 188.721 252.635 189.534 252.633 190.429L252.56 227.513Z" fill="url(#paint11_linear)"/>
<path fill-rule="evenodd" clip-rule="evenodd" d="M261.298 231.445C261.295 233.086 259.612 234.187 258.108 233.533V233.533C257.273 233.17 256.734 232.346 256.735 231.436L256.821 188.17C256.824 186.512 258.54 185.411 260.049 186.099V186.099C260.863 186.471 261.385 187.284 261.383 188.179L261.298 231.445Z" fill="url(#paint12_linear)"/>
<path fill-rule="evenodd" clip-rule="evenodd" d="M270.036 235.336C270.033 236.994 268.317 238.095 266.808 237.407V237.407C265.994 237.036 265.472 236.222 265.473 235.327L265.576 183.258C265.579 181.6 267.295 180.499 268.804 181.187V181.187C269.618 181.558 270.14 182.372 270.139 183.267L270.036 235.336Z" fill="url(#paint13_linear)"/>
<path fill-rule="evenodd" clip-rule="evenodd" d="M287.384 243.159C287.381 244.817 285.665 245.918 284.156 245.23V245.23C283.341 244.858 282.82 244.045 282.821 243.15L282.879 213.952C282.882 212.293 284.598 211.193 286.107 211.881V211.881C286.921 212.252 287.443 213.066 287.441 213.961L287.384 243.159Z" fill="url(#paint14_linear)"/>
<path fill-rule="evenodd" clip-rule="evenodd" d="M296.12 247.119C296.116 248.778 294.4 249.878 292.892 249.19V249.19C292.077 248.819 291.555 248.005 291.557 247.11L291.66 195.041C291.663 193.383 293.379 192.282 294.888 192.97V192.97C295.702 193.342 296.224 194.155 296.222 195.05L296.12 247.119Z" fill="url(#paint15_linear)"/>
</g>
<g opacity="0.2">
<path d="M201.069 139.566L200.436 139.565L200.304 206.502L200.937 206.504L201.069 139.566Z" fill="url(#paint16_linear)"/>
<path d="M218.416 147.388L217.783 147.387L217.651 214.325L218.285 214.326L218.416 147.388Z" fill="url(#paint17_linear)"/>
<path d="M227.154 151.25L226.52 151.249L226.388 218.186L227.022 218.188L227.154 151.25Z" fill="url(#paint18_linear)"/>
<path d="M235.891 155.211L235.257 155.209L235.125 222.147L235.759 222.148L235.891 155.211Z" fill="url(#paint19_linear)"/>
<path d="M253.238 163.033L252.604 163.032L252.473 229.969L253.106 229.97L253.238 163.033Z" fill="url(#paint20_linear)"/>
<path d="M261.975 166.993L261.341 166.992L261.209 233.93L261.843 233.931L261.975 166.993Z" fill="url(#paint21_linear)"/>
<path d="M270.586 170.954L269.952 170.953L269.82 237.89L270.454 237.891L270.586 170.954Z" fill="url(#paint22_linear)"/>
<path d="M288.061 178.776L287.427 178.775L287.295 245.712L287.929 245.714L288.061 178.776Z" fill="url(#paint23_linear)"/>
<path d="M296.67 182.737L296.037 182.735L295.905 249.673L296.538 249.674L296.67 182.737Z" fill="url(#paint24_linear)"/>
<path fill-rule="evenodd" clip-rule="evenodd" d="M184.954 197.347C184.952 198.601 183.722 199.484 182.533 199.087V199.087C181.782 198.836 181.276 198.132 181.277 197.34L181.333 169.133C181.335 167.879 182.565 166.995 183.754 167.393V167.393C184.505 167.644 185.011 168.348 185.01 169.14L184.954 197.347Z" fill="url(#paint25_linear)"/>
<path fill-rule="evenodd" clip-rule="evenodd" d="M194.232 199.992C194.229 201.651 192.513 202.752 191.004 202.063V202.063C190.19 201.692 189.668 200.879 189.67 199.983L189.746 161.548C189.749 159.907 191.431 158.806 192.936 159.46V159.46C193.771 159.823 194.31 160.647 194.308 161.557L194.232 199.992Z" fill="url(#paint26_linear)"/>
<path fill-rule="evenodd" clip-rule="evenodd" d="M220.317 211.775C220.314 213.434 218.598 214.535 217.089 213.847V213.847C216.275 213.475 215.753 212.662 215.755 211.766L215.801 188.385C215.804 186.726 217.52 185.626 219.029 186.314V186.314C219.843 186.685 220.365 187.499 220.363 188.394L220.317 211.775Z" fill="url(#paint27_linear)"/>
<path fill-rule="evenodd" clip-rule="evenodd" d="M202.985 204.016C202.981 205.675 201.266 206.775 199.757 206.087V206.087C198.942 205.716 198.42 204.902 198.422 204.007L198.468 180.626C198.471 178.967 200.187 177.866 201.696 178.555V178.555C202.511 178.926 203.032 179.74 203.031 180.635L202.985 204.016Z" fill="url(#paint28_linear)"/>
<path fill-rule="evenodd" clip-rule="evenodd" d="M228.928 215.735C228.925 217.394 227.209 218.495 225.7 217.806V217.806C224.886 217.435 224.364 216.621 224.366 215.726L224.463 166.319C224.467 164.661 226.182 163.56 227.691 164.248V164.248C228.506 164.619 229.028 165.433 229.026 166.328L228.928 215.735Z" fill="url(#paint29_linear)"/>
<path fill-rule="evenodd" clip-rule="evenodd" d="M237.666 219.667C237.662 221.308 235.98 222.408 234.475 221.755V221.755C233.641 221.392 233.101 220.568 233.103 219.658L233.176 182.603C233.179 180.944 234.895 179.843 236.404 180.532V180.532C237.219 180.903 237.74 181.717 237.739 182.612L237.666 219.667Z" fill="url(#paint30_linear)"/>
<path fill-rule="evenodd" clip-rule="evenodd" d="M255.012 227.518C255.009 229.177 253.293 230.278 251.784 229.589V229.589C250.97 229.218 250.448 228.405 250.45 227.509L250.523 190.425C250.526 188.767 252.242 187.666 253.751 188.354V188.354C254.565 188.725 255.087 189.539 255.085 190.434L255.012 227.518Z" fill="url(#paint31_linear)"/>
<path fill-rule="evenodd" clip-rule="evenodd" d="M263.75 231.449C263.747 233.09 262.065 234.191 260.56 233.537V233.537C259.725 233.174 259.186 232.35 259.188 231.44L259.273 188.174C259.276 186.516 260.992 185.415 262.501 186.103V186.103C263.315 186.475 263.837 187.288 263.835 188.183L263.75 231.449Z" fill="url(#paint32_linear)"/>
<path fill-rule="evenodd" clip-rule="evenodd" d="M272.488 235.341C272.485 236.999 270.769 238.1 269.26 237.412V237.412C268.446 237.04 267.924 236.227 267.926 235.332L268.028 183.263C268.031 181.604 269.747 180.504 271.256 181.192V181.192C272.071 181.563 272.592 182.377 272.591 183.272L272.488 235.341Z" fill="url(#paint33_linear)"/>
<path fill-rule="evenodd" clip-rule="evenodd" d="M289.835 243.163C289.832 244.822 288.116 245.922 286.607 245.234V245.234C285.793 244.863 285.271 244.049 285.272 243.154L285.33 213.956C285.333 212.298 287.049 211.197 288.558 211.885V211.885C289.372 212.257 289.894 213.07 289.893 213.965L289.835 243.163Z" fill="url(#paint34_linear)"/>
<path fill-rule="evenodd" clip-rule="evenodd" d="M298.572 247.124C298.568 248.782 296.853 249.883 295.344 249.195V249.195C294.529 248.823 294.007 248.01 294.009 247.115L294.112 195.046C294.115 193.387 295.831 192.286 297.34 192.975V192.975C298.154 193.346 298.676 194.159 298.674 195.055L298.572 247.124Z" fill="url(#paint35_linear)"/>
</g>
<path d="M336.221 367.901L336.35 302.724C336.35 302.619 336.265 302.533 336.16 302.533C336.055 302.533 335.97 302.618 335.969 302.723L335.841 367.9C335.841 368.005 335.926 368.09 336.031 368.09C336.136 368.091 336.221 368.006 336.221 367.901Z" fill="url(#paint36_linear)"/>
<path d="M356.532 377.01L356.66 311.833C356.66 311.728 356.575 311.643 356.47 311.643C356.365 311.643 356.28 311.728 356.28 311.833L356.152 377.01C356.151 377.115 356.236 377.2 356.341 377.2C356.446 377.2 356.532 377.115 356.532 377.01Z" fill="url(#paint37_linear)"/>
<path d="M376.714 386.12L376.843 320.943C376.843 320.838 376.758 320.753 376.653 320.752C376.548 320.752 376.463 320.837 376.463 320.942L376.334 386.119C376.334 386.224 376.419 386.309 376.524 386.31C376.629 386.31 376.714 386.225 376.714 386.12Z" fill="url(#paint38_linear)"/>
<path d="M397.024 395.229L397.152 330.052C397.153 329.947 397.068 329.862 396.963 329.862C396.858 329.861 396.772 329.946 396.772 330.052L396.644 395.228C396.644 395.333 396.729 395.419 396.834 395.419C396.939 395.419 397.024 395.334 397.024 395.229Z" fill="url(#paint39_linear)"/>
<path d="M427.363 408.894L427.492 343.717C427.492 343.612 427.407 343.526 427.302 343.526C427.197 343.526 427.112 343.611 427.111 343.716L426.983 408.893C426.983 408.998 427.068 409.083 427.173 409.084C427.278 409.084 427.363 408.999 427.363 408.894Z" fill="url(#paint40_linear)"/>
<path d="M447.547 418.003L447.675 352.826C447.675 352.721 447.59 352.635 447.485 352.635C447.381 352.635 447.295 352.72 447.295 352.825L447.167 418.002C447.166 418.107 447.251 418.192 447.356 418.192C447.461 418.193 447.547 418.108 447.547 418.003Z" fill="url(#paint41_linear)"/>
<path d="M467.729 427.112L467.858 361.935C467.858 361.83 467.773 361.745 467.668 361.745C467.563 361.744 467.478 361.829 467.478 361.934L467.349 427.111C467.349 427.216 467.434 427.302 467.539 427.302C467.644 427.302 467.729 427.217 467.729 427.112Z" fill="url(#paint42_linear)"/>
<path opacity="0.8" fill-rule="evenodd" clip-rule="evenodd" d="M322.419 344.778C322.426 341.384 326.422 339.504 329.187 341.472C334.947 345.572 341.894 349.495 349.341 351.162C368.771 355.636 368.531 346.658 382.11 354.473C393.405 361.002 398.204 377.481 406.836 381.343C416.864 385.897 417.276 366.234 426.926 369.309C436.83 372.483 440.48 393.929 454.188 401.054C458.561 403.347 462.538 403.899 465.931 403.654C468.648 403.458 471.331 405.37 471.326 408.094L471.296 423.207C471.29 426.106 468.298 428.036 465.654 426.846L324.748 363.411C323.31 362.764 322.387 361.332 322.39 359.756L322.419 344.778Z" fill="url(#paint43_linear)"/>
<g opacity="0.5">
<path opacity="0.8" fill-rule="evenodd" clip-rule="evenodd" d="M310.89 349.105C310.897 345.709 314.898 343.829 317.663 345.801C323.404 349.895 330.326 353.811 337.746 355.475C357.128 359.949 356.888 350.972 370.434 358.786C381.701 365.315 386.488 381.794 395.098 385.656C405.102 390.21 405.513 370.547 415.139 373.622C425.018 376.796 428.659 398.242 442.333 405.367C446.688 407.656 450.649 408.21 454.03 407.968C456.748 407.774 459.434 409.686 459.429 412.411L459.399 427.513C459.393 430.414 456.398 432.345 453.753 431.151L313.215 367.725C311.779 367.077 310.857 365.647 310.86 364.072L310.89 349.105Z" fill="url(#paint44_linear)"/>
</g>
<path fill-rule="evenodd" clip-rule="evenodd" d="M294.267 270.191L173.467 215.634C172.834 215.337 172.455 214.449 172.583 213.759C172.712 212.971 173.219 212.577 173.852 212.874L294.653 267.333C295.286 267.63 295.665 268.518 295.536 269.207C295.408 270.094 294.9 270.488 294.267 270.191Z" fill="url(#paint45_linear)"/>
<path fill-rule="evenodd" clip-rule="evenodd" d="M293.747 276.794L172.946 222.237C172.313 221.94 171.935 221.052 172.063 220.362C172.191 219.574 172.699 219.181 173.332 219.478L294.132 274.035C294.765 274.332 295.144 275.22 295.016 275.91C294.888 276.698 294.38 277.091 293.747 276.794Z" fill="url(#paint46_linear)"/>
<path fill-rule="evenodd" clip-rule="evenodd" d="M248.318 242.421L171.836 207.865C171.456 207.668 171.331 206.977 171.586 206.189C171.841 205.499 172.349 205.008 172.729 205.205L249.21 239.761C249.59 239.959 249.715 240.65 249.46 241.438C249.205 242.127 248.698 242.619 248.318 242.421Z" fill="url(#paint47_linear)"/>
<path fill-rule="evenodd" clip-rule="evenodd" d="M273.933 304.317L197.451 269.761C197.071 269.564 196.946 268.873 197.201 268.085C197.456 267.395 197.964 266.904 198.344 267.101L274.825 301.657C275.205 301.855 275.331 302.546 275.075 303.334C274.821 304.023 274.313 304.515 273.933 304.317Z" fill="url(#paint48_linear)" fill-opacity="0.5"/>
<path fill-rule="evenodd" clip-rule="evenodd" d="M273.948 296.706L197.466 262.15C197.087 261.952 196.961 261.261 197.216 260.473C197.471 259.784 197.979 259.292 198.359 259.49L274.84 294.046C275.22 294.244 275.346 294.934 275.091 295.722C274.836 296.412 274.328 296.904 273.948 296.706Z" fill="url(#paint49_linear)" fill-opacity="0.5"/>
<path fill-rule="evenodd" clip-rule="evenodd" d="M275.188 289.096L198.706 254.54C198.326 254.342 198.201 253.652 198.456 252.864C198.711 252.174 199.219 251.682 199.599 251.88L276.08 286.436C276.46 286.634 276.585 287.324 276.33 288.113C276.076 288.802 275.568 289.294 275.188 289.096Z" fill="url(#paint50_linear)" fill-opacity="0.5"/>
<path fill-rule="evenodd" clip-rule="evenodd" d="M469.283 343.537L332.528 281.85C331.768 281.553 331.263 280.665 331.391 279.778C331.393 278.989 332.027 278.596 332.787 278.893L469.542 340.58C470.302 340.877 470.807 341.765 470.679 342.652C470.55 343.441 469.916 343.834 469.283 343.537Z" fill="url(#paint51_linear)"/>
<path fill-rule="evenodd" clip-rule="evenodd" d="M469.142 351.29L332.387 289.604C331.627 289.307 331.122 288.418 331.25 287.531C331.252 286.743 331.886 286.35 332.646 286.647L469.401 348.333C470.161 348.631 470.667 349.519 470.538 350.406C470.41 351.194 469.775 351.587 469.142 351.29Z" fill="url(#paint52_linear)"/>
<path fill-rule="evenodd" clip-rule="evenodd" d="M418.268 312.942L331.656 273.831C331.276 273.634 331.024 272.844 331.279 272.155C331.534 271.465 332.042 270.973 332.422 271.171L419.033 310.282C419.413 310.48 419.665 311.269 419.41 311.959C419.155 312.648 418.648 313.14 418.268 312.942Z" fill="url(#paint53_linear)"/>
<path fill-rule="evenodd" clip-rule="evenodd" d="M469.952 358.762L333.196 297.076C332.437 296.778 331.931 295.89 332.06 295.003C332.062 294.214 332.696 293.821 333.456 294.119L470.211 355.805C470.971 356.102 471.476 356.99 471.348 357.877C471.219 358.666 470.585 359.059 469.952 358.762Z" fill="url(#paint54_linear)"/>
<path fill-rule="evenodd" clip-rule="evenodd" d="M469.813 365.564L333.058 303.878C332.298 303.581 331.793 302.692 331.921 301.805C331.923 301.017 332.557 300.624 333.317 300.921L470.072 362.607C470.832 362.904 471.337 363.793 471.209 364.68C471.081 365.468 470.446 365.861 469.813 365.564Z" fill="url(#paint55_linear)"/>
<path d="M365.029 246.439C364.522 246.438 364.016 246.338 363.509 246.14C355.405 242.476 348.96 233 348.976 224.719C348.986 219.987 351.148 216.245 354.953 214.478C358.251 213.006 362.306 213.211 366.485 214.994C367.878 215.588 368.382 217.068 367.62 218.15C366.857 219.233 364.955 219.624 363.562 219.03C362.043 218.337 359.763 217.642 357.987 218.526C356.084 219.409 354.939 221.674 354.933 224.731C354.92 231.336 360.227 239.331 366.558 242.203C367.951 242.797 368.455 244.277 367.693 245.359C366.931 246.048 366.043 246.441 365.029 246.439Z" fill="url(#paint56_linear)"/>
<path d="M414.694 263.998C413.808 263.971 413.725 263.262 413.247 262.656C412.282 261.64 411.468 260.535 412.773 259.785C414.467 258.849 413.846 257.955 413.984 255.098C414.304 248.498 409.372 240.359 403.178 237.312C401.692 236.577 399.445 235.819 397.629 236.653C395.687 237.482 394.437 239.714 394.289 242.768C393.969 249.368 398.902 257.507 405.095 260.553C406.46 261.186 406.895 262.679 406.082 263.74C405.27 264.801 403.351 265.138 401.987 264.505C394.058 260.617 388.057 250.966 388.459 242.691C388.688 237.963 391.022 234.284 394.908 232.625C398.272 231.246 402.315 231.565 406.409 233.463C414.337 237.351 420.338 247.002 419.937 255.277C419.731 259.513 419.347 262.869 416.217 264.649C415.438 265.02 415.328 264.017 414.694 263.998Z" fill="url(#paint57_linear)"/>
<path opacity="0.8" d="M455.947 287.529C455.44 287.528 454.933 287.429 454.427 287.231C446.323 283.567 439.878 274.091 439.894 265.81C439.903 261.078 442.065 257.336 445.871 255.569C449.169 254.097 453.224 254.302 457.403 256.084C462.594 258.461 467.274 263.202 469.925 268.925C470.429 270.109 469.666 271.389 468.144 271.879C466.623 272.27 464.976 271.675 464.345 270.491C462.2 265.854 458.405 261.903 454.48 260.121C452.96 259.427 450.68 258.733 448.904 259.617C447.002 260.5 445.857 262.765 445.851 265.821C445.838 272.426 451.145 280.422 457.476 283.293C458.869 283.888 459.373 285.367 458.61 286.45C457.975 287.139 456.961 287.531 455.947 287.529Z" fill="url(#paint58_linear)"/>
<g opacity="0.3">
<path d="M367.779 245.748C367.306 245.747 366.834 245.652 366.361 245.463C358.802 241.968 352.79 232.927 352.806 225.027C352.814 220.513 354.831 216.943 358.381 215.257C361.458 213.852 362.408 213.572 366.306 215.272C367.606 215.839 369.463 217.459 368.751 218.492C368.04 219.525 368.211 219.535 366.912 218.968C365.494 218.307 362.868 218.275 361.211 219.118C359.436 219.961 357.101 222.12 357.095 225.036C357.083 231.337 363.3 238.967 369.206 241.707C370.505 242.273 370.975 243.685 370.264 244.718C369.553 245.375 368.725 245.75 367.779 245.748Z" fill="url(#paint59_linear)"/>
</g>
<g opacity="0.3">
<path opacity="0.8" d="M458.485 287.246C457.971 287.245 457.456 287.142 456.942 286.938C448.719 283.161 442.179 273.391 442.195 264.854C442.205 259.976 444.399 256.118 448.261 254.296C451.608 252.778 455.723 252.989 459.964 254.827C465.232 257.277 468.302 261.695 470.992 267.595C471.504 268.815 470.69 270.892 469.146 271.397C467.602 271.801 467.649 270.901 467.008 269.68C464.831 264.899 460.981 260.826 456.997 258.988C455.455 258.274 453.142 257.558 451.339 258.469C449.408 259.38 448.246 261.715 448.24 264.866C448.227 271.676 453.612 279.919 460.037 282.879C461.451 283.491 461.962 285.017 461.188 286.133C460.544 286.844 459.514 287.248 458.485 287.246Z" fill="url(#paint60_linear)"/>
</g>
<path opacity="0.2" d="M295.802 324.995C295.807 324.596 295.575 324.233 295.211 324.071L174.324 270.472C173.672 270.183 172.933 270.652 172.915 271.366L172.102 303.317C172.092 303.719 172.323 304.087 172.69 304.251L293.931 358.444C294.588 358.737 295.333 358.26 295.343 357.54L295.802 324.995Z" fill="url(#paint61_linear)" fill-opacity="0.7"/>
<path opacity="0.5" d="M192.542 305.129L179.464 299.483C179.054 299.291 178.699 298.799 178.705 298.385L178.88 285.599C178.886 285.186 179.249 285.001 179.66 285.155L192.738 290.802C193.148 290.994 193.503 291.486 193.497 291.899L193.322 304.685C193.367 305.137 193.004 305.322 192.542 305.129Z" fill="url(#paint62_linear)"/>
<path fill-rule="evenodd" clip-rule="evenodd" d="M277.533 344.286L201.051 309.73C200.671 309.532 200.546 308.841 200.801 308.053C201.056 307.364 201.564 306.872 201.943 307.07L278.425 341.626C278.805 341.824 278.93 342.514 278.675 343.302C278.42 343.992 277.912 344.484 277.533 344.286Z" fill="url(#paint63_linear)" fill-opacity="0.5"/>
<path fill-rule="evenodd" clip-rule="evenodd" d="M277.548 336.674L201.066 302.118C200.686 301.92 200.561 301.23 200.816 300.442C201.071 299.752 201.579 299.26 201.958 299.458L278.44 334.014C278.82 334.212 278.945 334.902 278.69 335.69C278.435 336.38 277.927 336.872 277.548 336.674Z" fill="url(#paint64_linear)" fill-opacity="0.5"/>
<path fill-rule="evenodd" clip-rule="evenodd" d="M278.788 329.065L202.307 294.509C201.927 294.311 201.802 293.621 202.057 292.833C202.311 292.143 202.819 291.651 203.199 291.849L279.681 326.405C280.061 326.603 280.186 327.293 279.931 328.081C279.676 328.771 279.168 329.263 278.788 329.065Z" fill="url(#paint65_linear)" fill-opacity="0.5"/>
<path fill-rule="evenodd" clip-rule="evenodd" d="M361.933 264.321L343.854 256.2C342.599 255.613 341.615 254.137 341.641 252.855C341.666 251.573 342.692 250.977 343.949 251.466L362.028 259.587C363.283 260.174 364.267 261.65 364.241 262.932C364.216 264.215 363.19 264.81 361.933 264.321Z" fill="url(#paint66_linear)" fill-opacity="0.8"/>
<path opacity="0.2" fill-rule="evenodd" clip-rule="evenodd" d="M364.001 263.679L344.576 254.938C343.227 254.306 342.17 252.718 342.198 251.338C342.225 249.957 343.327 249.317 344.677 249.843L364.103 258.584C365.451 259.216 366.508 260.804 366.481 262.184C366.453 263.564 365.352 264.205 364.001 263.679Z" fill="url(#paint67_linear)"/>
<path fill-rule="evenodd" clip-rule="evenodd" d="M457.104 306.167L439.025 298.046C437.77 297.458 436.786 295.983 436.812 294.7C436.837 293.418 437.863 292.823 439.12 293.311L457.199 301.433C458.454 302.02 459.438 303.496 459.412 304.778C459.387 306.06 458.361 306.656 457.104 306.167Z" fill="url(#paint68_linear)" fill-opacity="0.8"/>
<path opacity="0.2" fill-rule="evenodd" clip-rule="evenodd" d="M459.771 305.583L440.346 296.841C438.997 296.209 437.94 294.621 437.968 293.241C437.995 291.861 439.097 291.22 440.447 291.746L459.873 300.487C461.221 301.119 462.278 302.708 462.251 304.088C462.223 305.468 461.122 306.108 459.771 305.583Z" fill="url(#paint69_linear)"/>
<g opacity="0.67" filter="url(#filter1_d)">
<path d="M362.424 213.202C361.656 213.491 361.143 214.176 361.07 215.185C360.924 217.181 362.551 219.689 364.705 220.787C365.793 221.342 366.808 221.43 367.564 221.124C367.581 221.118 367.597 221.111 367.614 221.105C367.63 221.098 367.647 221.092 367.663 221.085C367.68 221.079 367.696 221.073 367.713 221.066C367.729 221.06 367.746 221.053 367.762 221.047C367.779 221.04 367.795 221.034 367.812 221.027C367.828 221.021 367.845 221.015 367.861 221.008C367.878 221.002 367.894 220.995 367.911 220.989C367.927 220.982 367.944 220.976 367.96 220.969C367.977 220.963 367.994 220.957 368.01 220.95C368.027 220.944 368.043 220.937 368.059 220.931C368.076 220.924 368.093 220.918 368.109 220.911C368.126 220.905 368.142 220.899 368.158 220.892C368.175 220.886 368.192 220.879 368.208 220.873C368.225 220.866 368.241 220.86 368.258 220.853C368.274 220.847 368.291 220.841 368.307 220.834C368.324 220.828 368.34 220.821 368.357 220.815C368.373 220.808 368.39 220.802 368.406 220.795C368.423 220.789 368.439 220.783 368.456 220.776C368.472 220.77 368.489 220.763 368.505 220.757C368.522 220.75 368.538 220.744 368.555 220.737C368.571 220.731 368.588 220.725 368.604 220.718C368.621 220.712 368.637 220.705 368.654 220.699C368.67 220.692 368.687 220.686 368.703 220.679C368.72 220.673 368.736 220.667 368.753 220.66C368.769 220.654 368.786 220.647 368.802 220.641C368.819 220.634 368.836 220.628 368.852 220.621C368.869 220.615 368.885 220.608 368.901 220.602C368.918 220.596 368.935 220.589 368.951 220.583C368.968 220.576 368.984 220.57 369 220.563C369.017 220.557 369.034 220.55 369.05 220.544C369.067 220.538 369.083 220.531 369.1 220.524C369.116 220.518 369.133 220.512 369.149 220.505C369.166 220.499 369.182 220.492 369.199 220.486C369.215 220.48 369.232 220.473 369.248 220.466C369.265 220.46 369.281 220.454 369.298 220.447C369.314 220.441 369.331 220.434 369.347 220.428C369.364 220.422 369.38 220.415 369.397 220.408C369.413 220.402 369.43 220.396 369.446 220.389C369.463 220.383 369.479 220.376 369.496 220.37C369.512 220.363 369.529 220.357 369.545 220.35C369.562 220.344 369.578 220.338 369.595 220.331C369.611 220.325 369.628 220.318 369.644 220.312C370.412 220.023 370.924 219.338 370.998 218.329C371.144 216.333 369.517 213.825 367.363 212.727C366.275 212.172 365.26 212.084 364.504 212.39C364.487 212.396 364.471 212.403 364.454 212.409C364.438 212.416 364.421 212.422 364.405 212.429C364.388 212.435 364.372 212.441 364.355 212.448C364.339 212.454 364.322 212.461 364.306 212.467C364.289 212.474 364.273 212.48 364.256 212.487C364.24 212.493 364.223 212.499 364.207 212.506C364.19 212.512 364.173 212.519 364.157 212.525C364.14 212.532 364.124 212.538 364.108 212.545C364.091 212.551 364.074 212.557 364.058 212.564C364.041 212.57 364.025 212.577 364.009 212.583C363.992 212.59 363.975 212.596 363.959 212.603C363.942 212.609 363.926 212.615 363.909 212.622C363.893 212.628 363.876 212.635 363.86 212.641C363.843 212.648 363.827 212.654 363.81 212.661C363.794 212.667 363.777 212.673 363.761 212.68C363.744 212.686 363.728 212.693 363.711 212.699C363.695 212.706 363.678 212.712 363.662 212.719C363.645 212.725 363.629 212.731 363.612 212.738C363.596 212.744 363.579 212.751 363.563 212.757C363.546 212.764 363.53 212.77 363.513 212.777C363.497 212.783 363.48 212.79 363.464 212.796C363.447 212.802 363.431 212.809 363.414 212.815C363.398 212.822 363.381 212.828 363.365 212.835C363.348 212.841 363.331 212.848 363.315 212.854C363.298 212.86 363.282 212.867 363.266 212.874C363.249 212.88 363.232 212.886 363.216 212.893C363.199 212.899 363.183 212.906 363.167 212.912C363.15 212.918 363.133 212.925 363.117 212.932C363.1 212.938 363.084 212.944 363.067 212.951C363.051 212.957 363.034 212.964 363.018 212.97C363.001 212.976 362.985 212.983 362.968 212.99C362.952 212.996 362.935 213.002 362.919 213.009C362.902 213.015 362.886 213.022 362.869 213.028C362.853 213.035 362.836 213.041 362.82 213.048C362.803 213.054 362.787 213.06 362.77 213.067C362.754 213.073 362.737 213.08 362.721 213.086C362.704 213.093 362.688 213.099 362.671 213.106C362.655 213.112 362.638 213.118 362.622 213.125C362.605 213.131 362.589 213.138 362.572 213.144C362.556 213.151 362.539 213.157 362.523 213.164C362.506 213.17 362.489 213.176 362.473 213.183C362.456 213.189 362.44 213.196 362.424 213.202Z" fill="url(#paint70_linear)"/>
</g>
<ellipse opacity="0.67" rx="4.37688" ry="3.62354" transform="matrix(-0.890916 -0.454169 0.0729605 -0.997335 364.968 217.173)" fill="url(#paint71_linear)"/>
<g opacity="0.67" filter="url(#filter2_d)">
<path d="M422.098 356.732C421.27 357.085 420.752 357.864 420.743 358.983C420.724 361.197 422.704 363.9 425.164 365.021C426.407 365.588 427.536 365.642 428.35 365.271C428.368 365.263 428.386 365.256 428.403 365.248C428.421 365.24 428.439 365.232 428.457 365.224C428.475 365.216 428.493 365.209 428.51 365.2C428.528 365.193 428.546 365.185 428.564 365.177C428.582 365.169 428.599 365.161 428.617 365.153C428.635 365.146 428.653 365.138 428.67 365.13C428.688 365.122 428.706 365.114 428.724 365.106C428.742 365.099 428.759 365.091 428.777 365.083C428.795 365.075 428.813 365.067 428.83 365.059C428.848 365.052 428.866 365.044 428.884 365.036C428.902 365.028 428.92 365.02 428.937 365.012C428.955 365.005 428.973 364.997 428.991 364.989C429.009 364.981 429.026 364.973 429.044 364.965C429.062 364.958 429.08 364.95 429.097 364.942C429.115 364.934 429.133 364.926 429.151 364.918C429.169 364.911 429.187 364.903 429.204 364.895C429.222 364.887 429.24 364.879 429.258 364.871C429.276 364.863 429.293 364.856 429.311 364.848C429.329 364.84 429.347 364.832 429.364 364.824C429.382 364.816 429.4 364.809 429.418 364.801C429.436 364.793 429.453 364.785 429.471 364.777C429.489 364.769 429.507 364.761 429.525 364.753C429.542 364.746 429.56 364.738 429.578 364.73C429.596 364.722 429.614 364.714 429.631 364.706C429.649 364.699 429.667 364.691 429.685 364.683C429.703 364.675 429.72 364.667 429.738 364.659C429.756 364.652 429.774 364.644 429.791 364.636C429.809 364.628 429.827 364.62 429.845 364.612C429.863 364.605 429.881 364.597 429.898 364.589C429.916 364.581 429.934 364.573 429.952 364.565C429.97 364.558 429.987 364.55 430.005 364.542C430.023 364.534 430.041 364.526 430.058 364.518C430.076 364.511 430.094 364.503 430.112 364.495C430.13 364.487 430.147 364.479 430.165 364.471C430.183 364.463 430.201 364.456 430.219 364.448C430.236 364.44 430.254 364.432 430.272 364.424C430.29 364.416 430.308 364.409 430.325 364.401C430.343 364.393 430.361 364.385 430.379 364.377C430.397 364.369 430.414 364.362 430.432 364.353C430.45 364.346 430.468 364.338 430.485 364.33C430.503 364.322 430.521 364.314 430.539 364.306C430.557 364.299 430.575 364.291 430.592 364.283C431.42 363.93 431.938 363.151 431.947 362.032C431.966 359.818 429.987 357.115 427.527 355.993C426.283 355.427 425.155 355.373 424.34 355.744C424.323 355.751 424.305 355.759 424.287 355.767C424.269 355.775 424.251 355.783 424.234 355.791C424.216 355.798 424.198 355.806 424.18 355.814C424.162 355.822 424.145 355.83 424.127 355.838C424.109 355.845 424.091 355.853 424.074 355.861C424.056 355.869 424.038 355.877 424.02 355.885C424.002 355.892 423.984 355.9 423.967 355.908C423.949 355.916 423.931 355.924 423.913 355.932C423.895 355.94 423.878 355.947 423.86 355.955C423.842 355.963 423.824 355.971 423.807 355.979C423.789 355.987 423.771 355.994 423.753 356.002C423.735 356.01 423.717 356.018 423.7 356.026C423.682 356.034 423.664 356.042 423.646 356.05C423.628 356.057 423.611 356.065 423.593 356.073C423.575 356.081 423.557 356.089 423.54 356.097C423.522 356.104 423.504 356.112 423.486 356.12C423.468 356.128 423.451 356.136 423.433 356.144C423.415 356.151 423.397 356.159 423.38 356.167C423.362 356.175 423.344 356.183 423.326 356.191C423.308 356.198 423.29 356.206 423.273 356.214C423.255 356.222 423.237 356.23 423.219 356.238C423.201 356.245 423.184 356.253 423.166 356.261C423.148 356.269 423.13 356.277 423.113 356.285C423.095 356.292 423.077 356.3 423.059 356.308C423.041 356.316 423.023 356.324 423.006 356.332C422.988 356.34 422.97 356.347 422.952 356.355C422.934 356.363 422.917 356.371 422.899 356.379C422.881 356.387 422.863 356.394 422.846 356.402C422.828 356.41 422.81 356.418 422.792 356.426C422.774 356.434 422.757 356.442 422.739 356.45C422.721 356.457 422.703 356.465 422.685 356.473C422.668 356.481 422.65 356.489 422.632 356.497C422.614 356.504 422.596 356.512 422.579 356.52C422.561 356.528 422.543 356.536 422.525 356.544C422.507 356.551 422.49 356.559 422.472 356.567C422.454 356.575 422.436 356.583 422.419 356.591C422.401 356.598 422.383 356.606 422.365 356.614C422.347 356.622 422.329 356.63 422.312 356.638C422.294 356.645 422.276 356.653 422.258 356.661C422.24 356.669 422.223 356.677 422.205 356.685C422.187 356.692 422.169 356.7 422.152 356.708C422.134 356.716 422.116 356.724 422.098 356.732Z" fill="url(#paint72_linear)"/>
</g>
<ellipse opacity="0.67" rx="4.89527" ry="4.0083" transform="matrix(-0.909948 -0.414723 0.00838584 -0.999965 425.198 361.013)" fill="url(#paint73_linear)"/>
<g opacity="0.67" filter="url(#filter3_d)">
<path d="M463.635 266.581C462.887 266.899 462.419 267.603 462.411 268.614C462.394 270.613 464.181 273.054 466.403 274.067C467.526 274.579 468.545 274.628 469.281 274.293C469.297 274.286 469.313 274.279 469.329 274.271C469.345 274.264 469.361 274.257 469.377 274.25C469.393 274.243 469.409 274.236 469.425 274.229C469.442 274.222 469.458 274.215 469.474 274.208C469.49 274.201 469.506 274.194 469.522 274.186C469.538 274.179 469.554 274.172 469.57 274.165C469.586 274.158 469.602 274.151 469.618 274.144C469.634 274.137 469.65 274.13 469.666 274.123C469.683 274.116 469.699 274.109 469.715 274.101C469.731 274.094 469.747 274.087 469.763 274.08C469.779 274.073 469.795 274.066 469.811 274.059C469.827 274.052 469.843 274.045 469.859 274.038C469.875 274.031 469.892 274.024 469.907 274.016C469.924 274.009 469.94 274.002 469.956 273.995C469.972 273.988 469.988 273.981 470.004 273.974C470.02 273.967 470.036 273.96 470.052 273.953C470.068 273.946 470.084 273.939 470.1 273.931C470.117 273.924 470.133 273.917 470.149 273.91C470.165 273.903 470.181 273.896 470.197 273.889C470.213 273.882 470.229 273.875 470.245 273.868C470.261 273.861 470.277 273.854 470.293 273.846C470.309 273.839 470.325 273.832 470.341 273.825C470.358 273.818 470.374 273.811 470.39 273.804C470.406 273.797 470.422 273.79 470.438 273.783C470.454 273.776 470.47 273.769 470.486 273.761C470.502 273.754 470.518 273.747 470.534 273.74C470.55 273.733 470.567 273.726 470.582 273.719C470.599 273.712 470.615 273.705 470.631 273.698C470.647 273.691 470.663 273.684 470.679 273.676C470.695 273.669 470.711 273.662 470.727 273.655C470.743 273.648 470.759 273.641 470.775 273.634C470.792 273.627 470.808 273.62 470.824 273.613C470.84 273.606 470.856 273.599 470.872 273.591C470.888 273.584 470.904 273.577 470.92 273.57C470.936 273.563 470.952 273.556 470.968 273.549C470.984 273.542 471 273.535 471.016 273.528C471.033 273.521 471.049 273.514 471.065 273.506C471.081 273.499 471.097 273.492 471.113 273.485C471.129 273.478 471.145 273.471 471.161 273.464C471.177 273.457 471.193 273.45 471.209 273.443C471.225 273.436 471.241 273.429 471.257 273.421C471.274 273.414 471.29 273.407 471.306 273.4C472.053 273.082 472.521 272.378 472.53 271.367C472.546 269.368 470.759 266.926 468.537 265.914C467.414 265.402 466.395 265.353 465.66 265.688C465.643 265.695 465.627 265.702 465.611 265.709C465.595 265.716 465.579 265.723 465.563 265.731C465.547 265.738 465.531 265.745 465.515 265.752C465.499 265.759 465.483 265.766 465.467 265.773C465.451 265.78 465.434 265.787 465.419 265.794C465.402 265.801 465.386 265.808 465.37 265.816C465.354 265.823 465.338 265.83 465.322 265.837C465.306 265.844 465.29 265.851 465.274 265.858C465.258 265.865 465.242 265.872 465.226 265.879C465.209 265.886 465.193 265.893 465.177 265.901C465.161 265.908 465.145 265.915 465.129 265.922C465.113 265.929 465.097 265.936 465.081 265.943C465.065 265.95 465.049 265.957 465.033 265.964C465.017 265.971 465.001 265.978 464.985 265.986C464.968 265.993 464.952 266 464.936 266.007C464.92 266.014 464.904 266.021 464.888 266.028C464.872 266.035 464.856 266.042 464.84 266.049C464.824 266.056 464.808 266.063 464.792 266.071C464.776 266.078 464.759 266.085 464.744 266.092C464.727 266.099 464.711 266.106 464.695 266.113C464.679 266.12 464.663 266.127 464.647 266.134C464.631 266.141 464.615 266.148 464.599 266.156C464.583 266.163 464.567 266.17 464.551 266.177C464.534 266.184 464.518 266.191 464.502 266.198C464.486 266.205 464.47 266.212 464.454 266.219C464.438 266.226 464.422 266.233 464.406 266.241C464.39 266.248 464.374 266.255 464.358 266.262C464.342 266.269 464.326 266.276 464.31 266.283C464.293 266.29 464.277 266.297 464.261 266.304C464.245 266.311 464.229 266.318 464.213 266.326C464.197 266.333 464.181 266.34 464.165 266.347C464.149 266.354 464.133 266.361 464.117 266.368C464.101 266.375 464.084 266.382 464.069 266.389C464.052 266.396 464.036 266.403 464.02 266.411C464.004 266.418 463.988 266.425 463.972 266.432C463.956 266.439 463.94 266.446 463.924 266.453C463.908 266.46 463.892 266.467 463.876 266.474C463.859 266.481 463.843 266.488 463.827 266.496C463.811 266.503 463.795 266.51 463.779 266.517C463.763 266.524 463.747 266.531 463.731 266.538C463.715 266.545 463.699 266.552 463.683 266.559C463.667 266.566 463.651 266.573 463.635 266.581Z" fill="url(#paint74_linear)"/>
</g>
<ellipse opacity="0.67" rx="4.42097" ry="3.61994" transform="matrix(-0.909948 -0.414723 0.00838584 -0.999965 466.433 270.447)" fill="url(#paint75_linear)"/>
<g opacity="0.67" filter="url(#filter4_d)">
<path d="M373.562 339.717C372.932 339.986 372.537 340.579 372.53 341.431C372.516 343.116 374.023 345.174 375.895 346.028C376.842 346.459 377.701 346.5 378.321 346.218C378.335 346.212 378.348 346.206 378.361 346.2C378.375 346.194 378.389 346.188 378.402 346.182C378.416 346.176 378.429 346.17 378.443 346.164C378.456 346.158 378.47 346.152 378.483 346.146C378.497 346.14 378.511 346.134 378.524 346.128C378.538 346.122 378.551 346.116 378.565 346.11C378.578 346.104 378.592 346.098 378.605 346.092C378.619 346.087 378.633 346.081 378.646 346.074C378.66 346.069 378.673 346.063 378.687 346.057C378.7 346.051 378.714 346.045 378.727 346.039C378.741 346.033 378.754 346.027 378.768 346.021C378.782 346.015 378.795 346.009 378.809 346.003C378.822 345.997 378.836 345.991 378.849 345.985C378.863 345.979 378.876 345.973 378.89 345.967C378.903 345.961 378.917 345.955 378.93 345.949C378.944 345.943 378.958 345.937 378.971 345.931C378.985 345.925 378.998 345.919 379.012 345.913C379.025 345.907 379.039 345.901 379.052 345.895C379.066 345.889 379.08 345.884 379.093 345.877C379.107 345.872 379.12 345.866 379.134 345.859C379.147 345.854 379.161 345.848 379.174 345.842C379.188 345.836 379.202 345.83 379.215 345.824C379.229 345.818 379.242 345.812 379.256 345.806C379.269 345.8 379.283 345.794 379.296 345.788C379.31 345.782 379.323 345.776 379.337 345.77C379.351 345.764 379.364 345.758 379.377 345.752C379.391 345.746 379.405 345.74 379.418 345.734C379.432 345.728 379.445 345.722 379.459 345.716C379.472 345.71 379.486 345.704 379.499 345.698C379.513 345.692 379.527 345.687 379.54 345.68C379.554 345.675 379.567 345.669 379.581 345.662C379.594 345.657 379.608 345.651 379.621 345.645C379.635 345.639 379.649 345.633 379.662 345.627C379.676 345.621 379.689 345.615 379.703 345.609C379.716 345.603 379.73 345.597 379.743 345.591C379.757 345.585 379.77 345.579 379.784 345.573C379.798 345.567 379.811 345.561 379.825 345.555C379.838 345.549 379.852 345.543 379.865 345.537C379.879 345.531 379.892 345.525 379.906 345.519C379.919 345.513 379.933 345.507 379.946 345.501C379.96 345.495 379.974 345.489 379.987 345.483C380.001 345.478 380.014 345.472 380.028 345.465C380.658 345.197 381.052 344.604 381.059 343.752C381.074 342.067 379.567 340.009 377.694 339.155C376.747 338.724 375.888 338.682 375.269 338.965C375.255 338.971 375.241 338.977 375.228 338.983C375.214 338.989 375.201 338.995 375.187 339.001C375.174 339.007 375.16 339.013 375.147 339.019C375.133 339.025 375.119 339.031 375.106 339.037C375.092 339.042 375.079 339.048 375.065 339.055C375.052 339.06 375.038 339.066 375.025 339.072C375.011 339.078 374.998 339.084 374.984 339.09C374.97 339.096 374.957 339.102 374.943 339.108C374.93 339.114 374.916 339.12 374.903 339.126C374.889 339.132 374.876 339.138 374.862 339.144C374.849 339.15 374.835 339.156 374.822 339.162C374.808 339.168 374.794 339.174 374.781 339.18C374.767 339.186 374.754 339.192 374.74 339.198C374.727 339.204 374.713 339.21 374.7 339.216C374.686 339.222 374.672 339.228 374.659 339.234C374.645 339.239 374.632 339.245 374.618 339.252C374.605 339.257 374.591 339.263 374.578 339.269C374.564 339.275 374.55 339.281 374.537 339.287C374.523 339.293 374.51 339.299 374.496 339.305C374.483 339.311 374.469 339.317 374.456 339.323C374.442 339.329 374.429 339.335 374.415 339.341C374.401 339.347 374.388 339.353 374.374 339.359C374.361 339.365 374.347 339.371 374.334 339.377C374.32 339.383 374.307 339.389 374.293 339.395C374.28 339.401 374.266 339.407 374.253 339.413C374.239 339.419 374.225 339.425 374.212 339.431C374.198 339.436 374.185 339.442 374.171 339.449C374.158 339.454 374.144 339.46 374.131 339.466C374.117 339.472 374.103 339.478 374.09 339.484C374.076 339.49 374.063 339.496 374.049 339.502C374.036 339.508 374.022 339.514 374.009 339.52C373.995 339.526 373.982 339.532 373.968 339.538C373.954 339.544 373.941 339.55 373.927 339.556C373.914 339.562 373.9 339.568 373.887 339.574C373.873 339.58 373.86 339.586 373.846 339.592C373.833 339.598 373.819 339.604 373.806 339.61C373.792 339.616 373.778 339.622 373.765 339.628C373.751 339.634 373.738 339.639 373.724 339.646C373.711 339.651 373.697 339.657 373.684 339.664C373.67 339.669 373.656 339.675 373.643 339.681C373.629 339.687 373.616 339.693 373.602 339.699C373.589 339.705 373.575 339.711 373.562 339.717Z" fill="url(#paint76_linear)"/>
</g>
<ellipse opacity="0.67" rx="3.72653" ry="3.05132" transform="matrix(-0.909948 -0.414723 0.00838584 -0.999965 375.921 342.977)" fill="url(#paint77_linear)"/>
<g opacity="0.67" filter="url(#filter5_d)">
<path d="M408.889 260.025C408.196 260.405 407.763 261.245 407.754 262.451C407.738 264.835 409.392 267.747 411.448 268.953C412.488 269.563 413.432 269.621 414.113 269.221C414.128 269.212 414.143 269.204 414.158 269.195C414.173 269.187 414.188 269.179 414.202 269.17C414.217 269.162 414.232 269.153 414.247 269.145C414.262 269.136 414.277 269.128 414.292 269.119C414.307 269.111 414.322 269.102 414.336 269.094C414.351 269.086 414.366 269.077 414.381 269.068C414.396 269.06 414.411 269.052 414.426 269.043C414.441 269.035 414.455 269.026 414.47 269.018C414.485 269.009 414.5 269.001 414.515 268.992C414.53 268.984 414.545 268.976 414.56 268.967C414.575 268.959 414.589 268.95 414.604 268.942C414.619 268.933 414.634 268.925 414.649 268.916C414.664 268.908 414.679 268.9 414.694 268.891C414.709 268.883 414.723 268.874 414.738 268.865C414.753 268.857 414.768 268.849 414.783 268.84C414.798 268.832 414.813 268.823 414.828 268.815C414.843 268.806 414.857 268.798 414.872 268.789C414.887 268.781 414.902 268.773 414.917 268.764C414.932 268.756 414.947 268.747 414.961 268.739C414.976 268.73 414.991 268.722 415.006 268.713C415.021 268.705 415.036 268.697 415.051 268.688C415.066 268.68 415.081 268.671 415.095 268.662C415.11 268.654 415.125 268.646 415.14 268.637C415.155 268.629 415.17 268.62 415.185 268.612C415.2 268.604 415.215 268.595 415.229 268.586C415.244 268.578 415.259 268.57 415.274 268.561C415.289 268.553 415.304 268.544 415.319 268.536C415.334 268.527 415.349 268.519 415.363 268.51C415.378 268.502 415.393 268.494 415.408 268.485C415.423 268.477 415.438 268.468 415.453 268.46C415.468 268.451 415.483 268.443 415.497 268.434C415.512 268.426 415.527 268.417 415.542 268.409C415.557 268.401 415.572 268.392 415.587 268.383C415.602 268.375 415.617 268.367 415.631 268.358C415.646 268.35 415.661 268.341 415.676 268.333C415.691 268.324 415.706 268.316 415.721 268.307C415.736 268.299 415.751 268.291 415.765 268.282C415.78 268.274 415.795 268.265 415.81 268.257C415.825 268.248 415.84 268.24 415.855 268.231C415.87 268.223 415.885 268.214 415.899 268.206C415.914 268.198 415.929 268.189 415.944 268.18C415.959 268.172 415.974 268.164 415.989 268.155C416.681 267.775 417.115 266.935 417.123 265.729C417.14 263.345 415.486 260.433 413.429 259.227C412.389 258.617 411.445 258.559 410.764 258.959C410.749 258.967 410.734 258.976 410.72 258.985C410.705 258.993 410.69 259.001 410.675 259.01C410.66 259.018 410.645 259.027 410.63 259.035C410.615 259.044 410.6 259.052 410.586 259.061C410.571 259.069 410.556 259.077 410.541 259.086C410.526 259.094 410.511 259.103 410.496 259.111C410.481 259.12 410.466 259.128 410.452 259.137C410.437 259.145 410.422 259.154 410.407 259.162C410.392 259.17 410.377 259.179 410.362 259.188C410.347 259.196 410.332 259.204 410.318 259.213C410.303 259.221 410.288 259.23 410.273 259.238C410.258 259.247 410.243 259.255 410.228 259.264C410.213 259.272 410.198 259.28 410.184 259.289C410.169 259.297 410.154 259.306 410.139 259.314C410.124 259.323 410.109 259.331 410.094 259.34C410.079 259.348 410.065 259.357 410.05 259.365C410.035 259.373 410.02 259.382 410.005 259.391C409.99 259.399 409.975 259.407 409.96 259.416C409.945 259.424 409.931 259.433 409.916 259.441C409.901 259.45 409.886 259.458 409.871 259.467C409.856 259.475 409.841 259.483 409.826 259.492C409.811 259.5 409.797 259.509 409.782 259.517C409.767 259.526 409.752 259.534 409.737 259.543C409.722 259.551 409.707 259.559 409.692 259.568C409.677 259.576 409.663 259.585 409.648 259.594C409.633 259.602 409.618 259.61 409.603 259.619C409.588 259.627 409.573 259.636 409.559 259.644C409.543 259.653 409.529 259.661 409.514 259.67C409.499 259.678 409.484 259.686 409.469 259.695C409.454 259.703 409.439 259.712 409.425 259.72C409.41 259.729 409.395 259.737 409.38 259.746C409.365 259.754 409.35 259.762 409.335 259.771C409.32 259.779 409.305 259.788 409.291 259.796C409.276 259.805 409.261 259.813 409.246 259.822C409.231 259.83 409.216 259.839 409.201 259.847C409.186 259.855 409.171 259.864 409.157 259.873C409.142 259.881 409.127 259.889 409.112 259.898C409.097 259.906 409.082 259.915 409.067 259.923C409.052 259.932 409.037 259.94 409.023 259.949C409.008 259.957 408.993 259.965 408.978 259.974C408.963 259.982 408.948 259.991 408.933 259.999C408.918 260.008 408.903 260.016 408.889 260.025Z" fill="url(#paint78_linear)"/>
</g>
<circle opacity="0.67" r="4.31789" transform="matrix(-0.862529 -0.506007 0.00695074 -0.999976 411.478 264.636)" fill="url(#paint79_linear)"/>
<path fill-rule="evenodd" clip-rule="evenodd" d="M408.344 285.043L390.265 276.921C389.01 276.334 388.026 274.858 388.052 273.576C388.077 272.294 389.102 271.698 390.359 272.187L408.439 280.308C409.694 280.896 410.677 282.371 410.652 283.654C410.626 284.936 409.601 285.531 408.344 285.043Z" fill="url(#paint80_linear)" fill-opacity="0.8"/>
<path opacity="0.2" fill-rule="evenodd" clip-rule="evenodd" d="M410.413 284.482L390.988 275.741C389.639 275.109 388.582 273.521 388.61 272.141C388.637 270.761 389.739 270.12 391.089 270.646L410.515 279.387C411.863 280.019 412.92 281.607 412.893 282.987C412.865 284.368 411.764 285.008 410.413 284.482Z" fill="url(#paint81_linear)"/>
<g opacity="0.2">
<path d="M416.62 262.592C415.734 262.566 415.651 261.856 415.173 261.25C414.208 260.234 413.394 259.129 414.699 258.379C416.393 257.444 415.772 256.549 415.91 253.692C416.23 247.092 411.298 238.953 405.104 235.907C403.617 235.172 401.371 234.414 399.555 235.247C397.613 236.077 396.363 238.308 396.215 241.362C395.895 247.962 400.827 256.101 407.021 259.148C408.386 259.78 408.821 261.273 408.008 262.334C407.196 263.395 405.277 263.732 403.913 263.099C395.984 259.211 389.983 249.56 390.384 241.286C390.613 236.557 392.948 232.878 396.833 231.219C400.198 229.84 404.241 230.159 408.334 232.057C416.263 235.945 422.264 245.596 421.863 253.871C421.657 258.107 421.273 261.463 418.143 263.243C417.364 263.615 417.253 262.611 416.62 262.592Z" fill="url(#paint82_linear)"/>
</g>
</g>
<defs>
<filter id="filter0_d" x="155" y="80" width="361.041" height="402.189" filterUnits="userSpaceOnUse" color-interpolation-filters="sRGB">
<feFlood flood-opacity="0" result="BackgroundImageFix"/>
<feColorMatrix in="SourceAlpha" type="matrix" values="0 0 0 0 0 0 0 0 0 0 0 0 0 0 0 0 0 0 127 0"/>
<feOffset dx="10"/>
<feGaussianBlur stdDeviation="5"/>
<feColorMatrix type="matrix" values="0 0 0 0 0 0 0 0 0 0.287583 0 0 0 0 0.495833 0 0 0 0.2 0"/>
<feBlend mode="normal" in2="BackgroundImageFix" result="effect1_dropShadow"/>
<feBlend mode="normal" in="SourceGraphic" in2="effect1_dropShadow" result="shape"/>
</filter>
<filter id="filter1_d" x="351.061" y="212.216" width="29.9468" height="29.0823" filterUnits="userSpaceOnUse" color-interpolation-filters="sRGB">
<feFlood flood-opacity="0" result="BackgroundImageFix"/>
<feColorMatrix in="SourceAlpha" type="matrix" values="0 0 0 0 0 0 0 0 0 0 0 0 0 0 0 0 0 0 127 0"/>
<feOffset dy="10"/>
<feGaussianBlur stdDeviation="5"/>
<feColorMatrix type="matrix" values="0 0 0 0 0.137255 0 0 0 0 0.633098 0 0 0 0 0.992157 0 0 0 0.3 0"/>
<feBlend mode="normal" in2="BackgroundImageFix" result="effect1_dropShadow"/>
<feBlend mode="normal" in="SourceGraphic" in2="effect1_dropShadow" result="shape"/>
</filter>
<filter id="filter2_d" x="410.743" y="355.507" width="31.2047" height="29.9996" filterUnits="userSpaceOnUse" color-interpolation-filters="sRGB">
<feFlood flood-opacity="0" result="BackgroundImageFix"/>
<feColorMatrix in="SourceAlpha" type="matrix" values="0 0 0 0 0 0 0 0 0 0 0 0 0 0 0 0 0 0 127 0"/>
<feOffset dy="10"/>
<feGaussianBlur stdDeviation="5"/>
<feColorMatrix type="matrix" values="0 0 0 0 0.137255 0 0 0 0 0.633098 0 0 0 0 0.992157 0 0 0 0.3 0"/>
<feBlend mode="normal" in2="BackgroundImageFix" result="effect1_dropShadow"/>
<feBlend mode="normal" in="SourceGraphic" in2="effect1_dropShadow" result="shape"/>
</filter>
<filter id="filter3_d" x="452.411" y="265.475" width="30.1191" height="29.0308" filterUnits="userSpaceOnUse" color-interpolation-filters="sRGB">
<feFlood flood-opacity="0" result="BackgroundImageFix"/>
<feColorMatrix in="SourceAlpha" type="matrix" values="0 0 0 0 0 0 0 0 0 0 0 0 0 0 0 0 0 0 127 0"/>
<feOffset dy="10"/>
<feGaussianBlur stdDeviation="5"/>
<feColorMatrix type="matrix" values="0 0 0 0 0.137255 0 0 0 0 0.633098 0 0 0 0 0.992157 0 0 0 0.3 0"/>
<feBlend mode="normal" in2="BackgroundImageFix" result="effect1_dropShadow"/>
<feBlend mode="normal" in="SourceGraphic" in2="effect1_dropShadow" result="shape"/>
</filter>
<filter id="filter4_d" x="362.53" y="338.785" width="28.5296" height="27.6122" filterUnits="userSpaceOnUse" color-interpolation-filters="sRGB">
<feFlood flood-opacity="0" result="BackgroundImageFix"/>
<feColorMatrix in="SourceAlpha" type="matrix" values="0 0 0 0 0 0 0 0 0 0 0 0 0 0 0 0 0 0 127 0"/>
<feOffset dy="10"/>
<feGaussianBlur stdDeviation="5"/>
<feColorMatrix type="matrix" values="0 0 0 0 0.137255 0 0 0 0 0.633098 0 0 0 0 0.992157 0 0 0 0.3 0"/>
<feBlend mode="normal" in2="BackgroundImageFix" result="effect1_dropShadow"/>
<feBlend mode="normal" in="SourceGraphic" in2="effect1_dropShadow" result="shape"/>
</filter>
<filter id="filter5_d" x="396.211" y="257.438" width="32.4542" height="33.3035" filterUnits="userSpaceOnUse" color-interpolation-filters="sRGB">
<feFlood flood-opacity="0" result="BackgroundImageFix"/>
<feColorMatrix in="SourceAlpha" type="matrix" values="0 0 0 0 0 0 0 0 0 0 0 0 0 0 0 0 0 0 127 0"/>
<feOffset dy="10"/>
<feGaussianBlur stdDeviation="5"/>
<feColorMatrix type="matrix" values="0 0 0 0 0.137255 0 0 0 0 0.633098 0 0 0 0 0.992157 0 0 0 0.3 0"/>
<feBlend mode="normal" in2="BackgroundImageFix" result="effect1_dropShadow"/>
<feBlend mode="normal" in="SourceGraphic" in2="effect1_dropShadow" result="shape"/>
</filter>
<linearGradient id="paint0_linear" x1="382.286" y1="348.308" x2="229.738" y2="38.9134" gradientUnits="userSpaceOnUse">
<stop stop-color="#C0E5FF"/>
<stop offset="0.270833" stop-color="#50B5FF" stop-opacity="0.15"/>
<stop offset="1" stop-color="#DEF1FF"/>
</linearGradient>
<linearGradient id="paint1_linear" x1="237.621" y1="305.256" x2="237.522" y2="316.186" gradientUnits="userSpaceOnUse">
<stop stop-color="white"/>
<stop offset="1" stop-color="white" stop-opacity="0.51"/>
</linearGradient>
<linearGradient id="paint2_linear" x1="240.136" y1="253.769" x2="207.67" y2="289.469" gradientUnits="userSpaceOnUse">
<stop stop-color="#6DACE5"/>
<stop offset="1" stop-color="#23A1FD"/>
</linearGradient>
<linearGradient id="paint3_linear" x1="176.163" y1="239.55" x2="191.378" y2="239.372" gradientUnits="userSpaceOnUse">
<stop stop-color="#23A1FD" stop-opacity="0.34"/>
<stop offset="1" stop-color="#4E5C8F"/>
</linearGradient>
<linearGradient id="paint4_linear" x1="179.841" y1="238.606" x2="195.056" y2="238.428" gradientUnits="userSpaceOnUse">
<stop stop-color="#23A1FD" stop-opacity="0.34"/>
<stop offset="1" stop-color="#4E5C8F"/>
</linearGradient>
<linearGradient id="paint5_linear" x1="178.858" y1="182.577" x2="182.538" y2="182.584" gradientUnits="userSpaceOnUse">
<stop stop-color="#00AEEA"/>
<stop offset="1" stop-color="#5373AC"/>
</linearGradient>
<linearGradient id="paint6_linear" x1="187.262" y1="179.902" x2="191.829" y2="179.911" gradientUnits="userSpaceOnUse">
<stop stop-color="#00AEEA"/>
<stop offset="1" stop-color="#5373AC"/>
</linearGradient>
<linearGradient id="paint7_linear" x1="213.331" y1="199.472" x2="217.898" y2="199.481" gradientUnits="userSpaceOnUse">
<stop stop-color="#00AEEA"/>
<stop offset="1" stop-color="#5373AC"/>
</linearGradient>
<linearGradient id="paint8_linear" x1="195.999" y1="191.712" x2="200.566" y2="191.721" gradientUnits="userSpaceOnUse">
<stop stop-color="#00AEEA"/>
<stop offset="1" stop-color="#5373AC"/>
</linearGradient>
<linearGradient id="paint9_linear" x1="221.97" y1="189.907" x2="226.536" y2="189.916" gradientUnits="userSpaceOnUse">
<stop stop-color="#00AEEA"/>
<stop offset="1" stop-color="#5373AC"/>
</linearGradient>
<linearGradient id="paint10_linear" x1="230.695" y1="200.225" x2="235.262" y2="200.234" gradientUnits="userSpaceOnUse">
<stop stop-color="#00AEEA"/>
<stop offset="1" stop-color="#5373AC"/>
</linearGradient>
<linearGradient id="paint11_linear" x1="248.04" y1="208.094" x2="252.607" y2="208.103" gradientUnits="userSpaceOnUse">
<stop stop-color="#00AEEA"/>
<stop offset="1" stop-color="#5373AC"/>
</linearGradient>
<linearGradient id="paint12_linear" x1="256.785" y1="208.78" x2="261.352" y2="208.789" gradientUnits="userSpaceOnUse">
<stop stop-color="#00AEEA"/>
<stop offset="1" stop-color="#5373AC"/>
</linearGradient>
<linearGradient id="paint13_linear" x1="265.532" y1="208.129" x2="270.099" y2="208.138" gradientUnits="userSpaceOnUse">
<stop stop-color="#00AEEA"/>
<stop offset="1" stop-color="#5373AC"/>
</linearGradient>
<linearGradient id="paint14_linear" x1="282.856" y1="227.837" x2="287.423" y2="227.846" gradientUnits="userSpaceOnUse">
<stop stop-color="#00AEEA"/>
<stop offset="1" stop-color="#5373AC"/>
</linearGradient>
<linearGradient id="paint15_linear" x1="291.616" y1="219.912" x2="296.182" y2="219.921" gradientUnits="userSpaceOnUse">
<stop stop-color="#00AEEA"/>
<stop offset="1" stop-color="#5373AC"/>
</linearGradient>
<linearGradient id="paint16_linear" x1="185.723" y1="143.294" x2="201.527" y2="206.378" gradientUnits="userSpaceOnUse">
<stop stop-color="white"/>
<stop offset="0.4465" stop-color="white"/>
<stop offset="1" stop-color="#ACACAC"/>
</linearGradient>
<linearGradient id="paint17_linear" x1="203.071" y1="151.116" x2="218.874" y2="214.2" gradientUnits="userSpaceOnUse">
<stop stop-color="white"/>
<stop offset="0.4465" stop-color="white"/>
<stop offset="1" stop-color="#ACACAC"/>
</linearGradient>
<linearGradient id="paint18_linear" x1="211.808" y1="154.978" x2="227.611" y2="218.062" gradientUnits="userSpaceOnUse">
<stop stop-color="white"/>
<stop offset="0.4465" stop-color="white"/>
<stop offset="1" stop-color="#ACACAC"/>
</linearGradient>
<linearGradient id="paint19_linear" x1="220.545" y1="158.939" x2="236.348" y2="222.023" gradientUnits="userSpaceOnUse">
<stop stop-color="white"/>
<stop offset="0.4465" stop-color="white"/>
<stop offset="1" stop-color="#ACACAC"/>
</linearGradient>
<linearGradient id="paint20_linear" x1="237.892" y1="166.761" x2="253.696" y2="229.845" gradientUnits="userSpaceOnUse">
<stop stop-color="white"/>
<stop offset="0.4465" stop-color="white"/>
<stop offset="1" stop-color="#ACACAC"/>
</linearGradient>
<linearGradient id="paint21_linear" x1="246.631" y1="170.721" x2="262.437" y2="233.804" gradientUnits="userSpaceOnUse">
<stop stop-color="white"/>
<stop offset="0.4465" stop-color="white"/>
<stop offset="1" stop-color="#ACACAC"/>
</linearGradient>
<linearGradient id="paint22_linear" x1="255.236" y1="174.682" x2="271.035" y2="237.768" gradientUnits="userSpaceOnUse">
<stop stop-color="white"/>
<stop offset="0.4465" stop-color="white"/>
<stop offset="1" stop-color="#ACACAC"/>
</linearGradient>
<linearGradient id="paint23_linear" x1="272.715" y1="182.504" x2="288.519" y2="245.588" gradientUnits="userSpaceOnUse">
<stop stop-color="white"/>
<stop offset="0.4465" stop-color="white"/>
<stop offset="1" stop-color="#ACACAC"/>
</linearGradient>
<linearGradient id="paint24_linear" x1="281.325" y1="186.465" x2="297.128" y2="249.549" gradientUnits="userSpaceOnUse">
<stop stop-color="white"/>
<stop offset="0.4465" stop-color="white"/>
<stop offset="1" stop-color="#ACACAC"/>
</linearGradient>
<linearGradient id="paint25_linear" x1="181.31" y1="182.581" x2="184.991" y2="182.588" gradientUnits="userSpaceOnUse">
<stop stop-color="#00AEEA"/>
<stop offset="1" stop-color="#5373AC"/>
</linearGradient>
<linearGradient id="paint26_linear" x1="189.714" y1="179.907" x2="194.281" y2="179.916" gradientUnits="userSpaceOnUse">
<stop stop-color="#00AEEA"/>
<stop offset="1" stop-color="#5373AC"/>
</linearGradient>
<linearGradient id="paint27_linear" x1="215.784" y1="199.477" x2="220.351" y2="199.486" gradientUnits="userSpaceOnUse">
<stop stop-color="#00AEEA"/>
<stop offset="1" stop-color="#5373AC"/>
</linearGradient>
<linearGradient id="paint28_linear" x1="198.451" y1="191.717" x2="203.018" y2="191.726" gradientUnits="userSpaceOnUse">
<stop stop-color="#00AEEA"/>
<stop offset="1" stop-color="#5373AC"/>
</linearGradient>
<linearGradient id="paint29_linear" x1="224.422" y1="189.912" x2="228.988" y2="189.921" gradientUnits="userSpaceOnUse">
<stop stop-color="#00AEEA"/>
<stop offset="1" stop-color="#5373AC"/>
</linearGradient>
<linearGradient id="paint30_linear" x1="233.146" y1="200.229" x2="237.713" y2="200.238" gradientUnits="userSpaceOnUse">
<stop stop-color="#00AEEA"/>
<stop offset="1" stop-color="#5373AC"/>
</linearGradient>
<linearGradient id="paint31_linear" x1="250.493" y1="208.099" x2="255.06" y2="208.108" gradientUnits="userSpaceOnUse">
<stop stop-color="#00AEEA"/>
<stop offset="1" stop-color="#5373AC"/>
</linearGradient>
<linearGradient id="paint32_linear" x1="259.237" y1="208.784" x2="263.804" y2="208.793" gradientUnits="userSpaceOnUse">
<stop stop-color="#00AEEA"/>
<stop offset="1" stop-color="#5373AC"/>
</linearGradient>
<linearGradient id="paint33_linear" x1="267.984" y1="208.134" x2="272.551" y2="208.143" gradientUnits="userSpaceOnUse">
<stop stop-color="#00AEEA"/>
<stop offset="1" stop-color="#5373AC"/>
</linearGradient>
<linearGradient id="paint34_linear" x1="285.308" y1="227.842" x2="289.874" y2="227.851" gradientUnits="userSpaceOnUse">
<stop stop-color="#00AEEA"/>
<stop offset="1" stop-color="#5373AC"/>
</linearGradient>
<linearGradient id="paint35_linear" x1="294.068" y1="219.917" x2="298.634" y2="219.926" gradientUnits="userSpaceOnUse">
<stop stop-color="#00AEEA"/>
<stop offset="1" stop-color="#5373AC"/>
</linearGradient>
<linearGradient id="paint36_linear" x1="321.879" y1="306.852" x2="340.109" y2="366.989" gradientUnits="userSpaceOnUse">
<stop stop-color="#F2F2FF"/>
<stop offset="0.2731" stop-color="#E3E3FF"/>
<stop offset="1" stop-color="#BDBEFF"/>
</linearGradient>
<linearGradient id="paint37_linear" x1="342.104" y1="315.962" x2="360.331" y2="376.101" gradientUnits="userSpaceOnUse">
<stop stop-color="#F2F2FF"/>
<stop offset="0.2731" stop-color="#E3E3FF"/>
<stop offset="1" stop-color="#BDBEFF"/>
</linearGradient>
<linearGradient id="paint38_linear" x1="362.331" y1="325.072" x2="380.557" y2="385.211" gradientUnits="userSpaceOnUse">
<stop stop-color="#F2F2FF"/>
<stop offset="0.2731" stop-color="#E3E3FF"/>
<stop offset="1" stop-color="#BDBEFF"/>
</linearGradient>
<linearGradient id="paint39_linear" x1="382.554" y1="334.181" x2="400.776" y2="394.323" gradientUnits="userSpaceOnUse">
<stop stop-color="#F2F2FF"/>
<stop offset="0.2731" stop-color="#E3E3FF"/>
<stop offset="1" stop-color="#BDBEFF"/>
</linearGradient>
<linearGradient id="paint40_linear" x1="412.903" y1="347.845" x2="431.134" y2="407.982" gradientUnits="userSpaceOnUse">
<stop stop-color="#F2F2FF"/>
<stop offset="0.2731" stop-color="#E3E3FF"/>
<stop offset="1" stop-color="#BDBEFF"/>
</linearGradient>
<linearGradient id="paint41_linear" x1="433.132" y1="356.954" x2="451.362" y2="417.091" gradientUnits="userSpaceOnUse">
<stop stop-color="#F2F2FF"/>
<stop offset="0.2731" stop-color="#E3E3FF"/>
<stop offset="1" stop-color="#BDBEFF"/>
</linearGradient>
<linearGradient id="paint42_linear" x1="453.358" y1="366.064" x2="471.589" y2="426.201" gradientUnits="userSpaceOnUse">
<stop stop-color="#F2F2FF"/>
<stop offset="0.2731" stop-color="#E3E3FF"/>
<stop offset="1" stop-color="#BDBEFF"/>
</linearGradient>
<linearGradient id="paint43_linear" x1="471.669" y1="421.252" x2="438.901" y2="298.114" gradientUnits="userSpaceOnUse">
<stop stop-color="#303676" stop-opacity="0.69"/>
<stop offset="0.5" stop-color="#23A1FD" stop-opacity="0.63"/>
<stop offset="1" stop-color="#00AEEA" stop-opacity="0.69"/>
</linearGradient>
<linearGradient id="paint44_linear" x1="459.771" y1="425.565" x2="426.932" y2="302.468" gradientUnits="userSpaceOnUse">
<stop stop-color="#303676" stop-opacity="0.69"/>
<stop offset="0.5" stop-color="#23A1FD" stop-opacity="0.63"/>
<stop offset="1" stop-color="#00AEEA" stop-opacity="0.69"/>
</linearGradient>
<linearGradient id="paint45_linear" x1="177.247" y1="179.904" x2="305.454" y2="197.617" gradientUnits="userSpaceOnUse">
<stop stop-color="white" stop-opacity="0.54"/>
<stop offset="1" stop-color="white"/>
</linearGradient>
<linearGradient id="paint46_linear" x1="176.726" y1="186.506" x2="304.934" y2="204.22" gradientUnits="userSpaceOnUse">
<stop stop-color="white" stop-opacity="0.54"/>
<stop offset="1" stop-color="white"/>
</linearGradient>
<linearGradient id="paint47_linear" x1="174.434" y1="183.836" x2="255.94" y2="194.867" gradientUnits="userSpaceOnUse">
<stop stop-color="white" stop-opacity="0.54"/>
<stop offset="1" stop-color="white"/>
</linearGradient>
<linearGradient id="paint48_linear" x1="200.049" y1="245.732" x2="281.555" y2="256.763" gradientUnits="userSpaceOnUse">
<stop stop-color="white" stop-opacity="0.54"/>
<stop offset="1" stop-color="white"/>
</linearGradient>
<linearGradient id="paint49_linear" x1="200.064" y1="238.12" x2="281.57" y2="249.151" gradientUnits="userSpaceOnUse">
<stop stop-color="white" stop-opacity="0.54"/>
<stop offset="1" stop-color="white"/>
</linearGradient>
<linearGradient id="paint50_linear" x1="201.304" y1="230.511" x2="282.81" y2="241.542" gradientUnits="userSpaceOnUse">
<stop stop-color="white" stop-opacity="0.54"/>
<stop offset="1" stop-color="white"/>
</linearGradient>
<linearGradient id="paint51_linear" x1="336.681" y1="241.735" x2="481.879" y2="261.89" gradientUnits="userSpaceOnUse">
<stop stop-color="white" stop-opacity="0.54"/>
<stop offset="1" stop-color="white"/>
</linearGradient>
<linearGradient id="paint52_linear" x1="336.54" y1="249.489" x2="481.738" y2="269.644" gradientUnits="userSpaceOnUse">
<stop stop-color="white" stop-opacity="0.54"/>
<stop offset="1" stop-color="white"/>
</linearGradient>
<linearGradient id="paint53_linear" x1="334.545" y1="247.199" x2="426.663" y2="259.759" gradientUnits="userSpaceOnUse">
<stop stop-color="white" stop-opacity="0.54"/>
<stop offset="1" stop-color="white"/>
</linearGradient>
<linearGradient id="paint54_linear" x1="337.35" y1="256.96" x2="482.548" y2="277.115" gradientUnits="userSpaceOnUse">
<stop stop-color="white" stop-opacity="0.54"/>
<stop offset="1" stop-color="white"/>
</linearGradient>
<linearGradient id="paint55_linear" x1="337.211" y1="263.763" x2="482.409" y2="283.918" gradientUnits="userSpaceOnUse">
<stop stop-color="white" stop-opacity="0.54"/>
<stop offset="1" stop-color="white"/>
</linearGradient>
<linearGradient id="paint56_linear" x1="353.507" y1="241.425" x2="370.281" y2="231.9" gradientUnits="userSpaceOnUse">
<stop stop-color="#33A9FF" stop-opacity="0.55"/>
<stop offset="1" stop-color="#526CA4"/>
</linearGradient>
<linearGradient id="paint57_linear" x1="395.297" y1="259.689" x2="415.715" y2="241.709" gradientUnits="userSpaceOnUse">
<stop stop-color="#33A9FF" stop-opacity="0.55"/>
<stop offset="1" stop-color="#526CA4"/>
</linearGradient>
<linearGradient id="paint58_linear" x1="447.071" y1="282.521" x2="465.935" y2="267.123" gradientUnits="userSpaceOnUse">
<stop stop-color="#33A9FF" stop-opacity="0.76"/>
<stop offset="1" stop-color="#6073A5"/>
<stop offset="1" stop-color="#445F99"/>
</linearGradient>
<linearGradient id="paint59_linear" x1="355.748" y1="241.89" x2="371.566" y2="233.108" gradientUnits="userSpaceOnUse">
<stop stop-color="#33A9FF" stop-opacity="0.55"/>
<stop offset="1" stop-color="#526CA4"/>
</linearGradient>
<linearGradient id="paint60_linear" x1="449.478" y1="282.083" x2="468.863" y2="266.508" gradientUnits="userSpaceOnUse">
<stop stop-color="#33A9FF" stop-opacity="0.76"/>
<stop offset="1" stop-color="#6073A5"/>
<stop offset="1" stop-color="#445F99"/>
</linearGradient>
<linearGradient id="paint61_linear" x1="240.25" y1="292.779" x2="207.783" y2="328.479" gradientUnits="userSpaceOnUse">
<stop stop-color="#6DACE5"/>
<stop offset="1" stop-color="#23A1FD"/>
</linearGradient>
<linearGradient id="paint62_linear" x1="178.537" y1="278.565" x2="193.752" y2="278.387" gradientUnits="userSpaceOnUse">
<stop stop-color="#23A1FD" stop-opacity="0.34"/>
<stop offset="1" stop-color="#4E5C8F"/>
</linearGradient>
<linearGradient id="paint63_linear" x1="203.648" y1="285.7" x2="285.155" y2="296.731" gradientUnits="userSpaceOnUse">
<stop stop-color="white" stop-opacity="0.54"/>
<stop offset="1" stop-color="white"/>
</linearGradient>
<linearGradient id="paint64_linear" x1="203.664" y1="278.088" x2="285.17" y2="289.12" gradientUnits="userSpaceOnUse">
<stop stop-color="white" stop-opacity="0.54"/>
<stop offset="1" stop-color="white"/>
</linearGradient>
<linearGradient id="paint65_linear" x1="204.904" y1="270.48" x2="286.411" y2="281.511" gradientUnits="userSpaceOnUse">
<stop stop-color="white" stop-opacity="0.54"/>
<stop offset="1" stop-color="white"/>
</linearGradient>
<linearGradient id="paint66_linear" x1="341.239" y1="252.64" x2="357.204" y2="245.814" gradientUnits="userSpaceOnUse">
<stop stop-color="#279AF2" stop-opacity="0.62"/>
<stop offset="1" stop-color="#50669D"/>
</linearGradient>
<linearGradient id="paint67_linear" x1="341.765" y1="251.107" x2="358.93" y2="243.782" gradientUnits="userSpaceOnUse">
<stop stop-color="#279AF2" stop-opacity="0.62"/>
<stop offset="1" stop-color="#50669D"/>
</linearGradient>
<linearGradient id="paint68_linear" x1="436.409" y1="294.486" x2="452.375" y2="287.66" gradientUnits="userSpaceOnUse">
<stop stop-color="#279AF2" stop-opacity="0.62"/>
<stop offset="1" stop-color="#50669D"/>
</linearGradient>
<linearGradient id="paint69_linear" x1="437.535" y1="293.01" x2="454.7" y2="285.685" gradientUnits="userSpaceOnUse">
<stop stop-color="#279AF2" stop-opacity="0.62"/>
<stop offset="1" stop-color="#50669D"/>
</linearGradient>
<linearGradient id="paint70_linear" x1="366.397" y1="220.693" x2="366.264" y2="212.829" gradientUnits="userSpaceOnUse">
<stop stop-color="#224B96"/>
<stop offset="1" stop-color="#23A1FD" stop-opacity="0.39"/>
</linearGradient>
<linearGradient id="paint71_linear" x1="2.55904" y1="4.17407" x2="7.13717" y2="7.30872" gradientUnits="userSpaceOnUse">
<stop stop-color="#303778" stop-opacity="0.79"/>
<stop offset="1" stop-color="#23A1FD" stop-opacity="0.63"/>
</linearGradient>
<linearGradient id="paint72_linear" x1="427.028" y1="364.844" x2="426.541" y2="356.141" gradientUnits="userSpaceOnUse">
<stop stop-color="#224B96"/>
<stop offset="1" stop-color="#23A1FD" stop-opacity="0.39"/>
</linearGradient>
<linearGradient id="paint73_linear" x1="2.86212" y1="4.61728" x2="7.94632" y2="8.13701" gradientUnits="userSpaceOnUse">
<stop stop-color="#303778" stop-opacity="0.49"/>
<stop offset="1" stop-color="#23A1FD" stop-opacity="0.54"/>
</linearGradient>
<linearGradient id="paint74_linear" x1="468.087" y1="273.907" x2="467.647" y2="266.047" gradientUnits="userSpaceOnUse">
<stop stop-color="#224B96"/>
<stop offset="1" stop-color="#23A1FD" stop-opacity="0.39"/>
</linearGradient>
<linearGradient id="paint75_linear" x1="2.58481" y1="4.16992" x2="7.17641" y2="7.34862" gradientUnits="userSpaceOnUse">
<stop stop-color="#303778" stop-opacity="0.69"/>
<stop offset="1" stop-color="#23A1FD" stop-opacity="0.55"/>
</linearGradient>
<linearGradient id="paint76_linear" x1="377.314" y1="345.893" x2="376.944" y2="339.267" gradientUnits="userSpaceOnUse">
<stop offset="0.245695" stop-color="#0094FF"/>
<stop offset="0.25" stop-color="#0194FF"/>
<stop offset="1" stop-color="#C0E5FF"/>
</linearGradient>
<linearGradient id="paint77_linear" x1="2.17879" y1="3.51491" x2="6.04914" y2="6.1943" gradientUnits="userSpaceOnUse">
<stop stop-color="#23A1FD"/>
<stop offset="0.39918" stop-color="#56BBFB"/>
<stop offset="1" stop-color="#A4E2F9"/>
</linearGradient>
<linearGradient id="paint78_linear" x1="413.008" y1="268.762" x2="412.329" y2="259.406" gradientUnits="userSpaceOnUse">
<stop stop-color="#224B96"/>
<stop offset="1" stop-color="#23A1FD" stop-opacity="0.39"/>
</linearGradient>
<linearGradient id="paint79_linear" x1="2.52455" y1="4.9739" x2="7.54512" y2="7.81983" gradientUnits="userSpaceOnUse">
<stop stop-color="#303778" stop-opacity="0.55"/>
<stop offset="1" stop-color="#23A1FD"/>
</linearGradient>
<linearGradient id="paint80_linear" x1="387.649" y1="273.361" x2="403.615" y2="266.536" gradientUnits="userSpaceOnUse">
<stop stop-color="#279AF2" stop-opacity="0.62"/>
<stop offset="1" stop-color="#50669D"/>
</linearGradient>
<linearGradient id="paint81_linear" x1="388.177" y1="271.91" x2="405.342" y2="264.585" gradientUnits="userSpaceOnUse">
<stop stop-color="#279AF2" stop-opacity="0.62"/>
<stop offset="1" stop-color="#50669D"/>
</linearGradient>
<linearGradient id="paint82_linear" x1="397.223" y1="258.283" x2="417.64" y2="240.303" gradientUnits="userSpaceOnUse">
<stop stop-color="#33A9FF" stop-opacity="0.55"/>
<stop offset="1" stop-color="#526CA4"/>
</linearGradient>
</defs>
</svg>
