<svg width="652" height="562" viewBox="0 0 652 562" fill="none" xmlns="http://www.w3.org/2000/svg">
<g opacity="0.3">
<path d="M142.535 171.08L118.419 160.023C117.662 159.647 117 158.669 117 157.842V132.268C117 131.441 117.662 131.065 118.419 131.366L142.535 142.422C143.292 142.798 143.954 143.776 143.954 144.604V170.177C144.049 171.08 143.386 171.456 142.535 171.08Z" fill="url(#paint0_linear)"/>
<path d="M142.535 171.08L118.419 160.023C117.662 159.647 117 158.669 117 157.842V132.268C117 131.441 117.662 131.065 118.419 131.366L142.535 142.422C143.292 142.798 143.954 143.776 143.954 144.604V170.177C144.049 171.08 143.386 171.456 142.535 171.08Z" fill="url(#paint1_linear)"/>
<path d="M142.535 171.08L118.419 160.023C117.662 159.647 117 158.669 117 157.842V132.268C117 131.441 117.662 131.065 118.419 131.366L142.535 142.422C143.292 142.798 143.954 143.776 143.954 144.604V170.177C144.049 171.08 143.386 171.456 142.535 171.08Z" fill="url(#paint2_linear)"/>
</g>
<g opacity="0.3">
<path d="M551.987 222.46L519.669 207.968C518.655 207.475 517.768 206.194 517.768 205.109V171.591C517.768 170.507 518.655 170.014 519.669 170.408L551.987 184.9C553.001 185.393 553.888 186.674 553.888 187.759V221.277C554.015 222.46 553.127 222.953 551.987 222.46Z" fill="url(#paint3_linear)"/>
<path d="M551.987 222.46L519.669 207.968C518.655 207.475 517.768 206.194 517.768 205.109V171.591C517.768 170.507 518.655 170.014 519.669 170.408L551.987 184.9C553.001 185.393 553.888 186.674 553.888 187.759V221.277C554.015 222.46 553.127 222.953 551.987 222.46Z" fill="url(#paint4_linear)"/>
<path d="M551.987 222.46L519.669 207.968C518.655 207.475 517.768 206.194 517.768 205.109V171.591C517.768 170.507 518.655 170.014 519.669 170.408L551.987 184.9C553.001 185.393 553.888 186.674 553.888 187.759V221.277C554.015 222.46 553.127 222.953 551.987 222.46Z" fill="url(#paint5_linear)"/>
</g>
<g opacity="0.3">
<path d="M350.885 97.8169L326.768 86.7602C326.012 86.3841 325.35 85.4063 325.35 84.5789V59.0055C325.35 58.1781 326.012 57.802 326.768 58.1029L350.885 69.1596C351.642 69.5357 352.304 70.5135 352.304 71.3409V96.9143C352.398 97.8169 351.736 98.193 350.885 97.8169Z" fill="url(#paint6_linear)"/>
<path d="M350.885 97.8169L326.768 86.7602C326.012 86.3841 325.35 85.4063 325.35 84.5789V59.0055C325.35 58.1781 326.012 57.802 326.768 58.1029L350.885 69.1596C351.642 69.5357 352.304 70.5135 352.304 71.3409V96.9143C352.398 97.8169 351.736 98.193 350.885 97.8169Z" fill="url(#paint7_linear)"/>
<path d="M350.885 97.8169L326.768 86.7602C326.012 86.3841 325.35 85.4063 325.35 84.5789V59.0055C325.35 58.1781 326.012 57.802 326.768 58.1029L350.885 69.1596C351.642 69.5357 352.304 70.5135 352.304 71.3409V96.9143C352.398 97.8169 351.736 98.193 350.885 97.8169Z" fill="url(#paint8_linear)"/>
</g>
<g opacity="0.3">
<path d="M573.943 391.82L549.826 380.764C549.069 380.387 548.407 379.41 548.407 378.582V353.009C548.407 352.182 549.069 351.805 549.826 352.106L573.943 363.163C574.699 363.539 575.361 364.517 575.361 365.344V390.918C575.456 391.82 574.794 392.196 573.943 391.82Z" fill="url(#paint9_linear)"/>
<path d="M573.943 391.82L549.826 380.764C549.069 380.387 548.407 379.41 548.407 378.582V353.009C548.407 352.182 549.069 351.805 549.826 352.106L573.943 363.163C574.699 363.539 575.361 364.517 575.361 365.344V390.918C575.456 391.82 574.794 392.196 573.943 391.82Z" fill="url(#paint10_linear)"/>
<path d="M573.943 391.82L549.826 380.764C549.069 380.387 548.407 379.41 548.407 378.582V353.009C548.407 352.182 549.069 351.805 549.826 352.106L573.943 363.163C574.699 363.539 575.361 364.517 575.361 365.344V390.918C575.456 391.82 574.794 392.196 573.943 391.82Z" fill="url(#paint11_linear)"/>
</g>
<g opacity="0.3">
<path d="M496.341 499.298L465.647 485.346C464.684 484.871 463.842 483.637 463.842 482.593V450.322C463.842 449.278 464.684 448.803 465.647 449.183L496.341 463.136C497.304 463.61 498.147 464.844 498.147 465.888V498.159C498.267 499.298 497.425 499.773 496.341 499.298Z" fill="url(#paint12_linear)"/>
<path d="M496.341 499.298L465.647 485.346C464.684 484.871 463.842 483.637 463.842 482.593V450.322C463.842 449.278 464.684 448.803 465.647 449.183L496.341 463.136C497.304 463.61 498.147 464.844 498.147 465.888V498.159C498.267 499.298 497.425 499.773 496.341 499.298Z" fill="url(#paint13_linear)"/>
<path d="M496.341 499.298L465.647 485.346C464.684 484.871 463.842 483.637 463.842 482.593V450.322C463.842 449.278 464.684 448.803 465.647 449.183L496.341 463.136C497.304 463.61 498.147 464.844 498.147 465.888V498.159C498.267 499.298 497.425 499.773 496.341 499.298Z" fill="url(#paint14_linear)"/>
</g>
<g opacity="0.3">
<path d="M385.202 493.627L361.086 482.571C360.329 482.195 359.667 481.217 359.667 480.389V454.816C359.667 453.989 360.329 453.613 361.086 453.913L385.202 464.97C385.959 465.346 386.621 466.324 386.621 467.151V492.725C386.716 493.627 386.053 494.004 385.202 493.627Z" fill="url(#paint15_linear)"/>
<path d="M385.202 493.627L361.086 482.571C360.329 482.195 359.667 481.217 359.667 480.389V454.816C359.667 453.989 360.329 453.613 361.086 453.913L385.202 464.97C385.959 465.346 386.621 466.324 386.621 467.151V492.725C386.716 493.627 386.053 494.004 385.202 493.627Z" fill="url(#paint16_linear)"/>
<path d="M385.202 493.627L361.086 482.571C360.329 482.195 359.667 481.217 359.667 480.389V454.816C359.667 453.989 360.329 453.613 361.086 453.913L385.202 464.97C385.959 465.346 386.621 466.324 386.621 467.151V492.725C386.716 493.627 386.053 494.004 385.202 493.627Z" fill="url(#paint17_linear)"/>
</g>
<defs>
<linearGradient id="paint0_linear" x1="117.432" y1="144.525" x2="143.063" y2="159.658" gradientUnits="userSpaceOnUse">
<stop offset="0.1715" stop-color="#BBE2FF"/>
<stop offset="1" stop-color="#23A1FD" stop-opacity="0.75"/>
</linearGradient>
<linearGradient id="paint1_linear" x1="117.432" y1="144.525" x2="143.063" y2="159.658" gradientUnits="userSpaceOnUse">
<stop offset="0.1715" stop-color="#BBE2FF"/>
<stop offset="1" stop-color="#23A1FD" stop-opacity="0.75"/>
</linearGradient>
<linearGradient id="paint2_linear" x1="117.432" y1="144.525" x2="143.063" y2="159.658" gradientUnits="userSpaceOnUse">
<stop offset="0.1715" stop-color="#BBE2FF"/>
<stop offset="1" stop-color="#23A1FD" stop-opacity="0.75"/>
</linearGradient>
<linearGradient id="paint3_linear" x1="518.346" y1="187.655" x2="552.296" y2="208.15" gradientUnits="userSpaceOnUse">
<stop offset="0.1715" stop-color="#BBE2FF"/>
<stop offset="1" stop-color="#23A1FD" stop-opacity="0.75"/>
</linearGradient>
<linearGradient id="paint4_linear" x1="518.346" y1="187.655" x2="552.296" y2="208.15" gradientUnits="userSpaceOnUse">
<stop offset="0.1715" stop-color="#BBE2FF"/>
<stop offset="1" stop-color="#23A1FD" stop-opacity="0.75"/>
</linearGradient>
<linearGradient id="paint5_linear" x1="518.346" y1="187.655" x2="552.296" y2="208.15" gradientUnits="userSpaceOnUse">
<stop offset="0.1715" stop-color="#BBE2FF"/>
<stop offset="1" stop-color="#23A1FD" stop-opacity="0.75"/>
</linearGradient>
<linearGradient id="paint6_linear" x1="325.781" y1="71.262" x2="351.413" y2="86.3954" gradientUnits="userSpaceOnUse">
<stop offset="0.1715" stop-color="#BBE2FF"/>
<stop offset="1" stop-color="#23A1FD" stop-opacity="0.75"/>
</linearGradient>
<linearGradient id="paint7_linear" x1="325.781" y1="71.262" x2="351.413" y2="86.3954" gradientUnits="userSpaceOnUse">
<stop offset="0.1715" stop-color="#BBE2FF"/>
<stop offset="1" stop-color="#23A1FD" stop-opacity="0.75"/>
</linearGradient>
<linearGradient id="paint8_linear" x1="325.781" y1="71.262" x2="351.413" y2="86.3954" gradientUnits="userSpaceOnUse">
<stop offset="0.1715" stop-color="#BBE2FF"/>
<stop offset="1" stop-color="#23A1FD" stop-opacity="0.75"/>
</linearGradient>
<linearGradient id="paint9_linear" x1="548.839" y1="365.265" x2="574.47" y2="380.399" gradientUnits="userSpaceOnUse">
<stop offset="0.1715" stop-color="#BBE2FF"/>
<stop offset="1" stop-color="#23A1FD" stop-opacity="0.75"/>
</linearGradient>
<linearGradient id="paint10_linear" x1="548.839" y1="365.265" x2="574.47" y2="380.399" gradientUnits="userSpaceOnUse">
<stop offset="0.1715" stop-color="#BBE2FF"/>
<stop offset="1" stop-color="#23A1FD" stop-opacity="0.75"/>
</linearGradient>
<linearGradient id="paint11_linear" x1="548.839" y1="365.265" x2="574.47" y2="380.399" gradientUnits="userSpaceOnUse">
<stop offset="0.1715" stop-color="#BBE2FF"/>
<stop offset="1" stop-color="#23A1FD" stop-opacity="0.75"/>
</linearGradient>
<linearGradient id="paint12_linear" x1="464.391" y1="465.789" x2="496.868" y2="485.128" gradientUnits="userSpaceOnUse">
<stop offset="0.1715" stop-color="#BBE2FF"/>
<stop offset="1" stop-color="#23A1FD" stop-opacity="0.75"/>
</linearGradient>
<linearGradient id="paint13_linear" x1="464.391" y1="465.789" x2="496.868" y2="485.128" gradientUnits="userSpaceOnUse">
<stop offset="0.1715" stop-color="#BBE2FF"/>
<stop offset="1" stop-color="#23A1FD" stop-opacity="0.75"/>
</linearGradient>
<linearGradient id="paint14_linear" x1="464.391" y1="465.789" x2="496.868" y2="485.128" gradientUnits="userSpaceOnUse">
<stop offset="0.1715" stop-color="#BBE2FF"/>
<stop offset="1" stop-color="#23A1FD" stop-opacity="0.75"/>
</linearGradient>
<linearGradient id="paint15_linear" x1="360.099" y1="467.073" x2="385.73" y2="482.206" gradientUnits="userSpaceOnUse">
<stop offset="0.1715" stop-color="#BBE2FF"/>
<stop offset="1" stop-color="#23A1FD" stop-opacity="0.75"/>
</linearGradient>
<linearGradient id="paint16_linear" x1="360.099" y1="467.073" x2="385.73" y2="482.206" gradientUnits="userSpaceOnUse">
<stop offset="0.1715" stop-color="#BBE2FF"/>
<stop offset="1" stop-color="#23A1FD" stop-opacity="0.75"/>
</linearGradient>
<linearGradient id="paint17_linear" x1="360.099" y1="467.073" x2="385.73" y2="482.206" gradientUnits="userSpaceOnUse">
<stop offset="0.1715" stop-color="#BBE2FF"/>
<stop offset="1" stop-color="#23A1FD" stop-opacity="0.75"/>
</linearGradient>
</defs>
</svg>
