<svg width="1437" height="508" viewBox="0 0 1437 508" fill="none" xmlns="http://www.w3.org/2000/svg">
<path d="M1437 508C965.983 456.489 473.012 446.565 0 508V75.096C0 75.096 321.144 -71.6133 564.322 45.0854C807.5 161.784 1437 75.096 1437 75.096V508Z" fill="#00BDFF" fill-opacity="0.03"/>
<path d="M1437 307.94C850.19 203.65 537.084 405.152 0 506.543V55.4127C0 55.4127 206.12 195.824 503 78C799.88 -39.8238 1437 148.066 1437 148.066V307.94Z" fill="#00BDFF" fill-opacity="0.02"/>
<path d="M1436 179.235C849.397 55.226 538.895 353.447 2.00004 474.01V62.2809C2.00004 62.2809 407.012 141.403 854.42 51.8616C1301.83 -37.6802 1436 179.235 1436 179.235Z" fill="#00BDFF" fill-opacity="0.03"/>
</svg>
