<svg width="1437" height="523" viewBox="0 0 1437 523" fill="none" xmlns="http://www.w3.org/2000/svg">
<path d="M1437 0C965.983 53.032 473.012 63.2491 0 0V445.687C0 445.687 321.144 596.728 564.322 476.583C807.5 356.439 1437 445.687 1437 445.687V0Z" fill="#00BDFF" fill-opacity="0.03"/>
<path d="M1437 205.968C850.19 313.337 537.084 105.885 0 1.49976V465.951C0 465.951 206.12 321.394 503 442.697C799.88 564 1437 370.562 1437 370.562V205.968Z" fill="#00BDFF" fill-opacity="0.03"/>
<path d="M1436 338.472C849.397 466.143 538.895 159.117 2.00004 34.994V458.88C2.00004 458.88 407.012 377.421 854.42 469.607C1301.83 561.793 1436 338.472 1436 338.472Z" fill="#00BDFF" fill-opacity="0.02"/>
</svg>
