<svg width="108" height="101" viewBox="0 0 108 101" fill="none" xmlns="http://www.w3.org/2000/svg">
<path d="M30.4863 98V26.1384C30.4863 26.1384 24.9539 28.1222 24.7883 30.4817C24.5509 33.8656 40.1016 33.2456 32.4449 33.7721C24.7883 34.2985 28.1715 36.0095 22.4735 33.7721C16.7756 31.5346 39.5675 40.616 34.4037 37.8521C29.24 35.0882 17.044 38.5102 23.8103 37.8521C30.5767 37.194 41.8822 42.0638 37.6087 40.616C33.3353 39.1683 26.3909 42.7218 20.6929 40.616C14.995 38.5102 44.9092 45.749 35.65 44.038C26.3909 42.327 29.596 44.9593 20.6929 44.038C11.7899 43.1167 45.2653 49.2582 37.6087 47.0208C29.9521 44.7833 23.1858 50.7503 18.022 48.6445C12.8582 46.5387 24.6128 52.3774 36.1868 51.3594C47.7607 50.3415 21.3541 53.1796 19.9296 52.5216C18.5051 51.8635 42.5944 55.4106 37.6087 54.226C32.623 53.0415 17.4879 56.9362 18.022 56.0149C18.5562 55.0936 42.4433 58.7788 38.704 60.2266C34.9647 61.6744 25.6787 62.8589 18.022 60.2266C10.3654 57.5943 47.251 65.4912 38.704 63.6486C30.1571 61.806 33.5134 64.3066 18.022 63.6486C2.53066 62.9905 52.2098 68.3867 40.8138 66.2809C29.4179 64.175 8.76289 67.7286 19.4465 66.2809C30.1301 64.8331 46.5118 73.9145 40.8138 70.4925C35.1158 67.0706 36.0061 75.4939 19.4465 72.4668C2.88687 69.4396 51.5627 72.0596 42.7725 73.9145C38.8661 74.7388 32.4449 73.6513 32.4449 74.8358C32.4449 76.0204 32.4449 91.9457 32.4449 95.2361C32.4449 98.5265 50.2414 98 53.0733 96.373V66.2809C53.0733 66.2809 49.2228 65.7365 45.2653 63.6486C36.9956 59.2855 64.1398 58.7788 71.0842 61.2795C78.0286 63.7802 42.7725 56.0149 42.7725 56.0149C42.7725 56.0149 59.5102 54.1723 69.6597 56.0149C79.8092 57.8575 37.7868 46.2754 42.7725 48.6445C47.7582 51.0136 70.0695 46.976 73.6307 49.345C77.192 51.7141 29.7541 41.0109 40.8138 44.038C51.8735 47.0651 71.2623 39.0366 66.8107 42.0638C62.3592 45.0909 40.8138 33.114 40.8138 35.483C40.8138 37.8521 78.2067 34.4301 68.4133 35.483C58.6199 36.536 30.4863 20.2157 40.8138 28.5075C51.1414 36.7992 60.5786 30.4817 68.4133 30.4817C76.248 30.4817 37.6087 22.3216 45.2653 25.2171C52.922 28.1126 61.2908 24.9539 66.8107 26.1384C72.3307 27.3229 35.2939 21.7951 42.7725 20.2157C50.2511 18.6364 62.5373 17.057 66.8107 20.2157C71.0842 23.3745 42.7725 11.3976 45.2653 15.0828C47.7582 18.768 47.7582 12.9769 62.3592 15.0828C76.9602 17.1886 42.7725 10.0814 46.5118 9.68657C50.2511 9.29172 59.6883 7.3175 58.6199 8.50204C57.5515 9.68657 52.3877 10.8711 50.2511 7.3175C48.1144 3.76391 57.1954 1 57.1954 1C56.5001 37.8015 52.9219 92.4722 55.4148 95.2361C57.9077 98 88 95.2361 88 95.2361" stroke="url(#paint0_linear)" stroke-width="0.8"/>
<path d="M86.5701 101V29C86.5701 29 81.0078 30.9876 80.8413 33.3516C80.6026 36.742 96.2374 36.1209 88.5393 36.6484C80.8413 37.1758 84.2428 38.8901 78.514 36.6484C72.7852 34.4066 95.7004 43.5055 90.5087 40.7363C85.317 37.967 73.0551 41.3956 79.858 40.7363C86.661 40.0769 98.0277 44.956 93.7311 43.5055C89.4345 42.0549 82.4525 45.6154 76.7237 43.5055C70.995 41.3956 101.071 48.6483 91.7618 46.9341C82.4525 45.2198 85.675 47.8571 76.7237 46.9341C67.7725 46.011 101.429 52.1643 93.7311 49.9226C86.033 47.6808 79.2301 53.6593 74.0384 51.5495C68.8467 49.4396 80.6649 55.2895 92.3014 54.2696C103.938 53.2497 77.3885 56.0933 75.9563 55.434C74.5241 54.7746 98.7438 58.3285 93.7311 57.1417C88.7184 55.9549 73.5013 59.8571 74.0384 58.9341C74.5754 58.011 98.5918 61.7033 94.8323 63.1538C91.0728 64.6044 81.7365 65.7912 74.0384 63.1538C66.3403 60.5165 103.425 68.4286 94.8323 66.5824C86.2391 64.7363 89.6135 67.2418 74.0384 66.5824C58.4632 65.9231 108.411 71.3297 96.9535 69.2198C85.4959 67.1099 64.7291 70.6703 75.4706 69.2198C86.212 67.7692 102.682 76.8681 96.9535 73.4396C91.2247 70.011 92.1198 78.4506 75.4706 75.4176C58.8213 72.3846 107.761 75.0097 98.9228 76.8681C94.9953 77.694 88.5393 76.6044 88.5393 77.7912C88.5393 78.978 88.5393 94.9341 88.5393 98.2308" stroke="url(#paint1_linear)" stroke-width="0.8"/>
<path d="M89.5701 101V29C89.5701 29 84.0078 30.9876 83.8413 33.3516C83.6026 36.742 99.2374 36.1209 91.5393 36.6484C83.8413 37.1758 87.2428 38.8901 81.514 36.6484C75.7852 34.4066 98.7004 43.5055 93.5087 40.7363C88.317 37.967 76.0551 41.3956 82.858 40.7363C89.661 40.0769 101.028 44.956 96.7311 43.5055C92.4345 42.0549 85.4525 45.6154 79.7237 43.5055C73.995 41.3956 104.071 48.6483 94.7618 46.9341C85.4525 45.2198 88.675 47.8571 79.7237 46.9341C70.7725 46.011 104.429 52.1643 96.7311 49.9226C89.033 47.6808 82.2301 53.6593 77.0384 51.5495C71.8467 49.4396 83.6649 55.2895 95.3014 54.2696C106.938 53.2497 80.3885 56.0933 78.9563 55.434C77.5241 54.7746 101.744 58.3285 96.7311 57.1417C91.7184 55.9549 76.5013 59.8571 77.0384 58.9341C77.5754 58.011 101.592 61.7033 97.8323 63.1538C94.0728 64.6044 84.7365 65.7912 77.0384 63.1538C69.3403 60.5165 106.425 68.4286 97.8323 66.5824C89.2391 64.7363 92.6135 67.2418 77.0384 66.5824C61.4632 65.9231 111.411 71.3297 99.9535 69.2198C88.4959 67.1099 67.7291 70.6703 78.4706 69.2198C89.212 67.7692 105.682 76.8681 99.9535 73.4396C94.2247 70.011 95.1198 78.4506 78.4706 75.4176C61.8213 72.3846 110.761 75.0097 101.923 76.8681C97.9953 77.694 91.5393 76.6044 91.5393 77.7912C91.5393 78.978 91.5393 94.9341 91.5393 98.2308" stroke="url(#paint2_linear)" stroke-opacity="0.3" stroke-width="0.8"/>
<defs>
<linearGradient id="paint0_linear" x1="39.0936" y1="-3.0265" x2="72.9944" y2="106.283" gradientUnits="userSpaceOnUse">
<stop stop-color="#58FFB3"/>
<stop offset="0.713542" stop-color="#5E19E4"/>
<stop offset="1" stop-color="#902EAA" stop-opacity="0.37"/>
</linearGradient>
<linearGradient id="paint1_linear" x1="95.224" y1="-0.221059" x2="129.093" y2="109.365" gradientUnits="userSpaceOnUse">
<stop stop-color="#58FFB3"/>
<stop offset="0.826719" stop-color="#5E19E4"/>
<stop offset="1" stop-color="#902EAA" stop-opacity="0.37"/>
</linearGradient>
<linearGradient id="paint2_linear" x1="98.224" y1="-0.221059" x2="132.093" y2="109.365" gradientUnits="userSpaceOnUse">
<stop stop-color="#58FFB3"/>
<stop offset="0.826719" stop-color="#5E19E4"/>
<stop offset="1" stop-color="#902EAA" stop-opacity="0.37"/>
</linearGradient>
</defs>
</svg>
