<svg width="227" height="466" viewBox="0 0 227 466" fill="none" xmlns="http://www.w3.org/2000/svg">
<path d="M47.3293 459.424V120.545C47.3293 120.545 30.7785 129.9 30.2831 141.027C29.5727 156.984 76.0948 154.061 53.1889 156.543C30.2831 159.026 40.4043 167.095 23.3581 156.543C6.31192 145.992 74.497 188.818 59.0489 175.784C43.6008 162.75 7.11499 178.887 27.3573 175.784C47.5997 172.68 81.4217 195.645 68.6371 188.818C55.8524 181.99 35.0774 198.748 18.0312 188.818C0.984977 178.887 90.4775 213.023 62.7774 204.955C35.0773 196.886 44.6659 209.299 18.0312 204.955C-8.60351 200.61 91.5429 229.572 68.6371 219.02C45.7312 208.469 25.4889 236.608 10.0408 226.678C-5.40736 216.747 29.7581 244.281 64.3831 239.48C99.0082 234.68 20.0091 248.064 15.7476 244.961C11.486 241.857 83.5525 258.584 68.6371 252.998C53.7216 247.413 8.44282 265.779 10.0408 261.434C11.6387 257.09 83.1004 274.468 71.9138 281.295C60.7272 288.123 32.9467 293.708 10.0408 281.295C-12.8652 268.882 97.4831 306.122 71.9138 297.432C46.3445 288.743 56.3853 300.536 10.0408 297.432C-36.3037 294.329 112.318 319.776 78.2256 309.845C44.133 299.915 -17.6592 316.673 14.3023 309.845C46.2638 303.018 95.2719 345.844 78.2256 329.706C61.1792 313.569 63.8427 353.291 14.3023 339.016C-35.2381 324.741 110.382 337.096 84.0852 345.844C72.3988 349.731 53.1889 344.602 53.1889 350.188C53.1889 355.774 53.1889 430.873 53.1889 446.39C53.1889 461.906 106.429 459.424 114.901 451.751V309.845C114.901 309.845 103.382 307.278 91.5429 297.432C66.8029 276.857 148.009 274.468 168.784 286.261C189.559 298.053 84.0852 261.434 84.0852 261.434C84.0852 261.434 134.158 252.745 164.522 261.434C194.886 270.123 69.1698 215.506 84.0852 226.678C99.0006 237.849 165.748 218.809 176.402 229.981C187.056 241.153 45.139 190.679 78.2256 204.955C111.312 219.23 169.316 181.37 155.999 195.645C142.682 209.92 78.2256 153.44 78.2256 164.612C78.2256 175.784 190.091 159.647 160.793 164.612C131.495 169.577 47.3293 92.6158 78.2256 131.717C109.122 170.818 137.355 141.027 160.793 141.027C184.232 141.027 68.6369 102.546 91.5429 116.201C114.449 129.855 139.485 114.959 155.999 120.545C172.512 126.131 61.7121 100.064 84.0852 92.6158C106.458 85.1679 143.214 77.7201 155.999 92.6158C168.784 107.512 84.0851 51.0318 91.5429 68.4102C99.0007 85.7886 99.0006 58.4797 142.682 68.4102C186.362 78.3407 84.0852 44.8253 95.2718 42.9633C106.458 41.1013 134.691 31.7915 131.495 37.3774C128.299 42.9633 112.851 48.5492 106.458 31.7915C100.066 15.0338 127.233 2 127.233 2C125.153 175.545 114.449 433.356 121.906 446.39C129.364 459.424 219.389 446.39 219.389 446.39" stroke="url(#paint0_linear)" stroke-width="2"/>
<path opacity="0.25" d="M54.2324 466V127.122C54.2324 127.122 37.6816 136.477 37.1863 147.603C36.4759 163.561 82.9979 160.637 60.0921 163.12C37.1862 165.602 47.3074 173.671 30.2613 163.12C13.2151 152.569 81.4002 195.394 65.952 182.36C50.5039 169.326 14.0181 185.463 34.2605 182.36C54.5028 179.257 88.3248 202.221 75.5402 195.394C62.7555 188.567 41.9805 205.324 24.9343 195.394C7.88811 185.463 97.3806 219.6 69.6806 211.531C41.9805 203.462 51.569 215.876 24.9343 211.531C-1.70037 207.186 98.446 236.148 75.5402 225.597C52.6344 215.046 32.392 243.184 16.9439 233.254C1.49578 223.323 36.6613 250.857 71.2863 246.057C105.911 241.256 26.9122 254.64 22.6507 251.537C18.3892 248.434 90.4557 265.161 75.5402 259.575C60.6247 253.989 15.346 272.355 16.9439 268.011C18.5419 263.666 90.0035 281.044 78.8169 287.872C67.6303 294.699 39.8498 300.285 16.9439 287.872C-5.96202 275.459 104.386 312.698 78.8169 304.009C53.2476 295.32 63.2884 307.112 16.9439 304.009C-29.4006 300.905 119.221 326.352 85.1287 316.422C51.0362 306.491 -10.756 323.249 21.2055 316.422C53.1669 309.595 102.175 352.42 85.1287 336.283C68.0824 320.146 70.7458 359.868 21.2055 345.593C-28.3349 331.318 117.285 343.673 90.9883 352.42C79.3019 356.307 60.0921 351.179 60.0921 356.765C60.0921 362.35 60.0921 437.45 60.0921 452.966C60.0921 468.483 113.333 466 121.805 458.328V316.422C121.805 316.422 110.285 313.855 98.446 304.009C73.7061 283.434 154.912 281.044 175.687 292.837C196.462 304.629 90.9883 268.011 90.9883 268.011C90.9883 268.011 141.062 259.322 171.425 268.011C201.789 276.7 76.0729 222.082 90.9883 233.254C105.904 244.426 172.651 225.386 183.305 236.558C193.959 247.729 52.0422 197.256 85.1287 211.531C118.215 225.806 176.219 187.946 162.902 202.221C149.585 216.496 85.1287 160.017 85.1287 171.188C85.1287 182.36 196.994 166.223 167.696 171.188C138.398 176.154 54.2324 99.1922 85.1287 138.294C116.025 177.395 144.258 147.603 167.696 147.603C191.135 147.603 75.5401 109.123 98.446 122.777C121.352 136.432 146.388 121.536 162.902 127.122C179.416 132.708 68.6152 106.64 90.9883 99.1922C113.361 91.7443 150.117 84.2965 162.902 99.1922C175.687 114.088 90.9882 57.6083 98.446 74.9866C105.904 92.365 105.904 65.0561 149.585 74.9866C193.266 84.9171 90.9883 51.4017 102.175 49.5397C113.361 47.6778 141.594 38.3679 138.398 43.9538C135.202 49.5397 119.754 55.1256 113.361 38.3679C106.969 21.6102 134.137 8.57642 134.137 8.57642C132.056 182.121 121.352 439.932 128.81 452.966C136.267 466 226.293 452.966 226.293 452.966" stroke="url(#paint1_linear)"/>
<defs>
<linearGradient id="paint0_linear" x1="73.0793" y1="-16.9878" x2="296.031" y2="439.07" gradientUnits="userSpaceOnUse">
<stop stop-color="#58FFB3"/>
<stop offset="0.826719" stop-color="#5E19E4"/>
<stop offset="1" stop-color="#902EAA" stop-opacity="0.37"/>
</linearGradient>
<linearGradient id="paint1_linear" x1="117.098" y1="60.7892" x2="274.347" y2="428.995" gradientUnits="userSpaceOnUse">
<stop stop-color="#57FFB2"/>
<stop offset="0.695047" stop-color="#5E19E4"/>
<stop offset="1" stop-color="#902EAA" stop-opacity="0.37"/>
</linearGradient>
</defs>
</svg>
